<?xml version="1.0" standalone="no"?> <!DOCTYPE svg PUBLIC "-//W3C//DTD SVG 1.0//EN" "http://www.w3.org/TR/2001/REC-SVG-20010904/DTD/svg10.dtd" > <svg xmlns="http://www.w3.org/2000/svg" width="100%" height="100%">
<defs >
<font id="Yandex" horiz-adv-x="510" ><font-face
    font-family="Yandex Sans Text"
    units-per-em="1000"
    panose-1="0 0 0 0 0 0 0 0 0 0"
    ascent="950"
    descent="-250"
    alphabetic="0" />
<missing-glyph horiz-adv-x="196" />
<glyph unicode=" " glyph-name="space" horiz-adv-x="196" />
<glyph unicode="!" glyph-name="exclam" horiz-adv-x="251" d="M143 700L140 159H114L111 700H143ZM125 -4Q108 -4 99 6T90 31Q90 46 99 56T125 66Q142 66 151 56T160 31Q160 17 151 7T125 -4Z" />
<glyph unicode="&quot;" glyph-name="quotedbl" horiz-adv-x="292" d="M70 716H105L102 524H73L70 716ZM186 716H221L218 524H189L186 716Z" />
<glyph unicode="#" glyph-name="numbersign" horiz-adv-x="658" d="M440 480H243L222 256H419L440 480ZM417 231H220L198 0H172L194 231H40V256H196L217 480H67V505H219L239 716H265L245 505H442L462 716H488L468 505H618V480H466L445 256H591V231H443L421 0H395L417
231Z" />
<glyph unicode="$" glyph-name="dollar" horiz-adv-x="556" d="M259 -140V-10Q215 -9 181 -3T122 13T81 32T56 48L61 78Q70 71 88 61T132 40T190 23T259 16V356Q222 366 186 379T121 415T75 468T57 546Q57 588 72 620T114 675T178 709T259 725V830H288V726H289Q355
726 395 714T463 688L458 660Q432 674 391 686T289 699H288V377Q323 367 360 355T429 321T481 265T502 176Q502 126 484 92T435 36T366 3T287 -10V-140H259ZM471 178Q471 217 459 244T422 290T364 323T287 349V17Q322 18 355 27T414 54T455 103T471 178ZM88 546Q88
510 101 485T137 442T192 410T259 385V698Q223 695 192 686T138 658T101 613T88 546Z" />
<glyph unicode="%" glyph-name="percent" horiz-adv-x="670" d="M69 -10L570 726H602L101 -10H69ZM315 552Q315 511 305 479T275 424T231 389T178 377Q150 377 126 388T83 422T54 475T43 547Q43 588 53 620T82 676T125 711T178 723Q206 723 231 712T275 678T304
624T315 552ZM73 549Q73 480 102 442T178 404Q225 404 255 442T285 549Q285 620 255 658T178 696Q131 696 102 658T73 549ZM627 168Q627 127 616 95T587 41T543 6T490 -6Q461 -6 437 5T394 39T366 92T355 164Q355 204 365 236T394 292T436 327T490 339Q518 339
543 328T586 294T616 240T627 168ZM385 166Q385 96 414 59T490 21Q537 21 566 58T596 166Q596 237 567 274T490 312Q443 312 414 275T385 166Z" />
<glyph unicode="&amp;" glyph-name="ampersand" horiz-adv-x="761" d="M243 382Q286 401 318 420T372 461T405 509T416 568Q416 592 409 615T385 657T344 687T281 699Q245 699 219 687T177 654T153 610T145 562Q145 532 154 506T178 458T208 418T240 385L243 382ZM272
16Q338 16 390 41T484 107Q463 126 441 147T395 193L236 350Q203 338 175 323T125 287T92 239T80 175Q80 145 90 117T122 66T182 30T272 16ZM678 16Q627 16 587 35T505 89Q461 45 403 18T269 -10Q208 -10 166 6T98 48T61 107T49 175Q49 215 62 246T98 300T151 340T215
370Q200 385 183 404T150 448T124 500T114 563Q114 595 124 624T156 676T208 712T282 726Q324 726 355 714T406 680T437 630T447 569Q447 528 432 497T392 442T333 398T264 362L413 214Q434 194 456 171T503 127Q528 156 548 189T583 256T607 325T622 392L648 385Q643
355 634 320T609 249T573 176T524 109Q559 81 596 63T674 44Q706 44 729 53V26Q719 22 707 19T678 16Z" />
<glyph unicode="&apos;" glyph-name="quotesingle" horiz-adv-x="175" d="M70 716H105L102 524H73L70 716Z" />
<glyph unicode="(" glyph-name="parenleft" horiz-adv-x="288" d="M242 -139Q154 -65 108 49T61 307Q61 379 73 445T108 570T164 675T242 756H275Q232 724 198 677T140 573T104 449T91 310Q91 166 140 51T275 -139H242Z" />
<glyph unicode=")" glyph-name="parenright" horiz-adv-x="288" d="M46 -139Q134 -65 180 49T227 307Q227 379 215 445T180 570T124 675T46 756H13Q56 724 90 677T148 573T184 449T197 310Q197 166 148 51T13 -139H46Z" />
<glyph unicode="*" glyph-name="asterisk" horiz-adv-x="398" d="M199 519L116 394L92 412L181 532L45 574L55 602L188 553L184 700H214L210 553L343 602L353 574L217 532L306 412L282 394L199 519Z" />
<glyph unicode="+" glyph-name="plus" horiz-adv-x="556" d="M298 324V92H268V324H68V351H268V582H298V351H498V324H298Z" />
<glyph unicode="," glyph-name="comma" horiz-adv-x="257" d="M89 -91Q106 -70 116 -47T129 -3Q113 -3 104 7T95 31Q95 46 104 56T130 66Q147 66 157 55T167 23Q167 9 163 -7T151 -39T136 -68T121 -91H89Z" />
<glyph unicode="-" glyph-name="hyphen" horiz-adv-x="360" d="M60 314H300V282H60V314Z" />
<glyph unicode="." glyph-name="period" horiz-adv-x="257" d="M128 -4Q111 -4 102 6T93 31Q93 46 102 56T128 66Q145 66 154 56T163 31Q163 17 154 7T128 -4Z" />
<glyph unicode="/" glyph-name="slash" horiz-adv-x="348" d="M0 -120L316 756H348L31 -120H0Z" />
<glyph unicode="0" glyph-name="zero" horiz-adv-x="556" d="M280 -10Q168 -10 106 83T43 359Q43 541 105 633T280 726Q392 726 453 634T514 361Q514 181 453 86T280 -10ZM278 16Q374 16 428 99T482 358Q482 533 429 616T280 699Q183 699 129 616T75 358Q75 183
129 100T278 16Z" />
<glyph unicode="1" glyph-name="one" horiz-adv-x="556" d="M330 0V676L94 503V538L338 716H361V0H330Z" />
<glyph unicode="2" glyph-name="two" horiz-adv-x="556" d="M59 0V38Q182 135 260 204T383 328T445 426T462 516Q462 552 451 585T416 643T352 684T258 699Q202 699 158 683T86 645L82 674Q107 692 151 709T259 726Q320 726 364 710T437 665T478 598T492 516Q492
468 474 422T411 320T289 194T92 28H499V0H59Z" />
<glyph unicode="3" glyph-name="three" horiz-adv-x="556" d="M251 -10Q185 -10 134 7T56 41L65 70Q93 50 142 33T251 16Q309 16 350 30T419 68T458 125T471 193Q471 273 419 319T277 365H182V392H283Q359 392 402 433T446 545Q446 574 436 602T403 651T343 686T251
699Q191 699 152 685T86 654L81 683Q107 700 149 713T251 726Q306 726 348 713T418 675T460 618T475 546Q475 510 464 482T436 433T395 399T348 379Q379 373 406 359T455 321T488 266T501 193Q501 148 484 111T434 47T355 5T251 -10Z" />
<glyph unicode="4" glyph-name="four" horiz-adv-x="556" d="M394 675L63 213H394V675ZM424 186V0H394V186H29V212L391 716H424V213H526V186H424Z" />
<glyph unicode="5" glyph-name="five" horiz-adv-x="556" d="M239 -10Q212 -10 186 -7T135 3T90 18T57 37L64 67Q93 47 139 32T239 16Q297 16 339 32T409 76T450 142T463 224Q463 274 448 309T407 367T345 400T265 411Q211 411 174 397T115 367H92V716H468V689H121V399Q144
413 180 425T270 438Q316 438 357 426T428 387T475 320T493 223Q493 174 477 132T429 58T350 8T239 -10Z" />
<glyph unicode="6" glyph-name="six" horiz-adv-x="556" d="M280 -10Q239 -10 198 5T123 52T69 136T48 260Q48 338 76 408T150 537T254 641T372 716H420V711Q358 682 303 643T204 557T130 457T87 348Q120 395 170 428T291 461Q338 461 378 445T448 399T494 326T511
228Q511 173 494 129T445 54T372 7T280 -10ZM281 16Q324 16 360 30T423 72T465 138T480 228Q480 277 466 315T427 379T368 420T291 434Q229 434 176 403T81 302Q80 286 80 277T80 260Q80 198 95 152T138 76T202 31T281 16Z" />
<glyph unicode="7" glyph-name="seven" horiz-adv-x="556" d="M130 0L469 689H63V716H501V692L165 0H130Z" />
<glyph unicode="8" glyph-name="eight" horiz-adv-x="556" d="M278 -10Q228 -10 186 4T113 44T64 107T46 192Q46 269 91 317T209 382Q150 397 111 437T71 543Q71 587 87 621T131 678T197 714T281 726Q324 726 362 715T428 680T472 624T488 545Q488 479 450 439T353
383Q423 367 467 321T511 196Q511 148 494 110T445 45T371 4T278 -10ZM281 396Q316 396 348 405T405 432T445 478T460 543Q460 582 447 611T409 659T352 689T281 699Q243 699 210 689T152 660T113 611T99 543Q99 507 114 480T154 434T213 406T281 396ZM278 16Q323
16 360 29T425 66T467 123T482 196Q482 236 467 268T424 322T360 357T281 369Q237 369 200 357T135 323T91 268T75 196Q75 156 90 123T132 66T196 29T278 16Z" />
<glyph unicode="9" glyph-name="nine" horiz-adv-x="556" d="M277 727Q318 727 359 712T434 665T488 581T509 457Q509 379 482 309T408 180T304 75T183 0H135V5Q197 33 252 73T352 160T427 260T470 368Q437 321 387 289T266 256Q219 256 179 272T109 318T63 391T46
489Q46 543 65 587T115 662T189 710T277 727ZM276 700Q236 700 200 686T137 645T93 579T77 489Q77 440 91 402T130 337T189 296T266 282Q328 282 381 312T476 414Q477 430 477 439T477 457Q477 519 462 565T419 641T355 685T276 700Z" />
<glyph unicode=":" glyph-name="colon" horiz-adv-x="288" d="M144 379Q127 379 118 389T109 414Q109 429 118 439T144 449Q161 449 170 439T179 414Q179 400 170 390T144 379ZM144 -4Q127 -4 118 6T109 31Q109 46 118 56T144 66Q161 66 170 56T179 31Q179 17
170 7T144 -4Z" />
<glyph unicode=";" glyph-name="semicolon" horiz-adv-x="288" d="M105 -91Q122 -70 132 -47T145 -3Q129 -3 120 7T111 31Q111 46 120 56T146 66Q163 66 173 55T183 23Q183 9 179 -7T167 -39T152 -68T137 -91H105ZM148 379Q131 379 122 389T113 414Q113 429 122
439T148 449Q165 449 174 439T183 414Q183 400 174 390T148 379Z" />
<glyph unicode="&lt;" glyph-name="less" horiz-adv-x="556" d="M81 315V359L474 552V523L96 337L474 151V122L81 315Z" />
<glyph unicode="=" glyph-name="equal" horiz-adv-x="556" d="M63 430V457H493V430H63ZM63 216V244H493V216H63Z" />
<glyph unicode="&gt;" glyph-name="greater" horiz-adv-x="556" d="M81 151L460 337L81 523V552L474 359V315L81 122V151Z" />
<glyph unicode="?" glyph-name="question" horiz-adv-x="480" d="M425 535Q425 500 417 474T395 426T363 389T326 360Q300 343 275 327T228 290T194 243T181 177V159H155V176Q155 221 168 251T204 304T252 344T304 379Q323 392 339 406T368 439T388 481T395 535Q395
566 386 596T357 648T303 685T222 699Q181 699 143 688T76 662L70 689Q100 706 139 716T222 726Q322 726 373 675T425 535ZM169 -4Q152 -4 143 6T134 31Q134 46 143 56T169 66Q186 66 195 56T204 31Q204 17 195 7T169 -4Z" />
<glyph unicode="@" glyph-name="at" horiz-adv-x="1020" d="M516 -161Q419 -161 334 -134T186 -54T87 77T51 258Q51 361 87 447T187 595T339 691T531 726Q622 726 702 700T842 623T935 501T970 337Q970 280 957 231T917 146T852 89T764 68Q732 68 709 77T670 102T647
139T636 183Q612 126 567 97T465 68Q432 68 402 78T349 112T313 171T299 257Q299 306 312 351T352 430T417 485T504 505Q566 505 603 473T654 381L673 478H698L667 249Q664 224 665 197T677 147T709 110T765 95Q800 95 832 111T888 158T926 234T940 336Q940 423
907 490T817 604T687 675T530 699Q434 699 352 667T210 577T115 439T80 261Q80 163 114 89T207 -34T345 -109T516 -134Q557 -134 594 -130T661 -120T714 -106T750 -91L756 -116Q742 -124 718 -131T662 -146T593 -157T516 -161ZM329 255Q329 210 341 180T373 131T417
104T468 95Q511 95 543 113T597 162T630 232T641 314Q641 392 604 435T504 478Q460 478 427 459T373 408T340 336T329 255Z" />
<glyph unicode="A" glyph-name="A" horiz-adv-x="620" d="M308 686L151 267H467L308 686ZM478 238H140L51 0H20L289 716H329L600 0H568L478 238Z" />
<glyph unicode="B" glyph-name="B" horiz-adv-x="601" d="M127 688V383H272Q319 383 357 392T422 420T464 469T479 542Q479 617 432 652T290 688H127ZM127 355V29H297Q346 29 386 38T455 67T498 120T514 197Q514 355 315 355H127ZM95 716H290Q396 716 453 674T511
543Q511 471 475 430T376 373Q546 354 546 198Q546 145 527 108T474 46T395 11T297 0H95V716Z" />
<glyph unicode="C" glyph-name="C" horiz-adv-x="670" d="M390 -10Q310 -10 248 15T143 88T78 204T55 358Q55 445 77 513T143 628T248 701T389 726Q471 726 524 704T610 653L600 622Q565 654 512 675T389 697Q317 697 261 674T166 607T107 500T87 358Q87 278 107
216T166 109T261 42T390 19Q459 19 512 38T600 91L610 62Q578 34 525 12T390 -10Z" />
<glyph unicode="D" glyph-name="D" horiz-adv-x="706" d="M127 687V29H318Q381 29 436 51T532 116T596 225T620 376Q620 462 597 521T534 617T442 670T330 687H127ZM95 716H328Q395 716 454 698T557 640T626 534T652 375Q652 281 626 211T555 94T449 24T316 0H95V716Z" />
<glyph unicode="E" glyph-name="E" horiz-adv-x="568" d="M95 716H508V687H127V387H456V358H127V29H513V0H95V716Z" />
<glyph unicode="F" glyph-name="F" horiz-adv-x="554" d="M127 338V0H95V716H503V687H127V367H451V338H127Z" />
<glyph unicode="G" glyph-name="G" horiz-adv-x="744" d="M689 276Q689 213 669 161T610 70T517 11T393 -10Q322 -10 261 14T153 85T81 200T55 358Q55 446 80 515T152 630T263 701T404 726Q488 726 546 704T638 653L628 622Q590 655 536 676T405 697Q331 697 272
675T172 609T109 503T87 358Q87 276 111 213T176 107T273 42T393 19Q454 19 503 38T587 91T641 174T660 282V328H373V357H689V276V276Z" />
<glyph unicode="H" glyph-name="H" horiz-adv-x="724" d="M597 340H127V0H95V716H127V369H597V716H629V0H597V340Z" />
<glyph unicode="I" glyph-name="I" horiz-adv-x="222" d="M127 716V0H95V716H127Z" />
<glyph unicode="J" glyph-name="J" horiz-adv-x="352" d="M262 716V138Q262 71 233 31T129 -10Q101 -10 79 -4T40 11L51 41Q65 33 85 26T129 19Q189 19 209 50T230 139V716H262Z" />
<glyph unicode="K" glyph-name="K" horiz-adv-x="596" d="M226 349H127V0H95V716H127V378H227L521 716H558L254 364L575 0H535L226 349Z" />
<glyph unicode="L" glyph-name="L" horiz-adv-x="559" d="M95 716H127V29H503V0H95V716Z" />
<glyph unicode="M" glyph-name="M" horiz-adv-x="853" d="M124 674V0H95V716H137L427 132L715 716H758V0H726V676L445 108H405L124 674Z" />
<glyph unicode="N" glyph-name="N" horiz-adv-x="731" d="M124 685V0H95V716H140L607 27V716H636V0H588L124 685Z" />
<glyph unicode="O" glyph-name="O" horiz-adv-x="771" d="M386 -10Q314 -10 254 15T149 88T80 204T55 357Q55 445 80 513T149 629T253 701T386 726Q458 726 518 701T623 629T691 513T716 357Q716 273 692 205T623 89T519 16T386 -10ZM386 19Q452 19 506 41T601
107T663 214T685 358Q685 439 663 502T601 608T507 674T386 697Q320 697 266 675T171 609T109 502T87 358Q87 277 109 214T171 108T265 42T386 19Z" />
<glyph unicode="P" glyph-name="P" horiz-adv-x="566" d="M127 687V345H285Q386 345 435 386T485 523Q485 687 296 687H127ZM127 316V0H95V716H296Q402 716 459 670T516 524Q516 414 455 365T285 316H127Z" />
<glyph unicode="Q" glyph-name="Q" horiz-adv-x="772" d="M708 -120Q629 -107 567 -91T454 -57T362 -23T282 6Q231 23 190 54T118 131T72 233T55 361Q55 447 80 515T149 630T253 701T386 726Q458 726 518 701T623 629T691 515T716 361Q716 279 694 212T628 96T523
22T382 -6Q421 -20 456 -32T531 -54T614 -74T716 -91L708 -120ZM386 19Q452 19 506 41T601 107T663 214T685 358Q685 439 663 502T601 608T507 674T386 697Q320 697 266 675T171 609T109 502T87 358Q87 277 109 214T171 108T265 42T386 19Z" />
<glyph unicode="R" glyph-name="R" horiz-adv-x="593" d="M127 0H95V716H305Q411 716 469 671T527 529Q527 482 514 447T476 388T417 349T340 329L547 0H512L307 326H127V0ZM127 688V355H288Q334 355 372 364T438 395T480 448T495 528Q495 688 305 688H127Z" />
<glyph unicode="S" glyph-name="S" horiz-adv-x="558" d="M260 -10Q179 -10 125 9T45 48L58 78Q87 56 139 38T260 19Q299 19 336 27T403 54T451 103T469 178Q469 219 454 248T411 297T347 331T266 356Q228 366 191 379T124 415T76 469T57 549Q57 595 74 628T123
683T196 715T289 726Q355 726 395 714T463 688L453 659Q427 673 387 685T288 697Q246 697 210 689T147 662T105 616T89 549Q89 512 103 486T143 442T200 410T269 387Q305 376 345 364T421 330T479 272T502 179Q502 126 481 90T426 32T348 0T260 -10Z" />
<glyph unicode="T" glyph-name="T" horiz-adv-x="537" d="M285 687V0H253V687H13V716H524V687H285Z" />
<glyph unicode="U" glyph-name="U" horiz-adv-x="678" d="M80 716H112V248Q112 189 128 146T174 75T245 33T335 19Q383 19 425 33T499 75T549 148T567 251V716H598V252Q598 187 578 138T522 56T438 7T335 -10Q279 -10 233 5T152 53T99 133T80 248V716Z" />
<glyph unicode="V" glyph-name="V" horiz-adv-x="600" d="M20 716H52L301 34L551 716H580L321 0H280L20 716Z" />
<glyph unicode="W" glyph-name="W" horiz-adv-x="908" d="M25 716H57L240 43L436 716H473L669 41L855 716H883L690 0H649L454 676L260 0H220L25 716Z" />
<glyph unicode="X" glyph-name="X" horiz-adv-x="610" d="M301 338L75 0H41L283 363L40 716H76L304 385L534 716H567L321 362L570 0H533L301 338Z" />
<glyph unicode="Y" glyph-name="Y" horiz-adv-x="586" d="M277 0V314L20 716H54L295 342L533 716H566L309 313V0H277Z" />
<glyph unicode="Z" glyph-name="Z" horiz-adv-x="594" d="M51 0V26L503 687H61V716H542V690L87 29H543V0H51Z" />
<glyph unicode="[" glyph-name="bracketleft" horiz-adv-x="288" d="M75 756H265V729H105V-112H265V-139H75V756Z" />
<glyph unicode="\" glyph-name="backslash" horiz-adv-x="341" d="M0 756H31L348 -120H316L0 756Z" />
<glyph unicode="]" glyph-name="bracketright" horiz-adv-x="288" d="M213 756H23V729H183V-112H23V-139H213V756Z" />
<glyph unicode="^" glyph-name="asciicircum" horiz-adv-x="451" d="M226 700L61 458H30L200 716H251L420 458H389L226 700Z" />
<glyph unicode="_" glyph-name="underscore" horiz-adv-x="351" d="M-10 -88H360V-114H-10V-88Z" />
<glyph unicode="`" glyph-name="grave" horiz-adv-x="451" d="M257 598L142 746H188L287 598H257Z" />
<glyph unicode="a" glyph-name="a" horiz-adv-x="520" d="M221 16Q263 16 295 30T350 65T387 109T409 150V277H279Q173 277 124 243T75 146Q75 81 116 49T221 16ZM416 0Q409 31 409 101Q399 82 383 63T344 27T290 1T219 -10Q138 -10 92 32T45 147Q45 225 105 265T278
305H409V357Q409 399 397 427T363 471T314 495T254 502Q226 502 201 498T154 487T115 472T85 455L75 481Q101 499 146 514T254 529Q292 529 325 520T384 491T424 438T439 359V103Q439 70 440 44T445 0H416Z" />
<glyph unicode="b" glyph-name="b" horiz-adv-x="615" d="M326 -10Q251 -10 196 27T115 135L114 0H85V716H115V385Q141 455 196 492T326 529Q378 529 422 511T500 459T551 374T570 260Q570 196 552 146T500 62T423 9T326 -10ZM326 16Q372 16 411 32T478 79T523
156T540 260Q540 318 524 363T479 439T411 486T326 502Q280 502 242 486T175 440T130 364T114 260Q114 201 130 156T174 80T241 32T326 16Z" />
<glyph unicode="c" glyph-name="c" horiz-adv-x="502" d="M302 -10Q246 -10 199 8T118 61T64 146T45 259Q45 323 64 373T117 457T199 510T305 529Q346 529 385 520T454 495L446 466Q418 483 381 492T305 502Q252 502 210 486T137 438T91 361T75 259Q75 203 92
158T139 82T210 33T302 16Q390 16 448 56L456 29Q433 12 394 1T302 -10Z" />
<glyph unicode="d" glyph-name="d" horiz-adv-x="614" d="M289 16Q335 16 374 32T441 79T486 156T502 260Q502 318 486 363T442 439T374 486T289 502Q243 502 204 486T137 440T92 364T75 260Q75 201 91 156T136 80T204 32T289 16ZM501 138Q475 66 420 28T289 -10Q237
-10 193 8T115 61T64 146T45 260Q45 324 63 374T115 458T192 511T289 529Q364 529 419 492T500 385V716H530V0H503L501 138Z" />
<glyph unicode="e" glyph-name="e" horiz-adv-x="537" d="M283 502Q244 502 208 488T144 447T98 380T76 289H461Q466 343 453 383T415 450T355 489T283 502ZM475 45Q461 35 444 25T406 8T358 -5T299 -10Q240 -10 193 8T113 61T63 146T45 260Q45 323 64 373T115
457T190 510T283 529Q331 529 372 513T443 463T484 379T487 262H75V260Q75 143 135 80T299 16Q359 16 398 33T466 72L475 45Z" />
<glyph unicode="f" glyph-name="f" horiz-adv-x="333" d="M152 492V0H122V492H48V519H122V551Q122 631 159 676T273 722Q287 722 300 720T324 713L319 688Q310 691 299 693T273 695Q211 695 182 658T152 551V519H309V492H152Z" />
<glyph unicode="g" glyph-name="g" horiz-adv-x="615" d="M289 47Q335 47 373 62T440 106T485 177T501 275Q501 330 485 372T441 444T374 487T289 502Q243 502 204 488T137 444T92 373T75 275Q75 220 91 178T136 106T204 62T289 47ZM275 -179Q224 -179 188 -172T129
-154Q102 -143 85 -128L92 -100Q111 -115 138 -126Q161 -136 195 -144T275 -152Q387 -152 443 -106T500 41V156Q474 90 419 55T289 20Q237 20 193 37T115 87T64 167T45 275Q45 335 63 382T115 462T192 512T289 529Q364 529 419 494T501 391Q501 446 503 475T508
519H536Q534 505 533 472T531 379V41Q531 -179 275 -179Z" />
<glyph unicode="h" glyph-name="h" horiz-adv-x="582" d="M115 0H85V716H115V395H118Q127 419 143 443T185 486T244 517T324 529Q408 529 455 487T502 363V0H471V363Q471 437 429 469T321 502Q276 502 243 489T185 454T144 404T115 347V0Z" />
<glyph unicode="i" glyph-name="i" horiz-adv-x="200" d="M100 643Q86 643 79 651T72 671Q72 682 79 690T100 699Q114 699 121 691T128 671Q128 660 121 652T100 643ZM115 519V0H85V519H115Z" />
<glyph unicode="j" glyph-name="j" horiz-adv-x="205" d="M105 643Q91 643 84 651T77 671Q77 682 84 690T105 699Q119 699 126 691T133 671Q133 660 126 652T105 643ZM1 -160Q43 -160 66 -136T90 -65V519H120V-64Q120 -115 93 -151T6 -187L1 -160Z" />
<glyph unicode="k" glyph-name="k" horiz-adv-x="474" d="M195 255H116V0H85V716H116V281H197L408 519H445L223 269V265L435 0H397L195 255Z" />
<glyph unicode="l" glyph-name="l" horiz-adv-x="200" d="M115 716V0H85V716H115Z" />
<glyph unicode="m" glyph-name="m" horiz-adv-x="901" d="M115 0H85V519H113L114 393H116Q126 418 142 442T180 485T234 517T307 529Q376 529 417 494T467 391Q478 418 494 442T533 486T587 517T660 529Q735 529 778 487T821 363V0H791V363Q791 437 754 469T657
502Q615 502 585 489T533 454T496 404T468 347V0H438V363Q438 437 401 469T304 502Q262 502 232 489T180 454T143 404T115 347V0Z" />
<glyph unicode="n" glyph-name="n" horiz-adv-x="582" d="M321 502Q276 502 243 489T185 454T144 404T115 347V0H85V519H113L114 393H116Q126 418 142 442T184 485T244 517T324 529Q408 529 455 487T502 363V0H472V363Q472 437 430 469T321 502Z" />
<glyph unicode="o" glyph-name="o" horiz-adv-x="576" d="M287 -10Q235 -10 191 8T115 61T64 146T45 260Q45 324 63 374T114 458T191 511T287 529Q339 529 383 511T461 459T512 374T531 260Q531 196 513 146T461 62T384 9T287 -10ZM287 16Q333 16 372 32T439 79T484
156T501 260Q501 318 485 363T440 439T372 486T287 502Q241 502 203 486T136 440T91 364T75 260Q75 201 91 156T135 80T202 32T287 16Z" />
<glyph unicode="p" glyph-name="p" horiz-adv-x="615" d="M326 16Q372 16 411 32T478 79T523 156T540 260Q540 318 524 363T479 439T411 486T326 502Q280 502 242 486T175 440T130 364T114 260Q114 201 130 156T174 80T241 32T326 16ZM326 -10Q251 -10 196 27T115
134V-177H85V519H113L114 393L115 387Q142 456 196 492T326 529Q378 529 422 511T500 459T551 374T570 260Q570 196 552 146T500 62T423 9T326 -10Z" />
<glyph unicode="q" glyph-name="q" horiz-adv-x="615" d="M500 -177V134Q474 65 419 28T289 -10Q237 -10 193 8T115 61T64 146T45 260Q45 324 63 374T115 458T192 511T289 529Q364 529 419 492T500 385Q500 443 502 474T507 519H536Q534 505 533 472T531 379V-177H500ZM289
16Q335 16 373 32T440 79T485 156T501 260Q501 318 485 363T441 439T374 486T289 502Q243 502 204 486T137 440T92 364T75 260Q75 201 91 156T136 80T204 32T289 16Z" />
<glyph unicode="r" glyph-name="r" horiz-adv-x="337" d="M306 501Q237 495 188 456T115 337V0H85V519H113L114 383H116Q123 408 138 433T176 478T232 512T306 529V501V501Z" />
<glyph unicode="s" glyph-name="s" horiz-adv-x="460" d="M224 -10Q186 -10 156 -5T103 9T65 26T41 41L48 70Q58 62 74 53T112 35T163 22T224 16Q254 16 282 22T332 42T368 78T382 134Q382 165 371 186T338 220T287 242T220 259Q180 267 148 277T94 302T59 340T47
396Q47 431 61 456T99 497T156 521T227 529Q290 529 326 518T383 495L375 467Q355 478 319 490T227 502Q196 502 169 497T122 480T89 447T77 396Q77 369 87 351T116 321T164 302T228 287Q266 279 300 269T359 243T398 200T413 135Q413 97 399 70T360 25T300 -1T224
-10Z" />
<glyph unicode="t" glyph-name="t" horiz-adv-x="333" d="M295 2Q283 -3 266 -6T229 -10Q164 -10 136 22T107 106V492H33V519H107V628H137V519H288V492H137V110Q137 90 141 73T156 43T185 23T229 16Q247 16 262 19T288 27L295 2V2Z" />
<glyph unicode="u" glyph-name="u" horiz-adv-x="565" d="M448 121Q439 95 423 72T382 30T326 1T252 -10Q170 -10 125 35T80 166V519H110V166Q110 86 150 51T255 16Q296 16 327 28T381 61T421 109T449 167V519H480V0H451L449 121H448V121Z" />
<glyph unicode="v" glyph-name="v" horiz-adv-x="486" d="M23 519H55L244 20L432 519H463L265 0H220L23 519Z" />
<glyph unicode="w" glyph-name="w" horiz-adv-x="697" d="M28 519H60L189 27L329 519H369L509 24L638 519H669L532 0H486L348 479L210 0H165L28 519Z" />
<glyph unicode="x" glyph-name="x" horiz-adv-x="460" d="M226 242L54 0H22L208 267L25 519H62L227 292L386 519H419L245 267L438 0H402L226 242Z" />
<glyph unicode="y" glyph-name="y" horiz-adv-x="486" d="M92 -187Q78 -187 70 -185T56 -180L59 -155Q66 -157 73 -158T92 -160Q136 -160 165 -120T224 1L23 519H56L240 39L432 519H463L259 7Q240 -40 224 -76T188 -137T146 -174T92 -187Z" />
<glyph unicode="z" glyph-name="z" horiz-adv-x="452" d="M34 0V20L376 492H42V519H415V499L73 27H416V0H34Z" />
<glyph unicode="{" glyph-name="braceleft" horiz-adv-x="288" d="M265 -138Q186 -145 137 -114T88 -15Q88 12 95 37T111 88T127 141T133 199Q133 213 129 228T114 257T82 281T26 295V322Q61 325 82 335T114 359T129 390T133 423Q133 452 126 478T111 529T95 578T88
628Q88 699 137 730T265 757V732Q192 734 156 711T119 630Q119 604 126 581T141 534T156 485T163 429Q163 387 146 356T77 309Q128 292 145 262T163 193Q163 161 156 135T141 84T126 35T119 -16Q119 -71 155 -94T265 -113V-138V-138Z" />
<glyph unicode="|" glyph-name="bar" horiz-adv-x="228" d="M128 756V-120H100V756H128Z" />
<glyph unicode="}" glyph-name="braceright" horiz-adv-x="288" d="M23 -138Q102 -145 151 -114T200 -15Q200 12 193 37T177 88T161 141T155 199Q155 213 159 228T174 257T206 281T262 295V322Q227 325 206 335T174 359T159 390T155 423Q155 452 162 478T177 529T193
578T200 628Q200 699 151 730T23 757V732Q96 734 132 711T169 630Q169 604 162 581T147 534T132 485T125 429Q125 387 142 356T211 309Q160 292 143 262T125 193Q125 161 132 135T147 84T162 35T169 -16Q169 -71 133 -94T23 -113V-138V-138Z" />
<glyph unicode="~" glyph-name="asciitilde" horiz-adv-x="574" d="M45 257Q44 285 49 311T69 359T106 392T165 405Q194 405 216 397T258 375T293 347T326 318T363 297T408 288Q456 288 480 317T503 411H529Q530 383 525 357T505 309T467 276T408 263Q364 263
335 281T281 321T230 361T165 380Q119 380 94 351T71 257H45V257Z" />
<glyph unicode="&#xa0;" glyph-name="uni00A0" horiz-adv-x="196" />
<glyph unicode="&#xa1;" glyph-name="exclamdown" horiz-adv-x="251" d="M108 -174L111 367H137L140 -174H108ZM126 530Q143 530 152 520T161 495Q161 480 152 470T126 460Q109 460 100 470T91 495Q91 509 100 519T126 530Z" />
<glyph unicode="&#xa2;" glyph-name="cent" horiz-adv-x="556" d="M312 635V529Q349 528 385 520Q424 511 454 495L446 466Q418 483 380 492Q346 501 312 502V16Q393 18 448 56L456 29Q433 12 394 1Q358 -9 312 -10V-140H283V-9Q238 -7 199 8Q152 27 118 61T64
146T45 259Q45 323 64 373T117 457T199 510Q238 525 283 528V635H312ZM209 485Q167 469 137 438T91 361T75 259Q75 203 92 158T139 82T210 33Q244 19 283 16V501Q243 498 209 485Z" />
<glyph unicode="&#xa3;" glyph-name="sterling" horiz-adv-x="556" d="M518 0H49V21Q71 42 91 64T126 111T149 164T158 224Q158 250 154 275T141 326H48V353H134Q122 393 111 433T100 516Q100 564 113 602T154 668T222 711T320 726Q387 726 427 707T487 668L481
638Q458 662 418 680T320 699Q264 699 227 684T169 642T139 583T130 516Q130 473 141 433T164 353H370V326H172Q179 303 183 280T187 232Q187 167 162 120T90 27H518V0Z" />
<glyph unicode="&#xa4;" glyph-name="currency" horiz-adv-x="530" d="M265 509Q230 509 200 496T147 461T113 407T100 340Q100 304 112 273T147 220T199 185T265 172Q300 172 330 184T383 219T418 273T431 340Q431 376 419 407T384 460T331 496T265 509ZM394
191Q368 168 336 156T265 144Q227 144 195 156T136 190L73 127L52 148L114 211Q93 237 81 269T69 340Q69 378 81 410T114 469L52 532L73 554L136 491Q162 513 194 525T265 537Q341 537 394 492L457 555L478 533L415 470Q437 444 449 411T462 340Q462 302 450 270T415
211L478 149L457 128L394 191Z" />
<glyph unicode="&#xa5;" glyph-name="yen" horiz-adv-x="556" d="M294 181V0H263V181H68V207H263V331H68V357H260L39 716H74L280 381L484 716H518L298 357H489V331H294V207H489V181H294Z" />
<glyph unicode="&#xa6;" glyph-name="brokenbar" horiz-adv-x="228" d="M128 756V356H100V756H128ZM128 280V-120H100V280H128Z" />
<glyph unicode="&#xa7;" glyph-name="section" horiz-adv-x="546" d="M286 153Q321 153 353 159T411 179T451 215T466 270Q466 336 407 371T247 406Q168 406 121 376T73 283Q73 246 92 221T142 181T211 160T286 153ZM241 -187Q197 -187 164 -180T105 -164T65 -144T41
-126L46 -98Q55 -105 72 -115T113 -135T169 -152T240 -159Q271 -159 302 -153T359 -131T399 -91T415 -27Q415 9 402 34T364 78T304 108T222 128Q195 133 164 142T106 168T61 212T43 282Q43 343 84 383T203 431Q152 451 123 484T94 575Q94 614 109 642T151 689T215
717T298 726Q361 726 397 714T460 688L455 659Q429 674 391 686T296 698Q259 698 228 692T173 672T137 634T124 575Q124 541 135 518T168 479T221 453T290 435Q319 429 355 421T422 397T475 351T496 274Q496 206 451 171T331 128Q384 108 414 72T445 -28Q445 -75
427 -106T380 -155T315 -180T241 -187Z" />
<glyph unicode="&#xa8;" glyph-name="dieresis" horiz-adv-x="451" d="M318 643Q304 643 297 651T290 671Q290 682 297 690T318 699Q332 699 338 691T345 671Q345 660 339 652T318 643ZM132 643Q118 643 111 651T104 671Q104 682 111 690T132 699Q147 699 153
691T160 671Q160 660 154 652T132 643Z" />
<glyph unicode="&#xa9;" glyph-name="copyright" horiz-adv-x="902" d="M451 -96Q364 -96 289 -66T159 20T72 150T40 316Q40 406 71 481T158 610T289 695T451 726Q538 726 613 696T743 611T830 481T862 316Q862 226 831 151T744 20T613 -65T451 -96ZM451 -69Q536
-69 606 -40T726 40T804 161T832 316Q832 399 804 469T726 590T606 670T451 699Q367 699 297 670T176 590T98 469T70 316Q70 232 98 162T176 40T296 -40T451 -69ZM459 100Q365 100 314 157T262 314Q262 416 313 472T458 529Q506 529 537 516T587 486L580 459Q561
478 528 489T458 501Q378 501 335 452T292 314Q292 226 335 177T459 127Q496 127 528 140T579 171L587 145Q568 128 538 114T459 100Z" />
<glyph unicode="&#xaa;" glyph-name="ordfeminine" horiz-adv-x="451" d="M198 340Q243 340 274 358T324 400T351 446T360 478V562H249Q158 562 116 533T73 451Q73 395 108 368T198 340ZM360 420Q353 403 340 384T308 350T261 324T196 314Q126 314 86 351T45 451Q45
519 97 553T247 588H360V633Q360 693 328 725T231 757Q180 757 141 742T78 709L72 735Q92 750 133 766T231 782Q300 782 344 748T388 644V412Q388 383 389 361T393 323H367Q364 337 362 358T360 413V420Z" />
<glyph unicode="&#xab;" glyph-name="guillemotleft" horiz-adv-x="489" d="M211 69L51 264L211 459H245L84 264L245 69H211ZM405 69L244 264L405 459H439L278 264L439 69H405Z" />
<glyph unicode="&#xac;" glyph-name="logicalnot" horiz-adv-x="573" d="M498 122V345H45V372H528V122H498Z" />
<glyph unicode="&#xae;" glyph-name="registered" horiz-adv-x="902" d="M451 -96Q364 -96 289 -66T159 20T72 150T40 316Q40 406 71 481T158 610T289 695T451 726Q538 726 613 696T743 611T830 481T862 316Q862 226 831 151T744 20T613 -65T451 -96ZM451 -69Q536
-69 606 -40T726 40T804 161T832 316Q832 399 804 469T726 590T606 670T451 699Q367 699 297 670T176 590T98 469T70 316Q70 232 98 162T176 40T296 -40T451 -69ZM369 497V324H462Q513 324 543 345T574 414Q574 497 473 497H369ZM460 297H369V107H339V524H473Q536
524 570 498T604 415Q604 360 575 332T494 299L613 107H578L460 297Z" />
<glyph unicode="&#xaf;" glyph-name="macron" horiz-adv-x="451" d="M108 666H342V638H108V666Z" />
<glyph unicode="&#xb0;" glyph-name="degree" horiz-adv-x="504" d="M252 362Q213 362 180 375T122 413T84 471T70 544Q70 584 83 617T121 675T179 712T252 726Q291 726 324 713T382 675T420 618T434 544Q434 505 421 472T383 414T325 376T252 362ZM252 389Q322
389 363 431T404 544Q404 614 363 656T252 699Q182 699 141 657T100 544Q100 474 141 432T252 389Z" />
<glyph unicode="&#xb1;" glyph-name="plusminus" horiz-adv-x="556" d="M298 324V112H268V324H68V351H268V582H298V351H498V324H298ZM68 0V27H498V0H68Z" />
<glyph unicode="&#xb2;" glyph-name="two.sup" horiz-adv-x="342" d="M33 325V357Q106 415 154 457T230 532T269 593T281 650Q281 671 274 690T253 725T215 748T159 757Q127 757 100 748T54 724L47 750Q64 762 93 772T161 783Q200 783 228 773T274 745T300 703T309
651Q309 619 297 589T256 524T180 448T63 351H313V325H33Z" />
<glyph unicode="&#xb3;" glyph-name="three.sup" horiz-adv-x="327" d="M135 319Q94 319 62 329T12 352L16 379Q34 365 65 354T134 343Q204 343 235 373T266 448Q266 496 235 523T149 550H88V575H152Q197 575 223 599T250 667Q250 685 244 701T224 729T188 749T133
757Q99 757 74 749T31 729L26 755Q45 767 72 774T135 782Q205 782 241 751T278 668Q278 622 253 597T198 564Q237 556 265 528T294 447Q294 390 252 355T135 319Z" />
<glyph unicode="&#xb4;" glyph-name="acute" horiz-adv-x="451" d="M269 746H315L200 598H170L269 746Z" />
<glyph unicode="&#xb6;" glyph-name="paragraph" horiz-adv-x="588" d="M505 -187H477V716H505V-187ZM349 -187V279H295Q238 279 192 293T111 334T59 402T40 497Q40 606 104 661T287 716H377V-187H349Z" />
<glyph unicode="&#xb7;" glyph-name="periodcentered" horiz-adv-x="200" d="M100 227Q83 227 74 237T65 262Q65 277 74 287T100 297Q117 297 126 287T135 262Q135 248 126 238T100 227Z" />
<glyph unicode="&#xb8;" glyph-name="cedilla" horiz-adv-x="451" d="M253 8L190 -165H156L222 8H253Z" />
<glyph unicode="&#xb9;" glyph-name="one.sup" horiz-adv-x="219" d="M125 325V739L22 652V684L131 776H153V325H125Z" />
<glyph unicode="&#xba;" glyph-name="ordmasculine" horiz-adv-x="490" d="M244 314Q199 314 161 330T94 376T50 449T34 549Q34 604 50 647T94 721T160 766T244 782Q289 782 328 767T395 721T440 648T456 549Q456 493 440 450T396 376T328 330T244 314ZM244 340Q283
340 317 353T375 393T414 459T428 549Q428 599 414 638T376 703T317 743T244 757Q205 757 172 744T114 704T76 638T62 549Q62 498 75 459T113 394T171 354T244 340Z" />
<glyph unicode="&#xbb;" glyph-name="guillemotright" horiz-adv-x="489" d="M211 264L51 459H84L245 264L84 69H51L211 264ZM404 264L244 459H278L439 264L278 69H244L404 264Z" />
<glyph unicode="&#xbc;" glyph-name="onequarter" horiz-adv-x="950" d="M159 0L744 716H780L195 0H159ZM790 419L590 141H790V419ZM817 116V1H790V116H558V138L784 452H817V141H886V116H817ZM125 265V679L22 592V624L131 716H153V265H125Z" />
<glyph unicode="&#xbd;" glyph-name="onehalf" horiz-adv-x="1025" d="M159 0L744 716H780L195 0H159ZM662 1V33Q735 91 783 133T859 208T898 269T910 326Q910 347 903 366T882 401T844 424T788 433Q756 433 729 424T683 400L676 426Q693 438 722 448T790 459Q829
459 857 449T903 421T929 379T938 327Q938 295 926 265T885 200T809 124T692 27H942V1H662ZM125 265V679L22 592V624L131 716H153V265H125Z" />
<glyph unicode="&#xbe;" glyph-name="threequarters" horiz-adv-x="1004" d="M213 0L798 716H834L249 0H213ZM844 419L644 141H844V419ZM871 116V1H844V116H612V138L838 452H871V141H940V116H871ZM135 259Q94 259 62 269T12 292L16 319Q34 305 65 294T134 283Q204
283 235 313T266 388Q266 436 235 463T149 490H88V515H152Q197 515 223 539T250 607Q250 625 244 641T224 669T188 689T133 697Q99 697 74 689T31 669L26 695Q45 707 72 714T135 722Q205 722 241 691T278 608Q278 562 253 537T198 504Q237 496 265 468T294 387Q294
330 252 295T135 259Z" />
<glyph unicode="&#xbf;" glyph-name="questiondown" horiz-adv-x="480" d="M75 -12Q75 23 83 49T105 97T137 134T174 163Q200 180 225 196T272 233T306 280T319 346V364H345V347Q345 302 332 272T296 219T248 179T196 144Q177 131 161 117T132 84T112 42T105 -12Q105
-43 114 -73T143 -125T197 -162T278 -176Q319 -176 357 -165T424 -139L430 -166Q400 -183 361 -193T278 -203Q178 -203 127 -152T75 -12ZM331 527Q348 527 357 517T366 492Q366 477 357 467T331 457Q314 457 305 467T296 492Q296 506 305 516T331 527Z" />
<glyph unicode="&#xc0;" glyph-name="Agrave" horiz-adv-x="620" d="M308 686L151 267H467L308 686ZM478 238H140L51 0H20L289 716H329L600 0H568L478 238ZM295 783L194 906H238L325 783H295Z" />
<glyph unicode="&#xc1;" glyph-name="Aacute" horiz-adv-x="620" d="M308 686L151 267H467L308 686ZM478 238H140L51 0H20L289 716H329L600 0H568L478 238ZM381 906H424L323 783H293L381 906Z" />
<glyph unicode="&#xc2;" glyph-name="Acircumflex" horiz-adv-x="620" d="M308 686L151 267H467L308 686ZM478 238H140L51 0H20L289 716H329L600 0H568L478 238ZM304 881L192 778H163L284 906H324L446 778H416L304 881Z" />
<glyph unicode="&#xc3;" glyph-name="Atilde" horiz-adv-x="620" d="M308 686L151 267H467L308 686ZM478 238H140L51 0H20L289 716H329L600 0H568L478 238ZM164 797Q163 840 182 868T240 897Q260 897 278 886T314 862T348 838T379 827Q399 827 410 843T424 899H451Q451
857 433 828T376 799Q356 799 337 810T301 833T268 857T237 868Q217 868 205 853T191 797H164V797Z" />
<glyph unicode="&#xc4;" glyph-name="Adieresis" horiz-adv-x="620" d="M308 686L151 267H467L308 686ZM478 238H140L51 0H20L289 716H329L600 0H568L478 238ZM401 814Q387 814 380 822T373 842Q373 853 380 861T401 870Q415 870 421 862T428 842Q428 831 422
823T401 814ZM208 814Q194 814 187 822T180 842Q180 853 187 861T208 870Q222 870 229 862T236 842Q236 831 229 823T208 814Z" />
<glyph unicode="&#xc5;" glyph-name="Aring" horiz-adv-x="620" d="M308 686L151 267H467L308 686ZM478 238H140L51 0H20L289 716H329L600 0H568L478 238ZM304 771Q261 771 233 798T205 870Q205 912 233 939T304 967Q346 967 375 940T404 870Q404 826 375 799T304
771ZM304 797Q336 797 356 816T376 870Q376 903 356 922T304 941Q273 941 253 922T233 870Q233 835 252 816T304 797Z" />
<glyph unicode="&#xc6;" glyph-name="AE" horiz-adv-x="945" d="M472 700L210 267H472V700ZM472 238H192L48 0H15L449 716H886V687H504V387H832V358H504V29H891V0H472V238Z" />
<glyph unicode="&#xc7;" glyph-name="Ccedilla" horiz-adv-x="670" d="M390 -10H383L327 -165H293L352 -8Q295 -4 248 15Q186 41 143 88T78 204T55 358Q55 445 77 513T143 628T248 701T389 726Q471 726 524 704T610 653L600 622Q565 654 512 675T389 697Q317 697
261 674T166 607T107 500T87 358Q87 278 107 216T166 109T261 42T390 19Q459 19 512 38T600 91L610 62Q578 34 525 12T390 -10Z" />
<glyph unicode="&#xc8;" glyph-name="Egrave" horiz-adv-x="568" d="M95 716H508V687H127V387H456V358H127V29H513V0H95V716ZM304 783L203 906H247L334 783H304Z" />
<glyph unicode="&#xc9;" glyph-name="Eacute" horiz-adv-x="568" d="M95 716H508V687H127V387H456V358H127V29H513V0H95V716ZM370 906H413L312 783H282L370 906Z" />
<glyph unicode="&#xca;" glyph-name="Ecircumflex" horiz-adv-x="568" d="M95 716H508V687H127V387H456V358H127V29H513V0H95V716ZM303 881L191 778H162L283 906H323L445 778H415L303 881Z" />
<glyph unicode="&#xcb;" glyph-name="Edieresis" horiz-adv-x="568" d="M95 716H508V687H127V387H456V358H127V29H513V0H95V716ZM400 814Q386 814 379 822T372 842Q372 853 379 861T400 870Q414 870 420 862T427 842Q427 831 421 823T400 814ZM207 814Q193 814
186 822T179 842Q179 853 186 861T207 870Q221 870 228 862T235 842Q235 831 228 823T207 814Z" />
<glyph unicode="&#xcc;" glyph-name="Igrave" horiz-adv-x="222" d="M127 716V0H95V716H127ZM101 783L0 906H44L131 783H101Z" />
<glyph unicode="&#xcd;" glyph-name="Iacute" horiz-adv-x="222" d="M127 716V0H95V716H127ZM433 906H476L375 783H345L433 906Z" />
<glyph unicode="&#xce;" glyph-name="Icircumflex" horiz-adv-x="222" d="M127 716V0H95V716H127ZM367 881L255 778H226L347 906H387L509 778H479L367 881Z" />
<glyph unicode="&#xcf;" glyph-name="Idieresis" horiz-adv-x="222" d="M201 814Q187 814 180 822T173 842Q173 853 180 861T201 870Q215 870 222 862T229 842Q229 831 222 823T201 814ZM20 814Q6 814 -1 822T-8 842Q-8 853 -1 861T20 870Q34 870 41 862T48 842Q48
831 41 823T20 814ZM127 716V0H95V716H127Z" />
<glyph unicode="&#xd0;" glyph-name="Eth" horiz-adv-x="749" d="M170 351V29H361Q424 29 479 51T575 116T639 225T663 376Q663 462 640 521T577 617T484 670T372 687H170V380H412V351H170ZM137 351H15V380H137V716H371Q437 716 496 698T599 640T669 534T695 375Q695
281 669 211T598 94T492 24T359 0H137V351Z" />
<glyph unicode="&#xd1;" glyph-name="Ntilde" horiz-adv-x="731" d="M124 685V0H95V716H140L607 27V716H636V0H588L124 685ZM233 797Q232 840 251 868T309 897Q329 897 347 886T383 862T417 838T448 827Q468 827 479 843T493 899H520Q520 857 502 828T445 799Q425
799 406 810T370 833T337 857T306 868Q286 868 274 853T260 797H233V797Z" />
<glyph unicode="&#xd2;" glyph-name="Ograve" horiz-adv-x="771" d="M386 -10Q314 -10 254 15T149 88T80 204T55 357Q55 445 80 513T149 629T253 701T386 726Q458 726 518 701T623 629T691 513T716 357Q716 273 692 205T623 89T519 16T386 -10ZM386 19Q452 19
506 41T601 107T663 214T685 358Q685 439 663 502T601 608T507 674T386 697Q320 697 266 675T171 609T109 502T87 358Q87 277 109 214T171 108T265 42T386 19ZM376 783L275 906H319L406 783H376Z" />
<glyph unicode="&#xd3;" glyph-name="Oacute" horiz-adv-x="771" d="M386 -10Q314 -10 254 15T149 88T80 204T55 357Q55 445 80 513T149 629T253 701T386 726Q458 726 518 701T623 629T691 513T716 357Q716 273 692 205T623 89T519 16T386 -10ZM386 19Q452 19
506 41T601 107T663 214T685 358Q685 439 663 502T601 608T507 674T386 697Q320 697 266 675T171 609T109 502T87 358Q87 277 109 214T171 108T265 42T386 19ZM453 906H496L395 783H365L453 906Z" />
<glyph unicode="&#xd4;" glyph-name="Ocircumflex" horiz-adv-x="771" d="M386 -10Q314 -10 254 15T149 88T80 204T55 357Q55 445 80 513T149 629T253 701T386 726Q458 726 518 701T623 629T691 513T716 357Q716 273 692 205T623 89T519 16T386 -10ZM386 19Q452
19 506 41T601 107T663 214T685 358Q685 439 663 502T601 608T507 674T386 697Q320 697 266 675T171 609T109 502T87 358Q87 277 109 214T171 108T265 42T386 19ZM386 881L274 778H245L366 906H406L528 778H498L386 881Z" />
<glyph unicode="&#xd5;" glyph-name="Otilde" horiz-adv-x="771" d="M386 -10Q314 -10 254 15T149 88T80 204T55 357Q55 445 80 513T149 629T253 701T386 726Q458 726 518 701T623 629T691 513T716 357Q716 273 692 205T623 89T519 16T386 -10ZM386 19Q452 19
506 41T601 107T663 214T685 358Q685 439 663 502T601 608T507 674T386 697Q320 697 266 675T171 609T109 502T87 358Q87 277 109 214T171 108T265 42T386 19ZM242 797Q241 840 260 868T318 897Q338 897 356 886T392 862T426 838T457 827Q477 827 488 843T502 899H529Q529
857 511 828T454 799Q434 799 415 810T379 833T346 857T315 868Q295 868 283 853T269 797H242V797Z" />
<glyph unicode="&#xd6;" glyph-name="Odieresis" horiz-adv-x="771" d="M386 -10Q314 -10 254 15T149 88T80 204T55 357Q55 445 80 513T149 629T253 701T386 726Q458 726 518 701T623 629T691 513T716 357Q716 273 692 205T623 89T519 16T386 -10ZM386 19Q452
19 506 41T601 107T663 214T685 358Q685 439 663 502T601 608T507 674T386 697Q320 697 266 675T171 609T109 502T87 358Q87 277 109 214T171 108T265 42T386 19ZM483 814Q469 814 462 822T455 842Q455 853 462 861T483 870Q497 870 503 862T510 842Q510 831 504
823T483 814ZM290 814Q276 814 269 822T262 842Q262 853 269 861T290 870Q304 870 311 862T318 842Q318 831 311 823T290 814Z" />
<glyph unicode="&#xd7;" glyph-name="multiply" horiz-adv-x="556" d="M278 321L96 130L77 149L259 341L77 533L95 552L278 361L459 552L478 533L296 341L478 151L459 130L278 321Z" />
<glyph unicode="&#xd8;" glyph-name="Oslash" horiz-adv-x="771" d="M386 -10Q314 -10 253 15Q236 23 219 32L162 -70H127L194 48Q170 66 149 88Q105 136 80 204T55 357Q55 445 80 513T149 629T253 701T386 726Q458 726 518 701Q536 693 552 684L610 786H645L578
668Q602 651 623 629Q667 582 691 513T716 357Q716 273 692 205T623 89T519 16T386 -10ZM506 674Q452 697 386 697Q320 697 266 675T171 609T109 502T87 358Q87 277 109 214T171 107Q188 88 208 73L538 658Q523 667 506 674ZM386 19Q452 19 506 41T601 107T663
214T685 358Q685 439 663 502T601 608Q584 627 564 642L233 57Q249 48 265 41Q320 19 386 19Z" />
<glyph unicode="&#xd9;" glyph-name="Ugrave" horiz-adv-x="678" d="M80 716H112V248Q112 189 128 146T174 75T245 33T335 19Q383 19 425 33T499 75T549 148T567 251V716H598V252Q598 187 578 138T522 56T438 7T335 -10Q279 -10 233 5T152 53T99 133T80 248V716ZM340
783L239 906H283L370 783H340Z" />
<glyph unicode="&#xda;" glyph-name="Uacute" horiz-adv-x="678" d="M80 716H112V248Q112 189 128 146T174 75T245 33T335 19Q383 19 425 33T499 75T549 148T567 251V716H598V252Q598 187 578 138T522 56T438 7T335 -10Q279 -10 233 5T152 53T99 133T80 248V716ZM406
906H449L348 783H318L406 906Z" />
<glyph unicode="&#xdb;" glyph-name="Ucircumflex" horiz-adv-x="678" d="M80 716H112V248Q112 189 128 146T174 75T245 33T335 19Q383 19 425 33T499 75T549 148T567 251V716H598V252Q598 187 578 138T522 56T438 7T335 -10Q279 -10 233 5T152 53T99 133T80 248V716ZM339
881L227 778H198L319 906H359L481 778H451L339 881Z" />
<glyph unicode="&#xdc;" glyph-name="Udieresis" horiz-adv-x="678" d="M80 716H112V248Q112 189 128 146T174 75T245 33T335 19Q383 19 425 33T499 75T549 148T567 251V716H598V252Q598 187 578 138T522 56T438 7T335 -10Q279 -10 233 5T152 53T99 133T80 248V716ZM436
814Q422 814 415 822T408 842Q408 853 415 861T436 870Q450 870 456 862T463 842Q463 831 457 823T436 814ZM243 814Q229 814 222 822T215 842Q215 853 222 861T243 870Q257 870 264 862T271 842Q271 831 264 823T243 814Z" />
<glyph unicode="&#xdd;" glyph-name="Yacute" horiz-adv-x="586" d="M277 0V314L20 716H54L295 342L533 716H566L309 313V0H277ZM360 906H403L302 783H272L360 906Z" />
<glyph unicode="&#xde;" glyph-name="Thorn" horiz-adv-x="587" d="M127 529V187H305Q406 187 455 228T505 365Q505 529 316 529H127ZM127 158V0H95V716H127V558H316Q422 558 479 512T537 366Q537 311 522 272T476 207T403 170T305 158H127Z" />
<glyph unicode="&#xdf;" glyph-name="germandbls" horiz-adv-x="544" d="M349 -10Q301 -10 271 -2T218 19L224 45Q248 32 278 24T351 16Q410 16 443 45T476 126Q476 150 467 168T442 201T408 226T367 249Q346 260 326 271T290 295T264 325T254 364Q254 386 266
404T296 439T335 471T374 505T404 544T416 593Q416 642 380 670T277 699Q203 699 159 658T115 536V0H85V536Q85 624 135 675T277 726Q320 726 351 716T404 689T435 647T445 595Q445 565 433 541T403 498T364 461T324 428T294 397T282 364Q282 350 290 339T311 318T342
298T378 278Q401 266 424 253T465 222T495 182T507 129Q507 66 467 28T349 -10Z" />
<glyph unicode="&#xe0;" glyph-name="agrave" horiz-adv-x="520" d="M221 16Q263 16 295 30T350 65T387 109T409 150V277H279Q173 277 124 243T75 146Q75 81 116 49T221 16ZM416 0Q409 31 409 101Q399 82 383 63T344 27T290 1T219 -10Q138 -10 92 32T45 147Q45
225 105 265T278 305H409V357Q409 399 397 427T363 471T314 495T254 502Q226 502 201 498T154 487T115 472T85 455L75 481Q101 499 146 514T254 529Q292 529 325 520T384 491T424 438T439 359V103Q439 70 440 44T445 0H416ZM503 598L388 746H434L533 598H503Z"
/>
<glyph unicode="&#xe1;" glyph-name="aacute" horiz-adv-x="520" d="M221 16Q263 16 295 30T350 65T387 109T409 150V277H279Q173 277 124 243T75 146Q75 81 116 49T221 16ZM416 0Q409 31 409 101Q399 82 383 63T344 27T290 1T219 -10Q138 -10 92 32T45 147Q45
225 105 265T278 305H409V357Q409 399 397 427T363 471T314 495T254 502Q226 502 201 498T154 487T115 472T85 455L75 481Q101 499 146 514T254 529Q292 529 325 520T384 491T424 438T439 359V103Q439 70 440 44T445 0H416ZM330 746H376L261 598H231L330 746Z"
/>
<glyph unicode="&#xe2;" glyph-name="acircumflex" horiz-adv-x="520" d="M221 16Q263 16 295 30T350 65T387 109T409 150V277H279Q173 277 124 243T75 146Q75 81 116 49T221 16ZM416 0Q409 31 409 101Q399 82 383 63T344 27T290 1T219 -10Q138 -10 92 32T45 147Q45
225 105 265T278 305H409V357Q409 399 397 427T363 471T314 495T254 502Q226 502 201 498T154 487T115 472T85 455L75 481Q101 499 146 514T254 529Q292 529 325 520T384 491T424 438T439 359V103Q439 70 440 44T445 0H416ZM249 709L143 598H113L228 736H268L384
598H354L249 709Z" />
<glyph unicode="&#xe3;" glyph-name="atilde" horiz-adv-x="520" d="M221 16Q263 16 295 30T350 65T387 109T409 150V277H279Q173 277 124 243T75 146Q75 81 116 49T221 16ZM416 0Q409 31 409 101Q399 82 383 63T344 27T290 1T219 -10Q138 -10 92 32T45 147Q45
225 105 265T278 305H409V357Q409 399 397 427T363 471T314 495T254 502Q226 502 201 498T154 487T115 472T85 455L75 481Q101 499 146 514T254 529Q292 529 325 520T384 491T424 438T439 359V103Q439 70 440 44T445 0H416ZM105 605Q104 648 123 676T181 705Q201
705 219 694T255 670T289 646T320 635Q340 635 351 651T365 707H392Q392 665 374 636T317 607Q297 607 278 618T242 641T209 665T178 676Q158 676 146 661T132 605H105V605Z" />
<glyph unicode="&#xe4;" glyph-name="adieresis" horiz-adv-x="520" d="M221 16Q263 16 295 30T350 65T387 109T409 150V277H279Q173 277 124 243T75 146Q75 81 116 49T221 16ZM416 0Q409 31 409 101Q399 82 383 63T344 27T290 1T219 -10Q138 -10 92 32T45 147Q45
225 105 265T278 305H409V357Q409 399 397 427T363 471T314 495T254 502Q226 502 201 498T154 487T115 472T85 455L75 481Q101 499 146 514T254 529Q292 529 325 520T384 491T424 438T439 359V103Q439 70 440 44T445 0H416ZM342 643Q328 643 321 651T314 671Q314
682 321 690T342 699Q356 699 362 691T369 671Q369 660 363 652T342 643ZM156 643Q142 643 135 651T128 671Q128 682 135 690T156 699Q171 699 177 691T184 671Q184 660 178 652T156 643Z" />
<glyph unicode="&#xe5;" glyph-name="aring" horiz-adv-x="520" d="M221 16Q263 16 295 30T350 65T387 109T409 150V277H279Q173 277 124 243T75 146Q75 81 116 49T221 16ZM416 0Q409 31 409 101Q399 82 383 63T344 27T290 1T219 -10Q138 -10 92 32T45 147Q45
225 105 265T278 305H409V357Q409 399 397 427T363 471T314 495T254 502Q226 502 201 498T154 487T115 472T85 455L75 481Q101 499 146 514T254 529Q292 529 325 520T384 491T424 438T439 359V103Q439 70 440 44T445 0H416ZM249 597Q206 597 178 624T150 696Q150
738 178 765T249 793Q291 793 320 766T349 696Q349 652 320 625T249 597ZM249 623Q281 623 301 642T321 696Q321 729 301 748T249 767Q218 767 198 748T178 696Q178 661 197 642T249 623Z" />
<glyph unicode="&#xe6;" glyph-name="ae" horiz-adv-x="905" d="M646 512Q607 512 572 498T508 457T462 390T440 299H825Q830 353 817 393T778 460T718 499T646 512ZM221 16Q276 16 312 39T370 91T400 149T409 187V277H279Q173 277 124 243T75 146Q75 81 116 49T221
16ZM663 0Q574 0 514 41T428 158Q424 139 412 111T375 55T313 9T220 -10Q137 -10 91 32T45 147Q45 225 105 265T278 305H409V357Q409 426 371 464T259 502Q202 502 157 484T87 446L76 474Q87 483 104 492T145 510T197 523T259 529Q331 529 378 497T435 398Q464
466 520 502T647 539Q695 539 736 523T806 473T847 389T850 272H439V270Q439 154 499 91T663 27Q692 27 718 32T766 46T804 63T829 81L839 56Q831 48 816 39T778 21T726 6T663 0Z" />
<glyph unicode="&#xe7;" glyph-name="ccedilla" horiz-adv-x="507" d="M302 -10H301L245 -165H211L270 -8Q232 -4 199 8Q152 27 118 61T64 146T45 259Q45 323 64 373T117 457T199 510T305 529Q346 529 385 520T454 495L446 466Q418 483 381 492T305 502Q252 502
210 486T137 438T91 361T75 259Q75 203 92 158T139 82T210 33T302 16Q390 16 448 56L456 29Q433 12 394 1T302 -10Z" />
<glyph unicode="&#xe8;" glyph-name="egrave" horiz-adv-x="537" d="M283 502Q244 502 208 488T144 447T98 380T76 289H461Q466 343 453 383T415 450T355 489T283 502ZM475 45Q461 35 444 25T406 8T358 -5T299 -10Q240 -10 193 8T113 61T63 146T45 260Q45 323
64 373T115 457T190 510T283 529Q331 529 372 513T443 463T484 379T487 262H75V260Q75 143 135 80T299 16Q359 16 398 33T466 72L475 45ZM271 598L156 746H202L301 598H271Z" />
<glyph unicode="&#xe9;" glyph-name="eacute" horiz-adv-x="537" d="M283 502Q244 502 208 488T144 447T98 380T76 289H461Q466 343 453 383T415 450T355 489T283 502ZM475 45Q461 35 444 25T406 8T358 -5T299 -10Q240 -10 193 8T113 61T63 146T45 260Q45 323
64 373T115 457T190 510T283 529Q331 529 372 513T443 463T484 379T487 262H75V260Q75 143 135 80T299 16Q359 16 398 33T466 72L475 45ZM359 746H405L290 598H260L359 746Z" />
<glyph unicode="&#xea;" glyph-name="ecircumflex" horiz-adv-x="537" d="M283 502Q244 502 208 488T144 447T98 380T76 289H461Q466 343 453 383T415 450T355 489T283 502ZM475 45Q461 35 444 25T406 8T358 -5T299 -10Q240 -10 193 8T113 61T63 146T45 260Q45
323 64 373T115 457T190 510T283 529Q331 529 372 513T443 463T484 379T487 262H75V260Q75 143 135 80T299 16Q359 16 398 33T466 72L475 45ZM278 709L172 598H142L257 736H297L413 598H383L278 709Z" />
<glyph unicode="&#xeb;" glyph-name="edieresis" horiz-adv-x="537" d="M283 502Q244 502 208 488T144 447T98 380T76 289H461Q466 343 453 383T415 450T355 489T283 502ZM475 45Q461 35 444 25T406 8T358 -5T299 -10Q240 -10 193 8T113 61T63 146T45 260Q45 323
64 373T115 457T190 510T283 529Q331 529 372 513T443 463T484 379T487 262H75V260Q75 143 135 80T299 16Q359 16 398 33T466 72L475 45ZM371 643Q357 643 350 651T343 671Q343 682 350 690T371 699Q385 699 391 691T398 671Q398 660 392 652T371 643ZM185 643Q171
643 164 651T157 671Q157 682 164 690T185 699Q200 699 206 691T213 671Q213 660 207 652T185 643Z" />
<glyph unicode="&#xec;" glyph-name="igrave" horiz-adv-x="200" d="M115 519V0H85V519H115ZM88 598L-27 746H19L118 598H88Z" />
<glyph unicode="&#xed;" glyph-name="iacute" horiz-adv-x="200" d="M115 519V0H85V519H115ZM437 746H483L368 598H338L437 746Z" />
<glyph unicode="&#xee;" glyph-name="icircumflex" horiz-adv-x="200" d="M115 519V0H85V519H115ZM356 709L250 598H220L335 736H375L491 598H461L356 709Z" />
<glyph unicode="&#xef;" glyph-name="idieresis" horiz-adv-x="200" d="M167 643Q153 643 146 651T139 671Q139 682 146 690T167 699Q181 699 188 691T195 671Q195 660 188 652T167 643ZM33 643Q19 643 12 651T5 671Q5 682 12 690T33 699Q48 699 55 691T62 671Q62
660 55 652T33 643ZM115 519V0H85V519H115Z" />
<glyph unicode="&#xf0;" glyph-name="eth" horiz-adv-x="586" d="M287 -10Q235 -10 191 8T115 61T64 146T45 260Q45 324 63 373T115 455T193 505T292 522Q353 522 397 501T471 441Q444 496 401 541T307 621L151 569L144 591L282 637Q239 663 195 680T108 707V716H151Q189
708 232 692T318 649L446 692L453 670L342 633Q381 606 415 571T476 491T518 394T534 279Q534 205 515 151T463 61T384 8T287 -10ZM286 16Q332 16 371 32T439 80T484 156T501 260Q501 297 497 331T481 390Q471 409 455 428T415 462T361 486T292 495Q244 495 205
480T136 436T91 363T75 260Q75 202 91 157T135 80T202 33T286 16Z" />
<glyph unicode="&#xf1;" glyph-name="ntilde" horiz-adv-x="582" d="M321 502Q276 502 243 489T185 454T144 404T115 347V0H85V519H113L114 393H116Q126 418 142 442T184 485T244 517T324 529Q408 529 455 487T502 363V0H472V363Q472 437 430 469T321 502ZM150
605Q149 648 168 676T226 705Q246 705 264 694T300 670T334 646T365 635Q385 635 396 651T410 707H437Q437 665 419 636T362 607Q342 607 323 618T287 641T254 665T223 676Q203 676 191 661T177 605H150V605Z" />
<glyph unicode="&#xf2;" glyph-name="ograve" horiz-adv-x="576" d="M287 -10Q235 -10 191 8T115 61T64 146T45 260Q45 324 63 374T114 458T191 511T287 529Q339 529 383 511T461 459T512 374T531 260Q531 196 513 146T461 62T384 9T287 -10ZM287 16Q333 16 372
32T439 79T484 156T501 260Q501 318 485 363T440 439T372 486T287 502Q241 502 203 486T136 440T91 364T75 260Q75 201 91 156T135 80T202 32T287 16ZM276 598L161 746H207L306 598H276Z" />
<glyph unicode="&#xf3;" glyph-name="oacute" horiz-adv-x="576" d="M287 -10Q235 -10 191 8T115 61T64 146T45 260Q45 324 63 374T114 458T191 511T287 529Q339 529 383 511T461 459T512 374T531 260Q531 196 513 146T461 62T384 9T287 -10ZM287 16Q333 16 372
32T439 79T484 156T501 260Q501 318 485 363T440 439T372 486T287 502Q241 502 203 486T136 440T91 364T75 260Q75 201 91 156T135 80T202 32T287 16ZM369 746H415L300 598H270L369 746Z" />
<glyph unicode="&#xf4;" glyph-name="ocircumflex" horiz-adv-x="576" d="M287 -10Q235 -10 191 8T115 61T64 146T45 260Q45 324 63 374T114 458T191 511T287 529Q339 529 383 511T461 459T512 374T531 260Q531 196 513 146T461 62T384 9T287 -10ZM287 16Q333
16 372 32T439 79T484 156T501 260Q501 318 485 363T440 439T372 486T287 502Q241 502 203 486T136 440T91 364T75 260Q75 201 91 156T135 80T202 32T287 16ZM288 709L182 598H152L267 736H307L423 598H393L288 709Z" />
<glyph unicode="&#xf5;" glyph-name="otilde" horiz-adv-x="576" d="M287 -10Q235 -10 191 8T115 61T64 146T45 260Q45 324 63 374T114 458T191 511T287 529Q339 529 383 511T461 459T512 374T531 260Q531 196 513 146T461 62T384 9T287 -10ZM287 16Q333 16 372
32T439 79T484 156T501 260Q501 318 485 363T440 439T372 486T287 502Q241 502 203 486T136 440T91 364T75 260Q75 201 91 156T135 80T202 32T287 16ZM144 605Q143 648 162 676T220 705Q240 705 258 694T294 670T328 646T359 635Q379 635 390 651T404 707H431Q431
665 413 636T356 607Q336 607 317 618T281 641T248 665T217 676Q197 676 185 661T171 605H144V605Z" />
<glyph unicode="&#xf6;" glyph-name="odieresis" horiz-adv-x="576" d="M287 -10Q235 -10 191 8T115 61T64 146T45 260Q45 324 63 374T114 458T191 511T287 529Q339 529 383 511T461 459T512 374T531 260Q531 196 513 146T461 62T384 9T287 -10ZM287 16Q333 16
372 32T439 79T484 156T501 260Q501 318 485 363T440 439T372 486T287 502Q241 502 203 486T136 440T91 364T75 260Q75 201 91 156T135 80T202 32T287 16ZM381 643Q367 643 360 651T353 671Q353 682 360 690T381 699Q395 699 401 691T408 671Q408 660 402 652T381
643ZM195 643Q181 643 174 651T167 671Q167 682 174 690T195 699Q210 699 216 691T223 671Q223 660 217 652T195 643Z" />
<glyph unicode="&#xf7;" glyph-name="divide" horiz-adv-x="556" d="M286 117Q269 117 260 127T251 152Q251 167 260 177T286 187Q303 187 312 177T321 152Q321 138 312 128T286 117ZM286 488Q269 488 260 498T251 523Q251 538 260 548T286 558Q303 558 312 548T321
523Q321 509 312 499T286 488ZM71 324V351H501V324H71Z" />
<glyph unicode="&#xf8;" glyph-name="oslash" horiz-adv-x="576" d="M75 260Q75 185 100 132T170 50L377 484Q336 502 287 502Q241 502 203 486T136 440T91 364T75 260ZM287 16Q333 16 372 32T439 79T484 156T501 260Q501 336 475 388T403 470L195 35Q239 16 287
16ZM287 -10Q230 -10 184 11L140 -80H108L158 25Q106 57 76 116T45 260Q45 324 63 374T114 458T191 511T287 529Q341 529 389 509L432 599H464L415 496Q468 464 499 405T531 260Q531 196 513 146T461 62T384 9T287 -10Z" />
<glyph unicode="&#xf9;" glyph-name="ugrave" horiz-adv-x="565" d="M448 121Q439 95 423 72T382 30T326 1T252 -10Q170 -10 125 35T80 166V519H110V166Q110 86 150 51T255 16Q296 16 327 28T381 61T421 109T449 167V519H480V0H451L449 121H448V121ZM280 598L165
746H211L310 598H280Z" />
<glyph unicode="&#xfa;" glyph-name="uacute" horiz-adv-x="565" d="M448 121Q439 95 423 72T382 30T326 1T252 -10Q170 -10 125 35T80 166V519H110V166Q110 86 150 51T255 16Q296 16 327 28T381 61T421 109T449 167V519H480V0H451L449 121H448V121ZM362 746H408L293
598H263L362 746Z" />
<glyph unicode="&#xfb;" glyph-name="ucircumflex" horiz-adv-x="565" d="M448 121Q439 95 423 72T382 30T326 1T252 -10Q170 -10 125 35T80 166V519H110V166Q110 86 150 51T255 16Q296 16 327 28T381 61T421 109T449 167V519H480V0H451L449 121H448V121ZM283
709L177 598H147L262 736H302L418 598H388L283 709Z" />
<glyph unicode="&#xfc;" glyph-name="udieresis" horiz-adv-x="565" d="M448 121Q439 95 423 72T382 30T326 1T252 -10Q170 -10 125 35T80 166V519H110V166Q110 86 150 51T255 16Q296 16 327 28T381 61T421 109T449 167V519H480V0H451L449 121H448V121ZM374 643Q360
643 353 651T346 671Q346 682 353 690T374 699Q388 699 394 691T401 671Q401 660 395 652T374 643ZM188 643Q174 643 167 651T160 671Q160 682 167 690T188 699Q203 699 209 691T216 671Q216 660 210 652T188 643Z" />
<glyph unicode="&#xfd;" glyph-name="yacute" horiz-adv-x="486" d="M92 -187Q78 -187 70 -185T56 -180L59 -155Q66 -157 73 -158T92 -160Q136 -160 165 -120T224 1L23 519H56L240 39L432 519H463L259 7Q240 -40 224 -76T188 -137T146 -174T92 -187ZM324 746H370L255
598H225L324 746Z" />
<glyph unicode="&#xfe;" glyph-name="thorn" horiz-adv-x="615" d="M326 16Q372 16 411 32T478 79T523 156T540 260Q540 318 524 363T479 439T411 486T326 502Q280 502 242 486T175 440T130 364T114 260Q114 201 130 156T174 80T241 32T326 16ZM326 -10Q251 -10
196 27T115 134V-177H85V716H114L116 388Q142 456 197 492T326 529Q378 529 422 511T500 459T551 374T570 260Q570 196 552 146T500 62T423 9T326 -10Z" />
<glyph unicode="&#xff;" glyph-name="ydieresis" horiz-adv-x="486" d="M92 -187Q78 -187 70 -185T56 -180L59 -155Q66 -157 73 -158T92 -160Q136 -160 165 -120T224 1L23 519H56L240 39L432 519H463L259 7Q240 -40 224 -76T188 -137T146 -174T92 -187ZM336 643Q322
643 315 651T308 671Q308 682 315 690T336 699Q350 699 356 691T363 671Q363 660 357 652T336 643ZM150 643Q136 643 129 651T122 671Q122 682 129 690T150 699Q165 699 171 691T178 671Q178 660 172 652T150 643Z" />
<glyph unicode="&#x100;" glyph-name="Amacron" horiz-adv-x="620" d="M308 686L151 267H467L308 686ZM478 238H140L51 0H20L289 716H329L600 0H568L478 238ZM181 856H427V828H181V856Z" />
<glyph unicode="&#x101;" glyph-name="amacron" horiz-adv-x="520" d="M221 16Q263 16 295 30T350 65T387 109T409 150V277H279Q173 277 124 243T75 146Q75 81 116 49T221 16ZM416 0Q409 31 409 101Q399 82 383 63T344 27T290 1T219 -10Q138 -10 92 32T45 147Q45
225 105 265T278 305H409V357Q409 399 397 427T363 471T314 495T254 502Q226 502 201 498T154 487T115 472T85 455L75 481Q101 499 146 514T254 529Q292 529 325 520T384 491T424 438T439 359V103Q439 70 440 44T445 0H416ZM132 666H366V638H132V666Z" />
<glyph unicode="&#x102;" glyph-name="Abreve" horiz-adv-x="620" d="M308 686L151 267H467L308 686ZM478 238H140L51 0H20L289 716H329L600 0H568L478 238ZM303 779Q271 779 248 790T208 819T184 861T174 913H202Q205 863 232 836T303 808Q346 808 373 835T404
913H432Q431 886 423 862T398 819T358 790T303 779Z" />
<glyph unicode="&#x103;" glyph-name="abreve" horiz-adv-x="520" d="M221 16Q263 16 295 30T350 65T387 109T409 150V277H279Q173 277 124 243T75 146Q75 81 116 49T221 16ZM416 0Q409 31 409 101Q399 82 383 63T344 27T290 1T219 -10Q138 -10 92 32T45 147Q45
225 105 265T278 305H409V357Q409 399 397 427T363 471T314 495T254 502Q226 502 201 498T154 487T115 472T85 455L75 481Q101 499 146 514T254 529Q292 529 325 520T384 491T424 438T439 359V103Q439 70 440 44T445 0H416ZM249 599Q186 599 153 634T117 730H146Q148
682 172 654T249 626Q302 626 326 654T352 730H381Q379 670 346 635T249 599Z" />
<glyph unicode="&#x104;" glyph-name="Aogonek" horiz-adv-x="620" d="M569 -181Q531 -181 509 -162T486 -108Q486 -74 509 -46T568 0L478 238H140L51 0H20L289 716H329L600 0Q555 -25 536 -51T516 -107Q516 -156 571 -156Q580 -156 591 -154T613 -147L621 -170Q611
-175 598 -178T569 -181ZM308 686L151 267H467L308 686Z" />
<glyph unicode="&#x105;" glyph-name="aogonek" horiz-adv-x="523" d="M422 -181Q383 -181 361 -162T338 -108Q338 -74 360 -46T416 0Q412 15 411 38T409 101Q399 82 383 63T344 27T290 1T219 -10Q138 -10 92 32T45 147Q45 225 105 265T278 305H409V357Q409 426
371 464T259 502Q230 502 204 497T156 484T117 466T87 447L76 474Q87 483 104 492T145 510T197 523T259 529Q298 529 331 519T388 490T425 440T439 370V103Q439 70 440 44T445 0Q403 -23 386 -50T369 -107Q369 -156 424 -156Q433 -156 444 -154T466 -147L473 -170Q464
-175 451 -178T422 -181ZM221 16Q263 16 295 30T350 65T387 109T409 150V277H279Q173 277 124 243T75 146Q75 81 116 49T221 16Z" />
<glyph unicode="&#x106;" glyph-name="Cacute" horiz-adv-x="670" d="M390 -10Q310 -10 248 15T143 88T78 204T55 358Q55 445 77 513T143 628T248 701T389 726Q471 726 524 704T610 653L600 622Q565 654 512 675T389 697Q317 697 261 674T166 607T107 500T87 358Q87
278 107 216T166 109T261 42T390 19Q459 19 512 38T600 91L610 62Q578 34 525 12T390 -10ZM445 906H488L387 783H357L445 906Z" />
<glyph unicode="&#x107;" glyph-name="cacute" horiz-adv-x="507" d="M302 -10Q246 -10 199 8T118 61T64 146T45 259Q45 323 64 373T117 457T199 510T305 529Q346 529 385 520T454 495L446 466Q418 483 381 492T305 502Q252 502 210 486T137 438T91 361T75 259Q75
203 92 158T139 82T210 33T302 16Q390 16 448 56L456 29Q433 12 394 1T302 -10ZM370 746H416L301 598H271L370 746Z" />
<glyph unicode="&#x108;" glyph-name="Ccircumflex" horiz-adv-x="670" d="M390 -10Q310 -10 248 15T143 88T78 204T55 358Q55 445 77 513T143 628T248 701T389 726Q471 726 524 704T610 653L600 622Q565 654 512 675T389 697Q317 697 261 674T166 607T107 500T87
358Q87 278 107 216T166 109T261 42T390 19Q459 19 512 38T600 91L610 62Q578 34 525 12T390 -10ZM379 881L267 778H238L359 906H399L521 778H491L379 881Z" />
<glyph unicode="&#x109;" glyph-name="ccircumflex" horiz-adv-x="507" d="M302 -10Q246 -10 199 8T118 61T64 146T45 259Q45 323 64 373T117 457T199 510T305 529Q346 529 385 520T454 495L446 466Q418 483 381 492T305 502Q252 502 210 486T137 438T91 361T75
259Q75 203 92 158T139 82T210 33T302 16Q390 16 448 56L456 29Q433 12 394 1T302 -10ZM289 709L183 598H153L268 736H308L424 598H394L289 709Z" />
<glyph unicode="&#x10a;" glyph-name="Cdotaccent" horiz-adv-x="670" d="M390 -10Q310 -10 248 15T143 88T78 204T55 358Q55 445 77 513T143 628T248 701T389 726Q471 726 524 704T610 653L600 622Q565 654 512 675T389 697Q317 697 261 674T166 607T107 500T87
358Q87 278 107 216T166 109T261 42T390 19Q459 19 512 38T600 91L610 62Q578 34 525 12T390 -10ZM371 814Q357 814 350 822T343 842Q343 853 350 861T371 870Q385 870 392 862T399 842Q399 831 392 823T371 814Z" />
<glyph unicode="&#x10b;" glyph-name="cdotaccent" horiz-adv-x="507" d="M302 -10Q246 -10 199 8T118 61T64 146T45 259Q45 323 64 373T117 457T199 510T305 529Q346 529 385 520T454 495L446 466Q418 483 381 492T305 502Q252 502 210 486T137 438T91 361T75
259Q75 203 92 158T139 82T210 33T302 16Q390 16 448 56L456 29Q433 12 394 1T302 -10ZM289 643Q275 643 268 651T261 671Q261 682 268 690T289 699Q303 699 310 691T317 671Q317 660 310 652T289 643Z" />
<glyph unicode="&#x10c;" glyph-name="Ccaron" horiz-adv-x="670" d="M390 -10Q310 -10 248 15T143 88T78 204T55 358Q55 445 77 513T143 628T248 701T389 726Q471 726 524 704T610 653L600 622Q565 654 512 675T389 697Q317 697 261 674T166 607T107 500T87 358Q87
278 107 216T166 109T261 42T390 19Q459 19 512 38T600 91L610 62Q578 34 525 12T390 -10ZM358 778L237 906H266L378 804L490 906H520L398 778H358Z" />
<glyph unicode="&#x10d;" glyph-name="ccaron" horiz-adv-x="507" d="M302 -10Q246 -10 199 8T118 61T64 146T45 259Q45 323 64 373T117 457T199 510T305 529Q346 529 385 520T454 495L446 466Q418 483 381 492T305 502Q252 502 210 486T137 438T91 361T75 259Q75
203 92 158T139 82T210 33T302 16Q390 16 448 56L456 29Q433 12 394 1T302 -10ZM154 736H184L290 625L395 736H425L309 598H269L154 736Z" />
<glyph unicode="&#x10e;" glyph-name="Dcaron" horiz-adv-x="706" d="M127 687V29H318Q381 29 436 51T532 116T596 225T620 376Q620 462 597 521T534 617T442 670T330 687H127ZM95 716H328Q395 716 454 698T557 640T626 534T652 375Q652 281 626 211T555 94T449
24T316 0H95V716ZM305 778L184 906H213L325 804L437 906H467L345 778H305Z" />
<glyph unicode="&#x10f;" glyph-name="dcaron" horiz-adv-x="614" d="M289 16Q335 16 374 32T441 79T486 156T502 260Q502 318 486 363T442 439T374 486T289 502Q243 502 204 486T137 440T92 364T75 260Q75 201 91 156T136 80T204 32T289 16ZM501 138Q475 66 420
28T289 -10Q237 -10 193 8T115 61T64 146T45 260Q45 324 63 374T115 458T192 511T289 529Q364 529 419 492T500 385V716H530V0H503L501 138ZM577 569L599 716H632L602 569H577Z" />
<glyph unicode="&#x110;" glyph-name="Dcroat" horiz-adv-x="749" d="M170 351V29H361Q424 29 479 51T575 116T639 225T663 376Q663 462 640 521T577 617T484 670T372 687H170V380H412V351H170ZM137 351H15V380H137V716H371Q437 716 496 698T599 640T669 534T695
375Q695 281 669 211T598 94T492 24T359 0H137V351Z" />
<glyph unicode="&#x111;" glyph-name="dcroat" horiz-adv-x="615" d="M501 138Q475 66 420 28T289 -10Q237 -10 193 8T115 61T64 146T45 260Q45 324 63 374T115 458T192 511T289 529Q364 529 419 492T500 385V596H290V623H500V716H530V623H608V596H530V0H503L501
138ZM289 16Q335 16 374 32T441 79T486 156T502 260Q502 318 486 363T442 439T374 486T289 502Q243 502 204 486T137 440T92 364T75 260Q75 201 91 156T136 80T204 32T289 16Z" />
<glyph unicode="&#x112;" glyph-name="Emacron" horiz-adv-x="568" d="M95 716H508V687H127V387H456V358H127V29H513V0H95V716ZM180 856H426V828H180V856Z" />
<glyph unicode="&#x113;" glyph-name="emacron" horiz-adv-x="537" d="M283 502Q244 502 208 488T144 447T98 380T76 289H461Q466 343 453 383T415 450T355 489T283 502ZM475 45Q461 35 444 25T406 8T358 -5T299 -10Q240 -10 193 8T113 61T63 146T45 260Q45 323
64 373T115 457T190 510T283 529Q331 529 372 513T443 463T484 379T487 262H75V260Q75 143 135 80T299 16Q359 16 398 33T466 72L475 45ZM161 666H395V638H161V666Z" />
<glyph unicode="&#x114;" glyph-name="Ebreve" horiz-adv-x="568" d="M95 716H508V687H127V387H456V358H127V29H513V0H95V716ZM303 779Q271 779 248 790T208 819T184 861T174 913H202Q205 863 232 836T303 808Q346 808 373 835T404 913H432Q431 886 423 862T398
819T358 790T303 779Z" />
<glyph unicode="&#x115;" glyph-name="ebreve" horiz-adv-x="537" d="M283 502Q244 502 208 488T144 447T98 380T76 289H461Q466 343 453 383T415 450T355 489T283 502ZM475 45Q461 35 444 25T406 8T358 -5T299 -10Q240 -10 193 8T113 61T63 146T45 260Q45 323
64 373T115 457T190 510T283 529Q331 529 372 513T443 463T484 379T487 262H75V260Q75 143 135 80T299 16Q359 16 398 33T466 72L475 45ZM278 599Q215 599 182 634T146 730H175Q177 682 201 654T278 626Q331 626 355 654T381 730H410Q408 670 375 635T278 599Z"
/>
<glyph unicode="&#x116;" glyph-name="Edotaccent" horiz-adv-x="568" d="M95 716H508V687H127V387H456V358H127V29H513V0H95V716ZM306 814Q292 814 285 822T278 842Q278 853 285 861T306 870Q320 870 327 862T334 842Q334 831 327 823T306 814Z" />
<glyph unicode="&#x117;" glyph-name="edotaccent" horiz-adv-x="537" d="M283 502Q244 502 208 488T144 447T98 380T76 289H461Q466 343 453 383T415 450T355 489T283 502ZM475 45Q461 35 444 25T406 8T358 -5T299 -10Q240 -10 193 8T113 61T63 146T45 260Q45
323 64 373T115 457T190 510T283 529Q331 529 372 513T443 463T484 379T487 262H75V260Q75 143 135 80T299 16Q359 16 398 33T466 72L475 45ZM278 643Q264 643 257 651T250 671Q250 682 257 690T278 699Q292 699 299 691T306 671Q306 660 299 652T278 643Z" />
<glyph unicode="&#x118;" glyph-name="Eogonek" horiz-adv-x="568" d="M95 716H508V687H127V387H456V358H127V29H513V0H95V716ZM435 -181Q397 -181 375 -162T352 -108Q352 -74 374 -46T428 0H466Q421 -25 402 -51T383 -107Q383 -156 437 -156Q447 -156 458 -154T479
-147L487 -170Q477 -175 464 -178T435 -181Z" />
<glyph unicode="&#x119;" glyph-name="eogonek" horiz-adv-x="537" d="M308 -107Q308 -156 363 -156Q372 -156 383 -154T405 -147L412 -170Q403 -175 390 -178T361 -181Q322 -181 300 -162T277 -108Q277 -78 295 -52T341 -8Q332 -9 321 -9T299 -10Q240 -10 193
8T113 61T63 146T45 260Q45 323 64 373T115 457T190 510T283 529Q331 529 372 513T443 463T484 379T487 262H75Q75 142 135 79T299 16Q359 16 397 33T465 72L475 45Q462 36 446 28T412 10Q355 -17 332 -46T308 -107ZM283 502Q244 502 208 488T145 447T99 380T76
289H461Q466 343 453 383T415 450T355 489T283 502Z" />
<glyph unicode="&#x11a;" glyph-name="Ecaron" horiz-adv-x="568" d="M95 716H508V687H127V387H456V358H127V29H513V0H95V716ZM293 778L172 906H201L313 804L425 906H455L333 778H293Z" />
<glyph unicode="&#x11b;" glyph-name="ecaron" horiz-adv-x="537" d="M283 502Q244 502 208 488T144 447T98 380T76 289H461Q466 343 453 383T415 450T355 489T283 502ZM475 45Q461 35 444 25T406 8T358 -5T299 -10Q240 -10 193 8T113 61T63 146T45 260Q45 323
64 373T115 457T190 510T283 529Q331 529 372 513T443 463T484 379T487 262H75V260Q75 143 135 80T299 16Q359 16 398 33T466 72L475 45ZM143 736H173L279 625L384 736H414L298 598H258L143 736Z" />
<glyph unicode="&#x11c;" glyph-name="Gcircumflex" horiz-adv-x="744" d="M689 276Q689 213 669 161T610 70T517 11T393 -10Q322 -10 261 14T153 85T81 200T55 358Q55 446 80 515T152 630T263 701T404 726Q488 726 546 704T638 653L628 622Q590 655 536 676T405
697Q331 697 272 675T172 609T109 503T87 358Q87 276 111 213T176 107T273 42T393 19Q454 19 503 38T587 91T641 174T660 282V328H373V357H689V276V276ZM390 881L278 778H249L370 906H410L532 778H502L390 881Z" />
<glyph unicode="&#x11d;" glyph-name="gcircumflex" horiz-adv-x="615" d="M289 47Q335 47 373 62T440 106T485 177T501 275Q501 330 485 372T441 444T374 487T289 502Q243 502 204 488T137 444T92 373T75 275Q75 220 91 178T136 106T204 62T289 47ZM275 -179Q224
-179 188 -172T129 -154Q102 -143 85 -128L92 -100Q111 -115 138 -126Q161 -136 195 -144T275 -152Q387 -152 443 -106T500 41V156Q474 90 419 55T289 20Q237 20 193 37T115 87T64 167T45 275Q45 335 63 382T115 462T192 512T289 529Q364 529 419 494T501 391Q501
446 503 475T508 519H536Q534 505 533 472T531 379V41Q531 -179 275 -179ZM289 709L183 598H153L268 736H308L424 598H394L289 709Z" />
<glyph unicode="&#x11e;" glyph-name="Gbreve" horiz-adv-x="744" d="M689 276Q689 213 669 161T610 70T517 11T393 -10Q322 -10 261 14T153 85T81 200T55 358Q55 446 80 515T152 630T263 701T404 726Q488 726 546 704T638 653L628 622Q590 655 536 676T405 697Q331
697 272 675T172 609T109 503T87 358Q87 276 111 213T176 107T273 42T393 19Q454 19 503 38T587 91T641 174T660 282V328H373V357H689V276V276ZM390 779Q358 779 335 790T295 819T271 861T261 913H289Q292 863 319 836T390 808Q433 808 460 835T491 913H519Q518
886 510 862T485 819T445 790T390 779Z" />
<glyph unicode="&#x11f;" glyph-name="gbreve" horiz-adv-x="615" d="M289 47Q335 47 373 62T440 106T485 177T501 275Q501 330 485 372T441 444T374 487T289 502Q243 502 204 488T137 444T92 373T75 275Q75 220 91 178T136 106T204 62T289 47ZM275 -179Q224 -179
188 -172T129 -154Q102 -143 85 -128L92 -100Q111 -115 138 -126Q161 -136 195 -144T275 -152Q387 -152 443 -106T500 41V156Q474 90 419 55T289 20Q237 20 193 37T115 87T64 167T45 275Q45 335 63 382T115 462T192 512T289 529Q364 529 419 494T501 391Q501 446
503 475T508 519H536Q534 505 533 472T531 379V41Q531 -179 275 -179ZM289 599Q226 599 193 634T157 730H186Q188 682 212 654T289 626Q342 626 366 654T392 730H421Q419 670 386 635T289 599Z" />
<glyph unicode="&#x120;" glyph-name="Gdotaccent" horiz-adv-x="744" d="M689 276Q689 213 669 161T610 70T517 11T393 -10Q322 -10 261 14T153 85T81 200T55 358Q55 446 80 515T152 630T263 701T404 726Q488 726 546 704T638 653L628 622Q590 655 536 676T405
697Q331 697 272 675T172 609T109 503T87 358Q87 276 111 213T176 107T273 42T393 19Q454 19 503 38T587 91T641 174T660 282V328H373V357H689V276V276ZM383 814Q369 814 362 822T355 842Q355 853 362 861T383 870Q397 870 404 862T411 842Q411 831 404 823T383
814Z" />
<glyph unicode="&#x121;" glyph-name="gdotaccent" horiz-adv-x="615" d="M289 47Q335 47 373 62T440 106T485 177T501 275Q501 330 485 372T441 444T374 487T289 502Q243 502 204 488T137 444T92 373T75 275Q75 220 91 178T136 106T204 62T289 47ZM275 -179Q224
-179 188 -172T129 -154Q102 -143 85 -128L92 -100Q111 -115 138 -126Q161 -136 195 -144T275 -152Q387 -152 443 -106T500 41V156Q474 90 419 55T289 20Q237 20 193 37T115 87T64 167T45 275Q45 335 63 382T115 462T192 512T289 529Q364 529 419 494T501 391Q501
446 503 475T508 519H536Q534 505 533 472T531 379V41Q531 -179 275 -179ZM289 643Q275 643 268 651T261 671Q261 682 268 690T289 699Q303 699 310 691T317 671Q317 660 310 652T289 643Z" />
<glyph unicode="&#x122;" glyph-name="uni0122" horiz-adv-x="744" d="M689 276Q689 213 669 161T610 70T517 11T393 -10Q322 -10 261 14T153 85T81 200T55 358Q55 446 80 515T152 630T263 701T404 726Q488 726 546 704T638 653L628 622Q590 655 536 676T405 697Q331
697 272 675T172 609T109 503T87 358Q87 276 111 213T176 107T273 42T393 19Q454 19 503 38T587 91T641 174T660 282V328H373V357H689V276V276ZM342 -197Q371 -165 382 -127Q366 -125 360 -117T354 -98Q354 -85 362 -77T384 -68Q398 -68 407 -77T416 -105Q416 -134
403 -157T372 -197H342Z" />
<glyph unicode="&#x123;" glyph-name="uni0123" horiz-adv-x="615" d="M289 47Q335 47 373 62T440 106T485 177T501 275Q501 330 485 372T441 444T374 487T289 502Q243 502 204 488T137 444T92 373T75 275Q75 220 91 178T136 106T204 62T289 47ZM275 -179Q224
-179 188 -172T129 -154Q102 -143 85 -128L92 -100Q111 -115 138 -126Q161 -136 195 -144T275 -152Q387 -152 443 -106T500 41V156Q474 90 419 55T289 20Q237 20 193 37T115 87T64 167T45 275Q45 335 63 382T115 462T192 512T289 529Q364 529 419 494T501 391Q501
446 503 475T508 519H536Q534 505 533 472T531 379V41Q531 -179 275 -179ZM290 642Q275 642 266 651T257 679Q257 708 270 731T300 771H331Q315 754 305 737T290 701Q307 699 313 691T319 672Q319 660 312 651T290 642Z" />
<glyph unicode="&#x124;" glyph-name="Hcircumflex" horiz-adv-x="724" d="M597 340H127V0H95V716H127V369H597V716H629V0H597V340ZM362 881L250 778H221L342 906H382L504 778H474L362 881Z" />
<glyph unicode="&#x125;" glyph-name="hcircumflex" horiz-adv-x="582" d="M115 0H85V716H115V395H118Q127 419 143 443T185 486T244 517T324 529Q408 529 455 487T502 363V0H471V363Q471 437 429 469T321 502Q276 502 243 489T185 454T144 404T115 347V0ZM300
881L188 778H159L280 906H320L442 778H412L300 881Z" />
<glyph unicode="&#x126;" glyph-name="Hbar" horiz-adv-x="724" d="M597 340H127V0H95V537H-16V566H95V716H127V566H597V716H629V566H741V537H629V0H597V340ZM597 369V537H127V369H597Z" />
<glyph unicode="&#x127;" glyph-name="hbar" horiz-adv-x="582" d="M115 0H85V596H-8V623H85V716H115V623H310V596H115V395H118Q127 419 143 443T185 486T244 517T324 529Q408 529 455 487T502 363V0H471V363Q471 437 429 469T321 502Q276 502 243 489T185 454T144
404T115 347V0Z" />
<glyph unicode="&#x128;" glyph-name="Itilde" horiz-adv-x="222" d="M127 716V0H95V716H127ZM223 797Q222 840 241 868T299 897Q319 897 337 886T373 862T407 838T438 827Q458 827 469 843T483 899H510Q510 857 492 828T435 799Q415 799 396 810T360 833T327
857T296 868Q276 868 264 853T250 797H223V797Z" />
<glyph unicode="&#x129;" glyph-name="itilde" horiz-adv-x="200" d="M115 519V0H85V519H115ZM212 605Q211 648 230 676T288 705Q308 705 326 694T362 670T396 646T427 635Q447 635 458 651T472 707H499Q499 665 481 636T424 607Q404 607 385 618T349 641T316
665T285 676Q265 676 253 661T239 605H212V605Z" />
<glyph unicode="&#x12a;" glyph-name="Imacron" horiz-adv-x="222" d="M127 716V0H95V716H127ZM244 856H490V828H244V856Z" />
<glyph unicode="&#x12b;" glyph-name="imacron" horiz-adv-x="200" d="M4 666H197V638H4V666ZM115 519V0H85V519H115Z" />
<glyph unicode="&#x12c;" glyph-name="Ibreve" horiz-adv-x="222" d="M127 716V0H95V716H127ZM367 779Q335 779 312 790T272 819T248 861T238 913H266Q269 863 296 836T367 808Q410 808 437 835T468 913H496Q495 886 487 862T462 819T422 790T367 779Z" />
<glyph unicode="&#x12d;" glyph-name="ibreve" horiz-adv-x="200" d="M115 519V0H85V519H115ZM356 599Q293 599 260 634T224 730H253Q255 682 279 654T356 626Q409 626 433 654T459 730H488Q486 670 453 635T356 599Z" />
<glyph unicode="&#x12e;" glyph-name="Iogonek" horiz-adv-x="222" d="M52 -107Q52 -156 106 -156Q116 -156 127 -154T148 -147L156 -170Q146 -175 133 -178T104 -181Q66 -181 44 -162T21 -108Q21 -74 40 -46T95 0V716H127V0Q82 -25 67 -51T52 -107Z" />
<glyph unicode="&#x12f;" glyph-name="iogonek" horiz-adv-x="200" d="M100 643Q86 643 79 651T72 671Q72 682 79 690T100 699Q114 699 121 691T128 671Q128 660 121 652T100 643ZM102 -181Q64 -181 42 -162T19 -108Q19 -74 38 -45T85 0V519H115V0Q80 -22 65 -50T49
-107Q49 -156 104 -156Q113 -156 124 -154T146 -147L154 -170Q144 -175 131 -178T102 -181Z" />
<glyph unicode="&#x130;" glyph-name="Idotaccent" horiz-adv-x="222" d="M127 716V0H95V716H127ZM359 814Q345 814 338 822T331 842Q331 853 338 861T359 870Q373 870 380 862T387 842Q387 831 380 823T359 814Z" />
<glyph unicode="&#x131;" glyph-name="dotlessi" horiz-adv-x="200" d="M115 519V0H85V519H115Z" />
<glyph unicode="&#x132;" glyph-name="IJ" horiz-adv-x="562" d="M127 716V0H95V716H127ZM472 716V138Q472 71 443 31T339 -10Q311 -10 289 -4T251 11L261 40Q275 32 295 26T339 19Q369 19 389 27T420 50T435 88T440 139V716H472Z" />
<glyph unicode="&#x133;" glyph-name="ij" horiz-adv-x="427" d="M100 643Q86 643 79 651T72 671Q72 682 79 690T100 699Q114 699 121 691T128 671Q128 660 121 652T100 643ZM115 519V0H85V519H115ZM327 643Q313 643 306 651T299 671Q299 682 306 690T327 699Q341
699 348 691T355 671Q355 660 348 652T327 643ZM223 -160Q265 -160 288 -136T312 -65V519H342V-64Q342 -115 315 -151T228 -187L223 -160Z" />
<glyph unicode="&#x134;" glyph-name="Jcircumflex" horiz-adv-x="352" d="M262 716V138Q262 71 233 31T129 -10Q101 -10 79 -4T40 11L51 41Q65 33 85 26T129 19Q189 19 209 50T230 139V716H262ZM245 881L133 778H104L225 906H265L387 778H357L245 881Z" />
<glyph unicode="&#x135;" glyph-name="jcircumflex" horiz-adv-x="205" d="M1 -160Q43 -160 66 -136T90 -65V519H120V-64Q120 -115 93 -151T6 -187L1 -160ZM360 709L254 598H224L339 736H379L495 598H465L360 709Z" />
<glyph unicode="&#x136;" glyph-name="uni0136" horiz-adv-x="596" d="M226 349H127V0H95V716H127V378H227L521 716H558L254 364L575 0H535L226 349ZM274 -197Q303 -165 314 -127Q298 -125 292 -117T286 -98Q286 -85 294 -77T316 -68Q330 -68 339 -77T348 -105Q348
-134 335 -157T304 -197H274Z" />
<glyph unicode="&#x137;" glyph-name="uni0137" horiz-adv-x="474" d="M195 255H116V0H85V716H116V281H197L408 519H445L223 269V265L435 0H397L195 255ZM195 -197Q224 -165 235 -127Q219 -125 213 -117T207 -98Q207 -85 215 -77T237 -68Q251 -68 260 -77T269
-105Q269 -134 256 -157T225 -197H195Z" />
<glyph unicode="&#x139;" glyph-name="Lacute" horiz-adv-x="559" d="M95 716H127V29H503V0H95V716ZM436 906H479L378 783H348L436 906Z" />
<glyph unicode="&#x13a;" glyph-name="lacute" horiz-adv-x="200" d="M115 716V0H85V716H115ZM423 906H466L365 783H335L423 906Z" />
<glyph unicode="&#x13b;" glyph-name="uni013B" horiz-adv-x="559" d="M95 716H127V29H503V0H95V716ZM259 -197Q288 -165 299 -127Q283 -125 277 -117T271 -98Q271 -85 279 -77T301 -68Q315 -68 324 -77T333 -105Q333 -134 320 -157T289 -197H259Z" />
<glyph unicode="&#x13c;" glyph-name="uni013C" horiz-adv-x="200" d="M115 716V0H85V716H115ZM52 -197Q81 -165 92 -127Q76 -125 70 -117T64 -98Q64 -85 72 -77T94 -68Q108 -68 117 -77T126 -105Q126 -134 113 -157T82 -197H52Z" />
<glyph unicode="&#x13d;" glyph-name="Lcaron" horiz-adv-x="559" d="M95 716H127V29H503V0H95V716ZM234 569L256 716H289L259 569H234Z" />
<glyph unicode="&#x13e;" glyph-name="lcaron" horiz-adv-x="200" d="M418 569L440 716H473L443 569H418ZM115 716V0H85V716H115Z" />
<glyph unicode="&#x13f;" glyph-name="Ldot" horiz-adv-x="559" d="M95 716H127V29H503V0H95V716ZM431 348Q414 348 405 358T396 383Q396 398 405 408T431 418Q448 418 457 408T466 383Q466 369 457 359T431 348Z" />
<glyph unicode="&#x140;" glyph-name="ldot" horiz-adv-x="300" d="M115 716V0H85V716H115ZM252 330Q235 330 226 340T217 365Q217 380 226 390T252 400Q269 400 278 390T287 365Q287 351 278 341T252 330Z" />
<glyph unicode="&#x141;" glyph-name="Lslash" horiz-adv-x="576" d="M15 245L113 307V716H145V328L375 475V441L145 294V29H521V0H113V273L15 211V245Z" />
<glyph unicode="&#x142;" glyph-name="lslash" horiz-adv-x="282" d="M15 270L126 362V716H156V387L267 480V444L156 351V0H126V326L15 234V270Z" />
<glyph unicode="&#x143;" glyph-name="Nacute" horiz-adv-x="731" d="M124 685V0H95V716H140L607 27V716H636V0H588L124 685ZM443 906H486L385 783H355L443 906Z" />
<glyph unicode="&#x144;" glyph-name="nacute" horiz-adv-x="582" d="M321 502Q276 502 243 489T185 454T144 404T115 347V0H85V519H113L114 393H116Q126 418 142 442T184 485T244 517T324 529Q408 529 455 487T502 363V0H472V363Q472 437 430 469T321 502ZM375
746H421L306 598H276L375 746Z" />
<glyph unicode="&#x145;" glyph-name="uni0145" horiz-adv-x="731" d="M124 685V0H95V716H140L607 27V716H636V0H588L124 685ZM320 -197Q349 -165 360 -127Q344 -125 338 -117T332 -98Q332 -85 340 -77T362 -68Q376 -68 385 -77T394 -105Q394 -134 381 -157T350
-197H320Z" />
<glyph unicode="&#x146;" glyph-name="uni0146" horiz-adv-x="582" d="M321 502Q276 502 243 489T185 454T144 404T115 347V0H85V519H113L114 393H116Q126 418 142 442T184 485T244 517T324 529Q408 529 455 487T502 363V0H472V363Q472 437 430 469T321 502ZM249
-197Q278 -165 289 -127Q273 -125 267 -117T261 -98Q261 -85 269 -77T291 -68Q305 -68 314 -77T323 -105Q323 -134 310 -157T279 -197H249Z" />
<glyph unicode="&#x147;" glyph-name="Ncaron" horiz-adv-x="731" d="M124 685V0H95V716H140L607 27V716H636V0H588L124 685ZM356 778L235 906H264L376 804L488 906H518L396 778H356Z" />
<glyph unicode="&#x148;" glyph-name="ncaron" horiz-adv-x="582" d="M321 502Q276 502 243 489T185 454T144 404T115 347V0H85V519H113L114 393H116Q126 418 142 442T184 485T244 517T324 529Q408 529 455 487T502 363V0H472V363Q472 437 430 469T321 502ZM159
736H189L295 625L400 736H430L314 598H274L159 736Z" />
<glyph unicode="&#x14a;" glyph-name="Eng" horiz-adv-x="731" d="M503 -199Q475 -199 453 -193T414 -178L425 -151Q439 -159 459 -164T503 -170Q534 -170 554 -162T586 -139T602 -101T607 -51V0H588L124 685V0H95V716H140L607 27V716H636V-51Q636 -118 607 -158T503
-199Z" />
<glyph unicode="&#x14b;" glyph-name="eng" horiz-adv-x="574" d="M502 -64Q502 -115 475 -151T389 -187L383 -160Q425 -160 448 -136T472 -65V363Q472 437 430 469T321 502Q276 502 243 489T185 454T144 404T115 347V0H85V519H113L114 393H116Q126 418 142 442T184
485T244 517T324 529Q408 529 455 487T502 363V-64V-64Z" />
<glyph unicode="&#x14c;" glyph-name="Omacron" horiz-adv-x="771" d="M386 -10Q314 -10 254 15T149 88T80 204T55 357Q55 445 80 513T149 629T253 701T386 726Q458 726 518 701T623 629T691 513T716 357Q716 273 692 205T623 89T519 16T386 -10ZM386 19Q452 19
506 41T601 107T663 214T685 358Q685 439 663 502T601 608T507 674T386 697Q320 697 266 675T171 609T109 502T87 358Q87 277 109 214T171 108T265 42T386 19ZM263 856H509V828H263V856Z" />
<glyph unicode="&#x14d;" glyph-name="omacron" horiz-adv-x="576" d="M287 -10Q235 -10 191 8T115 61T64 146T45 260Q45 324 63 374T114 458T191 511T287 529Q339 529 383 511T461 459T512 374T531 260Q531 196 513 146T461 62T384 9T287 -10ZM287 16Q333 16
372 32T439 79T484 156T501 260Q501 318 485 363T440 439T372 486T287 502Q241 502 203 486T136 440T91 364T75 260Q75 201 91 156T135 80T202 32T287 16ZM171 666H405V638H171V666Z" />
<glyph unicode="&#x14e;" glyph-name="Obreve" horiz-adv-x="771" d="M386 -10Q314 -10 254 15T149 88T80 204T55 357Q55 445 80 513T149 629T253 701T386 726Q458 726 518 701T623 629T691 513T716 357Q716 273 692 205T623 89T519 16T386 -10ZM386 19Q452 19
506 41T601 107T663 214T685 358Q685 439 663 502T601 608T507 674T386 697Q320 697 266 675T171 609T109 502T87 358Q87 277 109 214T171 108T265 42T386 19ZM386 779Q354 779 331 790T291 819T267 861T257 913H285Q288 863 315 836T386 808Q429 808 456 835T487
913H515Q514 886 506 862T481 819T441 790T386 779Z" />
<glyph unicode="&#x14f;" glyph-name="obreve" horiz-adv-x="576" d="M287 -10Q235 -10 191 8T115 61T64 146T45 260Q45 324 63 374T114 458T191 511T287 529Q339 529 383 511T461 459T512 374T531 260Q531 196 513 146T461 62T384 9T287 -10ZM287 16Q333 16 372
32T439 79T484 156T501 260Q501 318 485 363T440 439T372 486T287 502Q241 502 203 486T136 440T91 364T75 260Q75 201 91 156T135 80T202 32T287 16ZM288 599Q225 599 192 634T156 730H185Q187 682 211 654T288 626Q341 626 365 654T391 730H420Q418 670 385 635T288
599Z" />
<glyph unicode="&#x150;" glyph-name="Ohungarumlaut" horiz-adv-x="771" d="M386 -10Q314 -10 254 15T149 88T80 204T55 357Q55 445 80 513T149 629T253 701T386 726Q458 726 518 701T623 629T691 513T716 357Q716 273 692 205T623 89T519 16T386 -10ZM386 19Q452
19 506 41T601 107T663 214T685 358Q685 439 663 502T601 608T507 674T386 697Q320 697 266 675T171 609T109 502T87 358Q87 277 109 214T171 108T265 42T386 19ZM438 783L503 909H543L466 783H438ZM298 783L364 909H403L326 783H298Z" />
<glyph unicode="&#x151;" glyph-name="ohungarumlaut" horiz-adv-x="576" d="M287 -10Q235 -10 191 8T115 61T64 146T45 260Q45 324 63 374T114 458T191 511T287 529Q339 529 383 511T461 459T512 374T531 260Q531 196 513 146T461 62T384 9T287 -10ZM287 16Q333
16 372 32T439 79T484 156T501 260Q501 318 485 363T440 439T372 486T287 502Q241 502 203 486T136 440T91 364T75 260Q75 201 91 156T135 80T202 32T287 16ZM339 598L400 746H439L367 598H339ZM207 598L268 746H307L235 598H207Z" />
<glyph unicode="&#x152;" glyph-name="OE" horiz-adv-x="993" d="M520 29V687H388Q327 687 273 670T177 615T111 514T87 361Q87 278 110 216T174 113T270 50T389 29H520ZM391 0Q320 0 259 22T152 90T81 202T55 360Q55 458 81 526T153 636T260 697T390 716H933V687H552V387H879V358H552V29H938V0H391Z"
/>
<glyph unicode="&#x153;" glyph-name="oe" horiz-adv-x="996" d="M739 502Q700 502 664 488T600 447T554 380T532 289H917Q922 343 909 383T871 450T811 489T739 502ZM287 16Q333 16 372 32T439 79T484 156T501 260Q501 318 485 363T440 439T372 486T287 502Q241
502 203 486T136 440T91 364T75 260Q75 201 91 156T135 80T202 32T287 16ZM931 45Q902 25 861 8T755 -10Q662 -10 601 35T516 165Q492 80 431 35T287 -10Q235 -10 191 8T115 61T64 146T45 260Q45 324 63 374T114 458T191 511T287 529Q328 529 364 518T431 484T482
428T516 353Q528 395 549 427T600 482T665 517T740 529Q787 529 828 513T899 463T940 379T943 262H531V260Q531 143 591 80T755 16Q815 16 854 33T922 72L931 45Z" />
<glyph unicode="&#x154;" glyph-name="Racute" horiz-adv-x="593" d="M127 0H95V716H305Q411 716 469 671T527 529Q527 482 514 447T476 388T417 349T340 329L547 0H512L307 326H127V0ZM127 688V355H288Q334 355 372 364T438 395T480 448T495 528Q495 688 305
688H127ZM373 906H416L315 783H285L373 906Z" />
<glyph unicode="&#x155;" glyph-name="racute" horiz-adv-x="337" d="M306 501Q237 495 188 456T115 337V0H85V519H113L114 383H116Q123 408 138 433T176 478T232 512T306 529V501V501ZM273 746H319L204 598H174L273 746Z" />
<glyph unicode="&#x156;" glyph-name="uni0156" horiz-adv-x="593" d="M127 0H95V716H305Q411 716 469 671T527 529Q527 482 514 447T476 388T417 349T340 329L547 0H512L307 326H127V0ZM127 688V355H288Q334 355 372 364T438 395T480 448T495 528Q495 688 305
688H127ZM275 -197Q304 -165 315 -127Q299 -125 293 -117T287 -98Q287 -85 295 -77T317 -68Q331 -68 340 -77T349 -105Q349 -134 336 -157T305 -197H275Z" />
<glyph unicode="&#x157;" glyph-name="uni0157" horiz-adv-x="337" d="M306 501Q237 495 188 456T115 337V0H85V519H113L114 383H116Q123 408 138 433T176 478T232 512T306 529V501V501ZM55 -197Q84 -165 95 -127Q79 -125 73 -117T67 -98Q67 -85 75 -77T97 -68Q111
-68 120 -77T129 -105Q129 -134 116 -157T85 -197H55Z" />
<glyph unicode="&#x158;" glyph-name="Rcaron" horiz-adv-x="593" d="M127 0H95V716H305Q411 716 469 671T527 529Q527 482 514 447T476 388T417 349T340 329L547 0H512L307 326H127V0ZM127 688V355H288Q334 355 372 364T438 395T480 448T495 528Q495 688 305
688H127ZM285 778L164 906H193L305 804L417 906H447L325 778H285Z" />
<glyph unicode="&#x159;" glyph-name="rcaron" horiz-adv-x="337" d="M306 501Q237 495 188 456T115 337V0H85V519H113L114 383H116Q123 408 138 433T176 478T232 512T306 529V501V501ZM313 736H343L449 625L554 736H584L468 598H428L313 736Z" />
<glyph unicode="&#x15a;" glyph-name="Sacute" horiz-adv-x="558" d="M260 -10Q179 -10 125 9T45 48L58 78Q87 56 139 38T260 19Q299 19 336 27T403 54T451 103T469 178Q469 219 454 248T411 297T347 331T266 356Q228 366 191 379T124 415T76 469T57 549Q57 595
74 628T123 683T196 715T289 726Q355 726 395 714T463 688L453 659Q427 673 387 685T288 697Q246 697 210 689T147 662T105 616T89 549Q89 512 103 486T143 442T200 410T269 387Q305 376 345 364T421 330T479 272T502 179Q502 126 481 90T426 32T348 0T260 -10ZM345
906H388L287 783H257L345 906Z" />
<glyph unicode="&#x15b;" glyph-name="sacute" horiz-adv-x="460" d="M224 -10Q186 -10 156 -5T103 9T65 26T41 41L48 70Q58 62 74 53T112 35T163 22T224 16Q254 16 282 22T332 42T368 78T382 134Q382 165 371 186T338 220T287 242T220 259Q180 267 148 277T94
302T59 340T47 396Q47 431 61 456T99 497T156 521T227 529Q290 529 326 518T383 495L375 467Q355 478 319 490T227 502Q196 502 169 497T122 480T89 447T77 396Q77 369 87 351T116 321T164 302T228 287Q266 279 300 269T359 243T398 200T413 135Q413 97 399 70T360
25T300 -1T224 -10ZM314 746H360L245 598H215L314 746Z" />
<glyph unicode="&#x15c;" glyph-name="Scircumflex" horiz-adv-x="558" d="M260 -10Q179 -10 125 9T45 48L58 78Q87 56 139 38T260 19Q299 19 336 27T403 54T451 103T469 178Q469 219 454 248T411 297T347 331T266 356Q228 366 191 379T124 415T76 469T57 549Q57
595 74 628T123 683T196 715T289 726Q355 726 395 714T463 688L453 659Q427 673 387 685T288 697Q246 697 210 689T147 662T105 616T89 549Q89 512 103 486T143 442T200 410T269 387Q305 376 345 364T421 330T479 272T502 179Q502 126 481 90T426 32T348 0T260
-10ZM279 881L167 778H138L259 906H299L421 778H391L279 881Z" />
<glyph unicode="&#x15d;" glyph-name="scircumflex" horiz-adv-x="460" d="M224 -10Q186 -10 156 -5T103 9T65 26T41 41L48 70Q58 62 74 53T112 35T163 22T224 16Q254 16 282 22T332 42T368 78T382 134Q382 165 371 186T338 220T287 242T220 259Q180 267 148 277T94
302T59 340T47 396Q47 431 61 456T99 497T156 521T227 529Q290 529 326 518T383 495L375 467Q355 478 319 490T227 502Q196 502 169 497T122 480T89 447T77 396Q77 369 87 351T116 321T164 302T228 287Q266 279 300 269T359 243T398 200T413 135Q413 97 399 70T360
25T300 -1T224 -10ZM233 709L127 598H97L212 736H252L368 598H338L233 709Z" />
<glyph unicode="&#x15e;" glyph-name="uni015E" horiz-adv-x="558" d="M125 9Q71 28 45 48L58 78Q87 56 139 38T260 19Q299 19 336 27T403 54T451 103T469 178Q469 219 454 248T411 297T347 331T266 356Q228 366 191 379T124 415T76 469T57 549Q57 595 74 628T123
683T196 715T289 726Q355 726 395 714T463 688L453 659Q427 673 387 685T288 697Q246 697 210 689T147 662T105 616T89 549Q89 512 103 486T143 442T200 410T269 387Q305 376 345 364T421 330T479 272T502 179Q502 126 481 90T426 32T348 0Q318 -7 286 -9L230 -165H196L255
-10Q177 -9 125 9Z" />
<glyph unicode="&#x15f;" glyph-name="uni015F" horiz-adv-x="460" d="M156 -4Q126 1 103 9T65 26T41 41L48 70Q58 62 74 53T112 35T163 22T224 16Q254 16 282 22T332 42T368 78T382 134Q382 165 371 186T338 220T287 242T220 259Q180 267 148 277T94 302T59 340T47
396Q47 431 61 456T99 497T156 521T227 529Q290 529 326 518T383 495L375 467Q355 478 319 490T227 502Q196 502 169 497T122 480T89 447T77 396Q77 369 87 351T116 321T164 302T228 287Q266 279 300 269T359 243T398 200T413 135Q413 97 399 70T360 25T299 -1Q272
-8 240 -10L183 -166H149L208 -10Q180 -9 156 -4Z" />
<glyph unicode="&#x160;" glyph-name="Scaron" horiz-adv-x="558" d="M260 -10Q179 -10 125 9T45 48L58 78Q87 56 139 38T260 19Q299 19 336 27T403 54T451 103T469 178Q469 219 454 248T411 297T347 331T266 356Q228 366 191 379T124 415T76 469T57 549Q57 595
74 628T123 683T196 715T289 726Q355 726 395 714T463 688L453 659Q427 673 387 685T288 697Q246 697 210 689T147 662T105 616T89 549Q89 512 103 486T143 442T200 410T269 387Q305 376 345 364T421 330T479 272T502 179Q502 126 481 90T426 32T348 0T260 -10ZM258
778L137 906H166L278 804L390 906H420L298 778H258Z" />
<glyph unicode="&#x161;" glyph-name="scaron" horiz-adv-x="460" d="M224 -10Q186 -10 156 -5T103 9T65 26T41 41L48 70Q58 62 74 53T112 35T163 22T224 16Q254 16 282 22T332 42T368 78T382 134Q382 165 371 186T338 220T287 242T220 259Q180 267 148 277T94
302T59 340T47 396Q47 431 61 456T99 497T156 521T227 529Q290 529 326 518T383 495L375 467Q355 478 319 490T227 502Q196 502 169 497T122 480T89 447T77 396Q77 369 87 351T116 321T164 302T228 287Q266 279 300 269T359 243T398 200T413 135Q413 97 399 70T360
25T300 -1T224 -10ZM98 736H128L234 625L339 736H369L253 598H213L98 736Z" />
<glyph unicode="&#x162;" glyph-name="Tcommaaccent" horiz-adv-x="537" d="M285 687V0H253V687H13V716H524V687H285ZM230 -197Q259 -165 270 -127Q254 -125 248 -117T242 -98Q242 -85 250 -77T272 -68Q286 -68 295 -77T304 -105Q304 -134 291 -157T260 -197H230Z" />
<glyph unicode="&#x163;" glyph-name="tcommaaccent" horiz-adv-x="333" d="M295 2Q283 -3 266 -6T229 -10Q164 -10 136 22T107 106V492H33V519H107V628H137V519H288V492H137V110Q137 90 141 73T156 43T185 23T229 16Q247 16 262 19T288 27L295 2V2ZM404 -197Q433
-165 444 -127Q428 -125 422 -117T416 -98Q416 -85 424 -77T446 -68Q460 -68 469 -77T478 -105Q478 -134 465 -157T434 -197H404Z" />
<glyph unicode="&#x164;" glyph-name="Tcaron" horiz-adv-x="537" d="M285 687V0H253V687H13V716H524V687H285ZM247 778L126 906H155L267 804L379 906H409L287 778H247Z" />
<glyph unicode="&#x165;" glyph-name="tcaron" horiz-adv-x="333" d="M295 2Q283 -3 266 -6T229 -10Q164 -10 136 22T107 106V492H33V519H107V628H137V519H288V492H137V110Q137 90 141 73T156 43T185 23T229 16Q247 16 262 19T288 27L295 2V2ZM469 582L491 729H524L494
582H469Z" />
<glyph unicode="&#x166;" glyph-name="Tbar" horiz-adv-x="537" d="M51 404H253V687H13V716H524V687H285V404H487V375H285V0H253V375H51V404Z" />
<glyph unicode="&#x167;" glyph-name="tbar" horiz-adv-x="333" d="M296 2Q284 -3 267 -6T230 -10Q165 -10 137 22T108 106V299H33V326H108V492H34V519H108V628H138V519H289V492H138V326H288V299H138V110Q138 90 142 73T157 43T186 23T230 16Q248 16 263 19T289
27L296 2Z" />
<glyph unicode="&#x168;" glyph-name="Utilde" horiz-adv-x="678" d="M80 716H112V248Q112 189 128 146T174 75T245 33T335 19Q383 19 425 33T499 75T549 148T567 251V716H598V252Q598 187 578 138T522 56T438 7T335 -10Q279 -10 233 5T152 53T99 133T80 248V716ZM195
797Q194 840 213 868T271 897Q291 897 309 886T345 862T379 838T410 827Q430 827 441 843T455 899H482Q482 857 464 828T407 799Q387 799 368 810T332 833T299 857T268 868Q248 868 236 853T222 797H195V797Z" />
<glyph unicode="&#x169;" glyph-name="utilde" horiz-adv-x="565" d="M448 121Q439 95 423 72T382 30T326 1T252 -10Q170 -10 125 35T80 166V519H110V166Q110 86 150 51T255 16Q296 16 327 28T381 61T421 109T449 167V519H480V0H451L449 121H448V121ZM137 605Q136
648 155 676T213 705Q233 705 251 694T287 670T321 646T352 635Q372 635 383 651T397 707H424Q424 665 406 636T349 607Q329 607 310 618T274 641T241 665T210 676Q190 676 178 661T164 605H137V605Z" />
<glyph unicode="&#x16a;" glyph-name="Umacron" horiz-adv-x="678" d="M80 716H112V248Q112 189 128 146T174 75T245 33T335 19Q383 19 425 33T499 75T549 148T567 251V716H598V252Q598 187 578 138T522 56T438 7T335 -10Q279 -10 233 5T152 53T99 133T80 248V716ZM216
856H462V828H216V856Z" />
<glyph unicode="&#x16b;" glyph-name="umacron" horiz-adv-x="565" d="M448 121Q439 95 423 72T382 30T326 1T252 -10Q170 -10 125 35T80 166V519H110V166Q110 86 150 51T255 16Q296 16 327 28T381 61T421 109T449 167V519H480V0H451L449 121H448V121ZM164 666H398V638H164V666Z"
/>
<glyph unicode="&#x16c;" glyph-name="Ubreve" horiz-adv-x="678" d="M80 716H112V248Q112 189 128 146T174 75T245 33T335 19Q383 19 425 33T499 75T549 148T567 251V716H598V252Q598 187 578 138T522 56T438 7T335 -10Q279 -10 233 5T152 53T99 133T80 248V716ZM339
779Q307 779 284 790T244 819T220 861T210 913H238Q241 863 268 836T339 808Q382 808 409 835T440 913H468Q467 886 459 862T434 819T394 790T339 779Z" />
<glyph unicode="&#x16d;" glyph-name="ubreve" horiz-adv-x="565" d="M448 121Q439 95 423 72T382 30T326 1T252 -10Q170 -10 125 35T80 166V519H110V166Q110 86 150 51T255 16Q296 16 327 28T381 61T421 109T449 167V519H480V0H451L449 121H448V121ZM281 599Q218
599 185 634T149 730H178Q180 682 204 654T281 626Q334 626 358 654T384 730H413Q411 670 378 635T281 599Z" />
<glyph unicode="&#x16e;" glyph-name="Uring" horiz-adv-x="678" d="M80 716H112V248Q112 189 128 146T174 75T245 33T335 19Q383 19 425 33T499 75T549 148T567 251V716H598V252Q598 187 578 138T522 56T438 7T335 -10Q279 -10 233 5T152 53T99 133T80 248V716ZM339
771Q296 771 268 798T240 870Q240 912 268 939T339 967Q381 967 410 940T439 870Q439 826 410 799T339 771ZM339 797Q371 797 391 816T411 870Q411 903 391 922T339 941Q308 941 288 922T268 870Q268 835 287 816T339 797Z" />
<glyph unicode="&#x16f;" glyph-name="uring" horiz-adv-x="565" d="M448 121Q439 95 423 72T382 30T326 1T252 -10Q170 -10 125 35T80 166V519H110V166Q110 86 150 51T255 16Q296 16 327 28T381 61T421 109T449 167V519H480V0H451L449 121H448V121ZM281 597Q238
597 210 624T182 696Q182 738 210 765T281 793Q323 793 352 766T381 696Q381 652 352 625T281 597ZM281 623Q313 623 333 642T353 696Q353 729 333 748T281 767Q250 767 230 748T210 696Q210 661 229 642T281 623Z" />
<glyph unicode="&#x170;" glyph-name="Uhungarumlaut" horiz-adv-x="678" d="M80 716H112V248Q112 189 128 146T174 75T245 33T335 19Q383 19 425 33T499 75T549 148T567 251V716H598V252Q598 187 578 138T522 56T438 7T335 -10Q279 -10 233 5T152 53T99 133T80
248V716ZM392 783L457 909H497L420 783H392ZM252 783L318 909H357L280 783H252Z" />
<glyph unicode="&#x171;" glyph-name="uhungarumlaut" horiz-adv-x="565" d="M448 121Q439 95 423 72T382 30T326 1T252 -10Q170 -10 125 35T80 166V519H110V166Q110 86 150 51T255 16Q296 16 327 28T381 61T421 109T449 167V519H480V0H451L449 121H448V121ZM331
598L392 746H431L359 598H331ZM199 598L260 746H299L227 598H199Z" />
<glyph unicode="&#x172;" glyph-name="Uogonek" horiz-adv-x="699" d="M334 -107Q334 -156 389 -156Q398 -156 409 -154T431 -147L438 -170Q429 -175 416 -178T387 -181Q348 -181 326 -162T303 -108Q303 -79 320 -53T364 -9Q357 -10 350 -10T335 -10Q280 -10 233
5T152 53T99 133T80 248V716H112V248Q112 189 128 146T174 75T245 33T335 19Q383 19 425 33T499 75T549 148T567 251V716H598V252Q598 200 585 158T547 85T490 32T418 0Q373 -25 354 -51T334 -107Z" />
<glyph unicode="&#x173;" glyph-name="uogonek" horiz-adv-x="565" d="M399 -107Q399 -156 454 -156Q463 -156 474 -154T496 -147L503 -170Q494 -175 481 -178T452 -181Q413 -181 391 -162T368 -108Q368 -74 392 -46T451 0L449 121H448Q439 95 423 72T382 30T326
1T252 -10Q170 -10 125 35T80 166V519H110V166Q110 86 150 51T255 16Q296 16 327 28T381 61T421 109T449 167V519H480V0Q436 -24 418 -51T399 -107Z" />
<glyph unicode="&#x174;" glyph-name="Wcircumflex" horiz-adv-x="908" d="M25 716H57L240 43L436 716H473L669 41L855 716H883L690 0H649L454 676L260 0H220L25 716ZM454 881L342 778H313L434 906H474L596 778H566L454 881Z" />
<glyph unicode="&#x175;" glyph-name="wcircumflex" horiz-adv-x="697" d="M28 519H60L189 27L329 519H369L509 24L638 519H669L532 0H486L348 479L210 0H165L28 519ZM349 709L243 598H213L328 736H368L484 598H454L349 709Z" />
<glyph unicode="&#x176;" glyph-name="Ycircumflex" horiz-adv-x="586" d="M277 0V314L20 716H54L295 342L533 716H566L309 313V0H277ZM293 881L181 778H152L273 906H313L435 778H405L293 881Z" />
<glyph unicode="&#x177;" glyph-name="ycircumflex" horiz-adv-x="486" d="M92 -187Q78 -187 70 -185T56 -180L59 -155Q66 -157 73 -158T92 -160Q136 -160 165 -120T224 1L23 519H56L240 39L432 519H463L259 7Q240 -40 224 -76T188 -137T146 -174T92 -187ZM242
709L136 598H106L221 736H261L377 598H347L242 709Z" />
<glyph unicode="&#x178;" glyph-name="Ydieresis" horiz-adv-x="586" d="M277 0V314L20 716H54L295 342L533 716H566L309 313V0H277ZM390 814Q376 814 369 822T362 842Q362 853 369 861T390 870Q404 870 410 862T417 842Q417 831 411 823T390 814ZM197 814Q183
814 176 822T169 842Q169 853 176 861T197 870Q211 870 218 862T225 842Q225 831 218 823T197 814Z" />
<glyph unicode="&#x179;" glyph-name="Zacute" horiz-adv-x="594" d="M51 0V26L503 687H61V716H542V690L87 29H543V0H51ZM371 906H414L313 783H283L371 906Z" />
<glyph unicode="&#x17a;" glyph-name="zacute" horiz-adv-x="452" d="M34 0V20L376 492H42V519H415V499L73 27H416V0H34ZM315 746H361L246 598H216L315 746Z" />
<glyph unicode="&#x17b;" glyph-name="Zdotaccent" horiz-adv-x="594" d="M51 0V26L503 687H61V716H542V690L87 29H543V0H51ZM307 814Q293 814 286 822T279 842Q279 853 286 861T307 870Q321 870 328 862T335 842Q335 831 328 823T307 814Z" />
<glyph unicode="&#x17c;" glyph-name="zdotaccent" horiz-adv-x="452" d="M34 0V20L376 492H42V519H415V499L73 27H416V0H34ZM234 643Q220 643 213 651T206 671Q206 682 213 690T234 699Q248 699 255 691T262 671Q262 660 255 652T234 643Z" />
<glyph unicode="&#x17d;" glyph-name="Zcaron" horiz-adv-x="594" d="M51 0V26L503 687H61V716H542V690L87 29H543V0H51ZM283 778L162 906H191L303 804L415 906H445L323 778H283Z" />
<glyph unicode="&#x17e;" glyph-name="zcaron" horiz-adv-x="452" d="M34 0V20L376 492H42V519H415V499L73 27H416V0H34ZM99 736H129L235 625L340 736H370L254 598H214L99 736Z" />
<glyph unicode="&#x192;" glyph-name="uni0192" horiz-adv-x="556" d="M58 -187Q33 -187 18 -183T-10 -173L-6 -145Q4 -150 19 -155T57 -160Q93 -160 117 -148T157 -115T182 -65T198 0L270 382H172L177 409H275L300 539Q308 579 319 613T350 673T399 712T470 726Q495
726 510 722T537 712L532 686Q524 691 509 695T471 699Q435 699 411 687T372 654T347 604T330 539L305 409H449L443 382H300L228 0Q220 -40 209 -74T178 -134T129 -173T58 -187Z" />
<glyph unicode="&#x218;" glyph-name="uni0218" horiz-adv-x="558" d="M260 -10Q179 -10 125 9T45 48L58 78Q87 56 139 38T260 19Q299 19 336 27T403 54T451 103T469 178Q469 219 454 248T411 297T347 331T266 356Q228 366 191 379T124 415T76 469T57 549Q57 595
74 628T123 683T196 715T289 726Q355 726 395 714T463 688L453 659Q427 673 387 685T288 697Q246 697 210 689T147 662T105 616T89 549Q89 512 103 486T143 442T200 410T269 387Q305 376 345 364T421 330T479 272T502 179Q502 126 481 90T426 32T348 0T260 -10ZM218
-197Q247 -165 258 -127Q242 -125 236 -117T230 -98Q230 -85 238 -77T260 -68Q274 -68 283 -77T292 -105Q292 -134 279 -157T248 -197H218Z" />
<glyph unicode="&#x219;" glyph-name="uni0219" horiz-adv-x="460" d="M224 -10Q186 -10 156 -5T103 9T65 26T41 41L48 70Q58 62 74 53T112 35T163 22T224 16Q254 16 282 22T332 42T368 78T382 134Q382 165 371 186T338 220T287 242T220 259Q180 267 148 277T94
302T59 340T47 396Q47 431 61 456T99 497T156 521T227 529Q290 529 326 518T383 495L375 467Q355 478 319 490T227 502Q196 502 169 497T122 480T89 447T77 396Q77 369 87 351T116 321T164 302T228 287Q266 279 300 269T359 243T398 200T413 135Q413 97 399 70T360
25T300 -1T224 -10ZM430 -197Q459 -165 470 -127Q454 -125 448 -117T442 -98Q442 -85 450 -77T472 -68Q486 -68 495 -77T504 -105Q504 -134 491 -157T460 -197H430Z" />
<glyph unicode="&#x21a;" glyph-name="uni021A" horiz-adv-x="537" d="M285 687V0H253V687H13V716H524V687H285ZM230 -197Q259 -165 270 -127Q254 -125 248 -117T242 -98Q242 -85 250 -77T272 -68Q286 -68 295 -77T304 -105Q304 -134 291 -157T260 -197H230Z" />
<glyph unicode="&#x21b;" glyph-name="uni021B" horiz-adv-x="333" d="M295 2Q283 -3 266 -6T229 -10Q164 -10 136 22T107 106V492H33V519H107V628H137V519H288V492H137V110Q137 90 141 73T156 43T185 23T229 16Q247 16 262 19T288 27L295 2V2ZM404 -197Q433 -165
444 -127Q428 -125 422 -117T416 -98Q416 -85 424 -77T446 -68Q460 -68 469 -77T478 -105Q478 -134 465 -157T434 -197H404Z" />
<glyph unicode="&#x237;" glyph-name="uni0237" horiz-adv-x="205" d="M1 -160Q43 -160 66 -136T90 -65V519H120V-64Q120 -115 93 -151T6 -187L1 -160Z" />
<glyph unicode="&#x2bc;" glyph-name="uni02BC" horiz-adv-x="210" d="M70 571Q82 588 92 609T107 662Q93 662 85 669T76 691Q76 704 84 713T107 722Q122 722 131 713T140 683Q140 669 136 653T126 622T112 594T98 571H70Z" />
<glyph unicode="&#x2c6;" glyph-name="circumflex" horiz-adv-x="451" d="M226 709L120 598H90L205 736H245L361 598H331L226 709Z" />
<glyph unicode="&#x2c7;" glyph-name="caron" horiz-adv-x="451" d="M90 736H120L226 625L331 736H361L245 598H205L90 736Z" />
<glyph unicode="&#x2d8;" glyph-name="breve" horiz-adv-x="449" d="M225 599Q162 599 129 634T93 730H122Q124 682 148 654T225 626Q278 626 302 654T328 730H357Q355 670 322 635T225 599Z" />
<glyph unicode="&#x2d9;" glyph-name="dotaccent" horiz-adv-x="451" d="M225 643Q211 643 204 651T197 671Q197 682 204 690T225 699Q239 699 246 691T253 671Q253 660 246 652T225 643Z" />
<glyph unicode="&#x2da;" glyph-name="ring" horiz-adv-x="451" d="M225 597Q182 597 154 624T126 696Q126 738 154 765T225 793Q267 793 296 766T325 696Q325 652 296 625T225 597ZM225 623Q257 623 277 642T297 696Q297 729 277 748T225 767Q194 767 174 748T154
696Q154 661 173 642T225 623Z" />
<glyph unicode="&#x2db;" glyph-name="ogonek" horiz-adv-x="449" d="M239 -181Q201 -181 179 -162T156 -108Q156 -74 178 -46T232 0H270Q225 -25 206 -51T187 -107Q187 -156 241 -156Q251 -156 262 -154T283 -147L291 -170Q281 -175 268 -178T239 -181Z" />
<glyph unicode="&#x2dc;" glyph-name="tilde" horiz-adv-x="451" d="M82 605Q81 648 100 676T158 705Q178 705 196 694T232 670T266 646T297 635Q317 635 328 651T342 707H369Q369 665 351 636T294 607Q274 607 255 618T219 641T186 665T155 676Q135 676 123 661T109
605H82V605Z" />
<glyph unicode="&#x2dd;" glyph-name="hungarumlaut" horiz-adv-x="451" d="M252 598L313 746H352L280 598H252ZM120 598L181 746H220L148 598H120Z" />
<glyph unicode="&#x301;" glyph-name="acutecomb" horiz-adv-x="1" d="M-181 746H-135L-250 598H-280L-181 746Z" />
<glyph unicode="&#x401;" glyph-name="uni0401" horiz-adv-x="568" d="M95 716H508V687H127V387H456V358H127V29H513V0H95V716ZM411 814Q397 814 390 822T383 842Q383 853 390 861T411 870Q425 870 431 862T438 842Q438 831 432 823T411 814ZM218 814Q204 814
197 822T190 842Q190 853 197 861T218 870Q232 870 239 862T246 842Q246 831 239 823T218 814Z" />
<glyph unicode="&#x402;" glyph-name="uni0402" horiz-adv-x="756" d="M285 687V393Q311 414 352 425T445 437Q504 437 552 420T633 367T685 280T704 160Q704 91 686 38T633 -51T549 -107T438 -126V-99Q498 -99 542 -81T615 -29T658 53T672 160Q672 278 616 343T443
408Q349 408 285 365V0H253V687H13V716H524V687H285Z" />
<glyph unicode="&#x403;" glyph-name="uni0403" horiz-adv-x="505" d="M339 906H382L281 783H251L339 906ZM127 687V0H95V716H465V687H127Z" />
<glyph unicode="&#x404;" glyph-name="uni0404" horiz-adv-x="670" d="M610 62Q578 34 525 12T390 -10Q310 -10 248 15T143 88T78 204T55 358Q55 445 77 513T143 628T248 701T389 726Q471 726 524 704T610 653L600 621Q565 656 510 676T389 697Q320 697 265 676T172
613T112 513T87 379H482V351H87Q88 273 108 212T168 107T262 42T390 19Q459 19 512 40T600 96L610 62V62Z" />
<glyph unicode="&#x405;" glyph-name="uni0405" horiz-adv-x="558" d="M260 -10Q179 -10 125 9T45 48L58 78Q87 56 139 38T260 19Q299 19 336 27T403 54T451 103T469 178Q469 219 454 248T411 297T347 331T266 356Q228 366 191 379T124 415T76 469T57 549Q57 595
74 628T123 683T196 715T289 726Q355 726 395 714T463 688L453 659Q427 673 387 685T288 697Q246 697 210 689T147 662T105 616T89 549Q89 512 103 486T143 442T200 410T269 387Q305 376 345 364T421 330T479 272T502 179Q502 126 481 90T426 32T348 0T260 -10Z"
/>
<glyph unicode="&#x406;" glyph-name="uni0406" horiz-adv-x="222" d="M127 716V0H95V716H127Z" />
<glyph unicode="&#x407;" glyph-name="uni0407" horiz-adv-x="222" d="M187 814Q173 814 166 822T159 842Q159 853 166 861T187 870Q201 870 208 862T215 842Q215 831 208 823T187 814ZM34 814Q20 814 13 822T6 842Q6 853 13 861T34 870Q49 870 55 862T62 842Q62
831 56 823T34 814ZM127 716V0H95V716H127Z" />
<glyph unicode="&#x408;" glyph-name="uni0408" horiz-adv-x="352" d="M262 716V138Q262 71 233 31T129 -10Q101 -10 79 -4T40 11L51 41Q65 33 85 26T129 19Q189 19 209 50T230 139V716H262Z" />
<glyph unicode="&#x409;" glyph-name="uni0409" horiz-adv-x="1013" d="M174 195Q158 91 125 44T27 -3L23 28Q77 25 103 67T143 200Q149 239 154 294T163 416T170 559T176 716H564V410H738Q846 410 905 362T964 213Q964 100 901 50T727 0H532V687H206Q203 611
200 539T194 404T185 287T174 195ZM564 381V29H727Q830 29 881 71T932 212Q932 381 738 381H564Z" />
<glyph unicode="&#x40a;" glyph-name="uni040A" horiz-adv-x="1089" d="M629 361V29H807Q908 29 957 69T1007 202Q1007 361 818 361H629ZM597 361H127V0H95V716H127V390H597V716H629V390H818Q924 390 981 345T1039 203Q1039 149 1024 111T978 48T905 12T807 0H597V361Z" />
<glyph unicode="&#x40b;" glyph-name="uni040B" horiz-adv-x="765" d="M285 687V385Q316 405 360 421T465 437Q580 437 637 384T695 230V0H663V230Q663 325 611 366T465 408Q410 408 367 394T285 355V0H253V687H13V716H524V687H285Z" />
<glyph unicode="&#x40c;" glyph-name="uni040C" horiz-adv-x="596" d="M226 349H127V0H95V716H127V378H227L521 716H558L254 364L575 0H535L226 349ZM369 906H412L311 783H281L369 906Z" />
<glyph unicode="&#x40e;" glyph-name="uni040E" horiz-adv-x="580" d="M300 762Q265 762 240 772T198 800T173 841T164 889H196Q196 841 223 815T300 789Q350 789 376 815T403 889H434Q434 864 426 841T401 801T359 773T300 762ZM146 -3Q135 -3 129 -2T118 0L113
32Q118 31 126 31T145 30Q167 30 185 39T220 67T253 117T289 190L35 716H72L307 228L511 716H545L324 192Q302 140 283 103T244 43T200 8T146 -3Z" />
<glyph unicode="&#x40f;" glyph-name="uni040F" horiz-adv-x="709" d="M379 0L376 -169H349L346 0H95V716H127V29H582V716H614V0H379Z" />
<glyph unicode="&#x410;" glyph-name="uni0410" horiz-adv-x="620" d="M308 686L151 267H467L308 686ZM478 238H140L51 0H20L289 716H329L600 0H568L478 238Z" />
<glyph unicode="&#x411;" glyph-name="uni0411" horiz-adv-x="595" d="M127 371V29H300Q406 29 458 70T510 207Q510 371 311 371H127ZM95 716H490V687H127V400H311Q422 400 482 354T542 208Q542 98 478 49T300 0H95V716Z" />
<glyph unicode="&#x412;" glyph-name="uni0412" horiz-adv-x="601" d="M127 688V383H272Q319 383 357 392T422 420T464 469T479 542Q479 617 432 652T290 688H127ZM127 355V29H297Q346 29 386 38T455 67T498 120T514 197Q514 355 315 355H127ZM95 716H290Q396
716 453 674T511 543Q511 471 475 430T376 373Q546 354 546 198Q546 145 527 108T474 46T395 11T297 0H95V716Z" />
<glyph unicode="&#x413;" glyph-name="uni0413" horiz-adv-x="505" d="M127 687V0H95V716H465V687H127Z" />
<glyph unicode="&#x414;" glyph-name="uni0414" horiz-adv-x="715" d="M571 687H233Q225 545 219 434T201 242T172 108T122 29H571V687ZM653 0H53L47 -169H20V29H72Q111 46 133 98T169 236T188 443T203 716H603V29H686V-169H657L653 0Z" />
<glyph unicode="&#x415;" glyph-name="uni0415" horiz-adv-x="568" d="M95 716H508V687H127V387H456V358H127V29H513V0H95V716Z" />
<glyph unicode="&#x416;" glyph-name="uni0416" horiz-adv-x="909" d="M439 349H330L61 0H23L303 363L37 718L75 716L330 378H439V716H471V378H580L835 716H871L607 365L889 0H849L580 349H471V0H439V349Z" />
<glyph unicode="&#x417;" glyph-name="uni0417" horiz-adv-x="561" d="M277 -10Q232 -10 197 -4T134 13T87 36T52 62L62 95Q95 63 147 41T276 19Q321 19 357 30T420 64T460 119T474 196Q474 272 428 313T286 354H184V383H263Q303 383 336 392T393 420T430 470T443
543Q443 615 400 656T278 697Q217 697 168 676T85 628L74 658Q89 669 108 681T153 703T210 719T277 726Q322 726 358 714T421 679T461 622T475 543Q475 471 440 429T345 371Q426 361 466 315T506 197Q506 141 486 102T433 37T359 1T277 -10Z" />
<glyph unicode="&#x418;" glyph-name="uni0418" horiz-adv-x="724" d="M95 0V716H127V46L597 716H629V0H597V669L127 0H95Z" />
<glyph unicode="&#x419;" glyph-name="uni0419" horiz-adv-x="724" d="M364 762Q329 762 304 772T262 799T237 839T228 889H260Q260 838 287 814T364 789Q414 789 440 813T467 889H498Q498 862 490 839T465 799T423 772T364 762ZM95 0V716H127V46L597 716H629V0H597V669L127
0H95Z" />
<glyph unicode="&#x41a;" glyph-name="uni041A" horiz-adv-x="596" d="M226 349H127V0H95V716H127V378H227L521 716H558L254 364L575 0H535L226 349Z" />
<glyph unicode="&#x41b;" glyph-name="uni041B" horiz-adv-x="656" d="M174 195Q158 91 125 44T27 -3L23 28Q77 25 103 67T143 200Q149 239 154 294T163 416T170 559T176 716H564V0H532V687H206Q203 611 200 539T194 404T185 287T174 195Z" />
<glyph unicode="&#x41c;" glyph-name="uni041C" horiz-adv-x="853" d="M124 674V0H95V716H137L427 132L715 716H758V0H726V676L445 108H405L124 674Z" />
<glyph unicode="&#x41d;" glyph-name="uni041D" horiz-adv-x="724" d="M597 340H127V0H95V716H127V369H597V716H629V0H597V340Z" />
<glyph unicode="&#x41e;" glyph-name="uni041E" horiz-adv-x="771" d="M386 -10Q314 -10 254 15T149 88T80 204T55 357Q55 445 80 513T149 629T253 701T386 726Q458 726 518 701T623 629T691 513T716 357Q716 273 692 205T623 89T519 16T386 -10ZM386 19Q452 19
506 41T601 107T663 214T685 358Q685 439 663 502T601 608T507 674T386 697Q320 697 266 675T171 609T109 502T87 358Q87 277 109 214T171 108T265 42T386 19Z" />
<glyph unicode="&#x41f;" glyph-name="uni041F" horiz-adv-x="709" d="M582 687H127V0H95V716H614V0H582V687Z" />
<glyph unicode="&#x420;" glyph-name="uni0420" horiz-adv-x="566" d="M127 687V345H285Q386 345 435 386T485 523Q485 687 296 687H127ZM127 316V0H95V716H296Q402 716 459 670T516 524Q516 414 455 365T285 316H127Z" />
<glyph unicode="&#x421;" glyph-name="uni0421" horiz-adv-x="670" d="M390 -10Q310 -10 248 15T143 88T78 204T55 358Q55 445 77 513T143 628T248 701T389 726Q471 726 524 704T610 653L600 622Q565 654 512 675T389 697Q317 697 261 674T166 607T107 500T87
358Q87 278 107 216T166 109T261 42T390 19Q459 19 512 38T600 91L610 62Q578 34 525 12T390 -10Z" />
<glyph unicode="&#x422;" glyph-name="uni0422" horiz-adv-x="537" d="M285 687V0H253V687H13V716H524V687H285Z" />
<glyph unicode="&#x423;" glyph-name="uni0423" horiz-adv-x="580" d="M146 -3Q135 -3 129 -2T118 0L113 32Q118 31 126 31T145 30Q167 30 185 39T220 67T253 117T289 190L35 716H72L307 228L511 716H545L324 192Q302 140 283 103T244 43T200 8T146 -3Z" />
<glyph unicode="&#x424;" glyph-name="uni0424" horiz-adv-x="775" d="M372 84Q303 85 244 102T142 153T73 237T48 355Q48 422 73 473T141 559T244 612T372 634V725H404V634Q473 632 532 615T634 565T702 481T727 363Q727 296 703 245T635 159T532 106T404 84V-10H372V84ZM372
605Q311 602 258 587T165 541T103 465T80 355Q80 293 102 249T164 175T257 130T372 113V605ZM695 363Q695 424 673 469T611 543T518 588T404 605V113Q465 116 518 131T610 176T672 252T695 363Z" />
<glyph unicode="&#x425;" glyph-name="uni0425" horiz-adv-x="610" d="M301 338L75 0H41L283 363L40 716H76L304 385L534 716H567L321 362L570 0H533L301 338Z" />
<glyph unicode="&#x426;" glyph-name="uni0426" horiz-adv-x="726" d="M668 -169L663 0H95V716H127V29H582V716H614V29H696V-169H668Z" />
<glyph unicode="&#x427;" glyph-name="uni0427" horiz-adv-x="627" d="M500 0V364Q461 324 409 303T292 282Q243 282 203 296T133 339T87 416T70 529V716H102V529Q102 470 116 429T155 362T215 323T291 311Q350 311 404 331T500 404V716H532V0H500Z" />
<glyph unicode="&#x428;" glyph-name="uni0428" horiz-adv-x="915" d="M95 716H127V29H441V716H473V29H789V716H821V0H95V716Z" />
<glyph unicode="&#x429;" glyph-name="uni0429" horiz-adv-x="932" d="M874 -169L869 0H95V716H127V29H441V716H473V29H789V716H821V29H902V-169H874Z" />
<glyph unicode="&#x42a;" glyph-name="uni042A" horiz-adv-x="695" d="M235 371V29H413Q514 29 563 70T613 207Q613 291 567 331T424 371H235ZM203 687H13V716H235V400H424Q530 400 587 354T645 208Q645 153 630 114T584 49T511 12T413 0H203V687Z" />
<glyph unicode="&#x42b;" glyph-name="uni042B" horiz-adv-x="781" d="M687 716V0H655V716H687ZM127 371V29H295Q396 29 445 70T495 207Q495 371 306 371H127ZM95 716H127V400H306Q412 400 469 354T527 208Q527 153 512 114T466 49T393 12T295 0H95V716Z" />
<glyph unicode="&#x42c;" glyph-name="uni042C" horiz-adv-x="576" d="M127 381V29H290Q393 29 444 71T495 212Q495 381 301 381H127ZM95 716H127V410H301Q409 410 468 362T527 213Q527 100 464 50T290 0H95V716Z" />
<glyph unicode="&#x42d;" glyph-name="uni042D" horiz-adv-x="665" d="M275 -10Q194 -10 141 12T55 62L65 96Q99 61 152 40T275 19Q345 19 400 41T494 104T554 205T578 340H204V369H578Q576 446 556 507T497 610T403 674T276 697Q211 697 156 677T65 621L55 653Q87
682 140 704T276 726Q355 726 417 701T522 629T587 513T610 358Q610 272 588 204T522 89T417 16T275 -10Z" />
<glyph unicode="&#x42e;" glyph-name="uni042E" horiz-adv-x="957" d="M591 -10Q526 -10 471 14T374 83T308 193T280 340H127V0H95V716H127V369H280Q281 453 305 519T370 632T468 702T591 726Q658 726 715 701T813 629T878 515T902 361Q902 275 879 207T814 90T715
16T591 -10ZM591 19Q652 19 703 41T792 107T849 214T870 358Q870 439 850 502T792 608T704 674T591 697Q530 697 479 675T390 609T333 502T312 358Q312 277 332 214T390 108T478 42T591 19Z" />
<glyph unicode="&#x42f;" glyph-name="uni042F" horiz-adv-x="608" d="M481 345V687H323Q222 687 173 646T124 516Q124 424 176 385T334 345H481ZM481 316H314L74 0H35L277 318Q189 327 141 374T92 518Q92 620 152 668T323 716H513V0H481V316Z" />
<glyph unicode="&#x430;" glyph-name="uni0430" horiz-adv-x="520" d="M221 16Q263 16 295 30T350 65T387 109T409 150V277H279Q173 277 124 243T75 146Q75 81 116 49T221 16ZM416 0Q409 31 409 101Q399 82 383 63T344 27T290 1T219 -10Q138 -10 92 32T45 147Q45
225 105 265T278 305H409V357Q409 399 397 427T363 471T314 495T254 502Q226 502 201 498T154 487T115 472T85 455L75 481Q101 499 146 514T254 529Q292 529 325 520T384 491T424 438T439 359V103Q439 70 440 44T445 0H416Z" />
<glyph unicode="&#x431;" glyph-name="uni0431" horiz-adv-x="587" d="M297 -10Q246 -10 202 7T125 59T75 148T56 273Q56 322 56 381T66 496T105 602T190 681Q209 691 229 698T274 710T332 717T408 720Q441 720 461 724T493 735L498 705Q487 698 467 694T409 690Q368
690 337 688T282 682T238 672T200 655Q167 635 145 607T109 541T88 457T78 357Q103 438 163 478T304 519Q355 519 398 501T473 450T523 367T541 255Q541 193 523 144T471 60T394 8T297 -10ZM297 16Q343 16 382 32T450 78T495 153T511 255Q511 312 496 356T452 431T387
476T304 492Q257 492 217 477T148 431T103 357T86 255Q86 198 102 154T146 79T212 32T297 16Z" />
<glyph unicode="&#x432;" glyph-name="uni0432" horiz-adv-x="503" d="M115 492V285H262Q320 285 356 312T392 394Q392 449 356 470T257 492H115ZM115 259V27H268Q302 27 330 33T379 53T411 90T422 146Q422 209 383 234T266 259H115ZM85 519H251Q336 519 379 489T422
394Q422 348 398 318T335 275Q392 267 423 234T454 151Q454 109 441 80T402 33T340 8T258 0H85V519Z" />
<glyph unicode="&#x433;" glyph-name="uni0433" horiz-adv-x="428" d="M115 492V0H85V519H382V492H115Z" />
<glyph unicode="&#x434;" glyph-name="uni0434" horiz-adv-x="556" d="M429 492H168Q166 399 163 323T153 189T132 90T94 27H429V492ZM506 0H45L40 -148H15V27H49Q79 38 96 74T122 173T134 321T141 519H460V27H536V-148H511L506 0Z" />
<glyph unicode="&#x435;" glyph-name="uni0435" horiz-adv-x="537" d="M283 502Q244 502 208 488T144 447T98 380T76 289H461Q466 343 453 383T415 450T355 489T283 502ZM475 45Q461 35 444 25T406 8T358 -5T299 -10Q240 -10 193 8T113 61T63 146T45 260Q45 323
64 373T115 457T190 510T283 529Q331 529 372 513T443 463T484 379T487 262H75V260Q75 143 135 80T299 16Q359 16 398 33T466 72L475 45Z" />
<glyph unicode="&#x436;" glyph-name="uni0436" horiz-adv-x="725" d="M348 249H269L77 0H41L241 257V263L27 519H66L267 276H348V519H379V276H460L661 519H698L487 266V258L688 0H650L458 249H379V0H348V249Z" />
<glyph unicode="&#x437;" glyph-name="uni0437" horiz-adv-x="459" d="M205 -10Q160 -10 118 0T46 26L54 53Q84 36 126 26T206 16Q242 16 273 22T327 44T363 83T376 144Q376 205 339 229T229 253H139V279H225Q283 279 319 307T355 393Q355 450 316 476T214 502Q171
502 137 492T74 465L68 492Q94 506 127 517T215 529Q296 529 340 494T385 393Q385 344 361 313T296 270Q351 261 380 229T409 148Q409 104 395 74T353 25T289 -2T205 -10Z" />
<glyph unicode="&#x438;" glyph-name="uni0438" horiz-adv-x="582" d="M85 0V519H115V52L471 519H497V0H466V469L110 0H85Z" />
<glyph unicode="&#x439;" glyph-name="uni0439" horiz-adv-x="582" d="M291 583Q227 583 196 617T165 700H197Q197 655 221 633T291 610Q383 610 383 700H415Q415 651 385 617T291 583ZM85 0V519H115V52L471 519H497V0H466V469L110 0H85Z" />
<glyph unicode="&#x43a;" glyph-name="uni043A" horiz-adv-x="474" d="M196 249H116V0H85V519H116V276H197L408 519H445L223 264V260L435 0H397L196 249Z" />
<glyph unicode="&#x43b;" glyph-name="uni043B" horiz-adv-x="524" d="M128 76Q97 -5 20 0L14 30Q73 24 99 88Q121 143 125 250T131 519H439V0H408V492H160Q158 345 154 241T128 76Z" />
<glyph unicode="&#x43c;" glyph-name="uni043C" horiz-adv-x="674" d="M114 484V0H85V519H131L338 115L544 519H590V0H560V486L347 74H326L114 484Z" />
<glyph unicode="&#x43d;" glyph-name="uni043D" horiz-adv-x="571" d="M456 258H115V0H85V519H115V285H456V519H487V0H456V258Z" />
<glyph unicode="&#x43e;" glyph-name="uni043E" horiz-adv-x="576" d="M287 -10Q235 -10 191 8T115 61T64 146T45 260Q45 324 63 374T114 458T191 511T287 529Q339 529 383 511T461 459T512 374T531 260Q531 196 513 146T461 62T384 9T287 -10ZM287 16Q333 16
372 32T439 79T484 156T501 260Q501 318 485 363T440 439T372 486T287 502Q241 502 203 486T136 440T91 364T75 260Q75 201 91 156T135 80T202 32T287 16Z" />
<glyph unicode="&#x43f;" glyph-name="uni043F" horiz-adv-x="562" d="M446 492H115V0H85V519H477V0H446V492Z" />
<glyph unicode="&#x440;" glyph-name="uni0440" horiz-adv-x="615" d="M326 16Q372 16 411 32T478 79T523 156T540 260Q540 318 524 363T479 439T411 486T326 502Q280 502 242 486T175 440T130 364T114 260Q114 201 130 156T174 80T241 32T326 16ZM326 -10Q251
-10 196 27T115 134V-177H85V519H113L114 393L115 387Q142 456 196 492T326 529Q378 529 422 511T500 459T551 374T570 260Q570 196 552 146T500 62T423 9T326 -10Z" />
<glyph unicode="&#x441;" glyph-name="uni0441" horiz-adv-x="507" d="M302 -10Q246 -10 199 8T118 61T64 146T45 259Q45 323 64 373T117 457T199 510T305 529Q346 529 385 520T454 495L446 466Q418 483 381 492T305 502Q252 502 210 486T137 438T91 361T75 259Q75
203 92 158T139 82T210 33T302 16Q390 16 448 56L456 29Q433 12 394 1T302 -10Z" />
<glyph unicode="&#x442;" glyph-name="uni0442" horiz-adv-x="460" d="M246 492V0H215V492H28V519H432V492H246Z" />
<glyph unicode="&#x443;" glyph-name="uni0443" horiz-adv-x="486" d="M92 -187Q78 -187 70 -185T56 -180L59 -155Q66 -157 73 -158T92 -160Q136 -160 165 -120T224 1L23 519H56L240 39L432 519H463L259 7Q240 -40 224 -76T188 -137T146 -174T92 -187Z" />
<glyph unicode="&#x444;" glyph-name="uni0444" horiz-adv-x="672" d="M321 -7Q266 -6 216 10T128 60T68 142T45 260Q45 328 67 377T128 460T216 509T321 527V727H351V527Q406 525 456 509T544 460T604 378T627 260Q627 192 605 143T544 60T456 11T351 -7V-177H321V-7ZM321
500Q271 498 227 484T149 442T95 369T75 260Q75 196 95 152T148 79T226 37T321 20V500ZM597 260Q597 324 577 368T524 441T445 483T351 500V20Q400 22 445 36T523 78T577 151T597 260Z" />
<glyph unicode="&#x445;" glyph-name="uni0445" horiz-adv-x="460" d="M226 242L54 0H22L208 267L25 519H62L227 292L386 519H419L245 267L438 0H402L226 242Z" />
<glyph unicode="&#x446;" glyph-name="uni0446" horiz-adv-x="573" d="M528 -148L523 0H85V519H115V27H446V519H477V27H553V-148H528Z" />
<glyph unicode="&#x447;" glyph-name="uni0447" horiz-adv-x="502" d="M387 0V278Q362 245 321 224T225 202Q153 202 109 241T65 366V519H95V365Q95 327 104 301T131 259T171 236T224 229Q276 229 320 251T387 323V519H418V0H387Z" />
<glyph unicode="&#x448;" glyph-name="uni0448" horiz-adv-x="764" d="M85 519H115V27H366V519H397V27H648V519H679V0H85V519Z" />
<glyph unicode="&#x449;" glyph-name="uni0449" horiz-adv-x="775" d="M730 -148L725 0H85V519H115V27H366V519H397V27H648V519H679V27H755V-148H730Z" />
<glyph unicode="&#x44a;" glyph-name="uni044A" horiz-adv-x="546" d="M211 287V27H311Q346 27 375 34T426 58T460 99T472 160Q472 227 432 257T320 287H211ZM180 492H28V519H211V314H321Q406 314 454 278T502 161Q502 120 488 90T449 39T388 10T311 0H180V492Z" />
<glyph unicode="&#x44b;" glyph-name="uni044B" horiz-adv-x="630" d="M545 0H514V519H545V0ZM115 287V27H215Q250 27 279 34T330 58T364 99T376 160Q376 227 336 257T224 287H115ZM85 519H115V314H225Q310 314 358 278T406 161Q406 120 392 90T353 39T292 10T215
0H85V519Z" />
<glyph unicode="&#x44c;" glyph-name="uni044C" horiz-adv-x="451" d="M115 287V27H215Q250 27 279 34T330 58T364 99T376 160Q376 227 336 257T224 287H115ZM85 519H115V314H225Q310 314 358 278T406 161Q406 120 392 90T353 39T292 10T215 0H85V519Z" />
<glyph unicode="&#x44d;" glyph-name="uni044D" horiz-adv-x="508" d="M202 -10Q176 -10 155 -8T115 0T81 12T48 28L56 56Q119 16 202 16Q252 16 294 32T366 80T414 155T433 254H159V280H432Q426 385 364 443T199 502Q161 502 124 493T58 466L51 492Q80 508 119
518T199 529Q258 529 306 511T390 458T444 373T463 259Q463 196 444 146T390 62T307 9T202 -10Z" />
<glyph unicode="&#x44e;" glyph-name="uni044E" horiz-adv-x="766" d="M487 -10Q437 -10 395 8T322 60T273 145T255 258H115V0H85V519H115V285H256Q259 343 278 388T328 465T399 512T487 529Q537 529 580 511T654 459T703 374T721 260Q721 196 704 146T655 62T580
9T487 -10ZM487 16Q530 16 567 32T632 79T675 156T691 260Q691 318 676 363T633 439T568 486T487 502Q443 502 406 486T342 440T300 364T285 260Q285 201 300 156T342 80T406 32T487 16Z" />
<glyph unicode="&#x44f;" glyph-name="uni044F" horiz-adv-x="492" d="M78 0H42L205 228Q140 236 104 269T67 367Q67 406 81 434T120 482T181 510T258 519H407V0H376V223H237L78 0ZM376 251V492H258Q223 492 194 485T143 463T109 425T97 368Q97 306 137 279T248 251H376Z" />
<glyph unicode="&#x451;" glyph-name="uni0451" horiz-adv-x="537" d="M283 502Q244 502 208 488T144 447T98 380T76 289H461Q466 343 453 383T415 450T355 489T283 502ZM475 45Q461 35 444 25T406 8T358 -5T299 -10Q240 -10 193 8T113 61T63 146T45 260Q45 323
64 373T115 457T190 510T283 529Q331 529 372 513T443 463T484 379T487 262H75V260Q75 143 135 80T299 16Q359 16 398 33T466 72L475 45ZM371 643Q357 643 350 651T343 671Q343 682 350 690T371 699Q385 699 391 691T398 671Q398 660 392 652T371 643ZM185 643Q171
643 164 651T157 671Q157 682 164 690T185 699Q200 699 206 691T213 671Q213 660 207 652T185 643Z" />
<glyph unicode="&#x452;" glyph-name="uni0452" horiz-adv-x="575" d="M502 -64Q502 -115 475 -151T389 -187L383 -160Q425 -160 448 -136T471 -65V363Q471 437 429 469T321 502Q276 502 243 489T185 454T144 404T115 347V0H85V596H-8V623H85V716H115V623H310V596H115V507L114
393H116Q126 418 142 442T184 485T244 517T324 529Q408 529 455 487T502 363V-64V-64Z" />
<glyph unicode="&#x453;" glyph-name="uni0453" horiz-adv-x="428" d="M115 492V0H85V519H382V492H115ZM280 746H326L211 598H181L280 746Z" />
<glyph unicode="&#x454;" glyph-name="uni0454" horiz-adv-x="507" d="M456 28Q424 11 389 1T302 -10Q246 -10 199 8T118 61T64 146T45 259Q45 323 64 373T117 457T199 510T305 529Q346 529 385 519T454 492L446 466Q418 483 381 492T305 502Q204 502 143 444T76
280H351V253H75Q76 198 93 154T140 80T211 33T302 16Q385 16 448 56L456 28V28Z" />
<glyph unicode="&#x455;" glyph-name="uni0455" horiz-adv-x="460" d="M224 -10Q186 -10 156 -5T103 9T65 26T41 41L48 70Q58 62 74 53T112 35T163 22T224 16Q254 16 282 22T332 42T368 78T382 134Q382 165 371 186T338 220T287 242T220 259Q180 267 148 277T94
302T59 340T47 396Q47 431 61 456T99 497T156 521T227 529Q290 529 326 518T383 495L375 467Q355 478 319 490T227 502Q196 502 169 497T122 480T89 447T77 396Q77 369 87 351T116 321T164 302T228 287Q266 279 300 269T359 243T398 200T413 135Q413 97 399 70T360
25T300 -1T224 -10Z" />
<glyph unicode="&#x456;" glyph-name="uni0456" horiz-adv-x="200" d="M100 643Q86 643 79 651T72 671Q72 682 79 690T100 699Q114 699 121 691T128 671Q128 660 121 652T100 643ZM115 519V0H85V519H115Z" />
<glyph unicode="&#x457;" glyph-name="uni0457" horiz-adv-x="200" d="M167 643Q153 643 146 651T139 671Q139 682 146 690T167 699Q181 699 188 691T195 671Q195 660 188 652T167 643ZM33 643Q19 643 12 651T5 671Q5 682 12 690T33 699Q48 699 55 691T62 671Q62
660 55 652T33 643ZM115 519V0H85V519H115Z" />
<glyph unicode="&#x458;" glyph-name="uni0458" horiz-adv-x="205" d="M105 643Q91 643 84 651T77 671Q77 682 84 690T105 699Q119 699 126 691T133 671Q133 660 126 652T105 643ZM1 -160Q43 -160 66 -136T90 -65V519H120V-64Q120 -115 93 -151T6 -187L1 -160Z" />
<glyph unicode="&#x459;" glyph-name="uni0459" horiz-adv-x="774" d="M128 76Q97 -5 20 0L14 30Q73 24 99 88Q121 143 125 250T131 519H439V314H549Q634 314 682 278T730 161Q730 120 716 90T677 39T616 10T539 0H408V492H160Q158 345 154 241T128 76ZM539 27Q574
27 603 34T654 58T688 99T700 160Q700 227 660 257T548 287H439V27H539Z" />
<glyph unicode="&#x45a;" glyph-name="uni045A" horiz-adv-x="823" d="M456 268H115V0H85V519H115V295H456V519H487V294H597Q682 294 730 260T778 151Q778 112 764 84T725 37T664 9T587 0H456V268ZM487 266V27H587Q622 27 651 34T702 55T736 93T748 149Q748 212
708 239T596 266H487Z" />
<glyph unicode="&#x45b;" glyph-name="uni045B" horiz-adv-x="582" d="M115 0H85V596H-8V623H85V716H115V623H310V596H115V395H118Q127 419 143 443T185 486T244 517T324 529Q408 529 455 487T502 363V0H471V363Q471 437 429 469T321 502Q276 502 243 489T185
454T144 404T115 347V0Z" />
<glyph unicode="&#x45c;" glyph-name="uni045C" horiz-adv-x="474" d="M196 249H116V0H85V519H116V276H197L408 519H445L223 264V260L435 0H397L196 249ZM324 746H370L255 598H225L324 746Z" />
<glyph unicode="&#x45e;" glyph-name="uni045E" horiz-adv-x="486" d="M247 582Q184 582 153 616T122 699H154Q154 654 178 632T247 609Q292 609 316 631T340 699H372Q372 650 341 616T247 582ZM92 -187Q78 -187 70 -185T56 -180L59 -155Q66 -157 73 -158T92 -160Q136
-160 165 -120T224 1L23 519H56L240 39L432 519H463L259 7Q240 -40 224 -76T188 -137T146 -174T92 -187Z" />
<glyph unicode="&#x45f;" glyph-name="uni045F" horiz-adv-x="562" d="M297 0L294 -148H269L266 0H85V519H115V27H447V519H477V0H297Z" />
<glyph unicode="&#x490;" glyph-name="uni0490" horiz-adv-x="505" d="M127 687V0H95V716H432L437 885H465V687H127Z" />
<glyph unicode="&#x491;" glyph-name="uni0491" horiz-adv-x="438" d="M115 492V0H85V519H363L368 667H393V492H115Z" />
<glyph unicode="&#x492;" glyph-name="uni0492" horiz-adv-x="546" d="M22 369H136V716H506V687H168V369H376V340H168V0H136V340H22V369Z" />
<glyph unicode="&#x493;" glyph-name="uni0493" horiz-adv-x="466" d="M9 276H113V519H410V492H143V276H328V249H143V0H113V249H9V276Z" />
<glyph unicode="&#x49a;" glyph-name="uni049A" horiz-adv-x="624" d="M226 349H127V0H95V716H127V378H227L521 716H558L254 364L549 29H613V-169H586L580 0H535L226 349Z" />
<glyph unicode="&#x49b;" glyph-name="uni049B" horiz-adv-x="482" d="M196 249H116V0H85V519H116V276H197L408 519H445L223 264V260L413 27H459V-148H434L429 0H397L196 249Z" />
<glyph unicode="&#x4a2;" glyph-name="uni04A2" horiz-adv-x="740" d="M597 340H127V0H95V716H127V369H597V716H629V29H710V-169H682L677 0H597V340Z" />
<glyph unicode="&#x4a3;" glyph-name="uni04A3" horiz-adv-x="582" d="M456 258H115V0H85V519H115V285H456V519H487V27H562V-148H537L532 0H456V258Z" />
<glyph unicode="&#x4ae;" glyph-name="uni04AE" horiz-adv-x="586" d="M277 0V314L20 716H54L295 342L533 716H566L309 313V0H277Z" />
<glyph unicode="&#x4af;" glyph-name="uni04AF" horiz-adv-x="506" d="M237 -177V-1L23 519H55L254 38L453 519H483L267 -2V-177H237Z" />
<glyph unicode="&#x4b0;" glyph-name="uni04B0" horiz-adv-x="586" d="M277 0V289H123V318H274L20 716H54L295 342L533 716H566L312 318H464V289H309V0H277Z" />
<glyph unicode="&#x4b1;" glyph-name="uni04B1" horiz-adv-x="506" d="M237 -177V-27H103V0H236L23 519H55L254 38L453 519H483L268 0H401V-27H267V-177H237Z" />
<glyph unicode="&#x4ba;" glyph-name="uni04BA" horiz-adv-x="627" d="M127 716V352Q166 392 218 413T335 434Q384 434 424 420T494 377T540 300T557 187V0H525V187Q525 246 511 287T472 354T412 393T336 405Q277 405 223 385T127 312V0H95V716H127Z" />
<glyph unicode="&#x4bb;" glyph-name="uni04BB" horiz-adv-x="582" d="M115 0H85V716H115V395H118Q127 419 143 443T185 486T244 517T324 529Q408 529 455 487T502 363V0H471V363Q471 437 429 469T321 502Q276 502 243 489T185 454T144 404T115 347V0Z" />
<glyph unicode="&#x4d8;" glyph-name="uni04D8" horiz-adv-x="708" d="M346 -10Q55 -10 55 345V369H622Q620 445 600 506T542 609T448 674T323 697Q254 697 195 676T101 622L91 653Q125 681 181 703T323 726Q402 726 463 701T567 629T632 513T654 358Q654 272
634 204T574 89T478 16T346 -10ZM346 19Q411 19 461 41T547 104T601 205T622 340H87Q89 174 153 97T346 19Z" />
<glyph unicode="&#x4d9;" glyph-name="uni04D9" horiz-adv-x="537" d="M254 17Q293 17 329 31T393 72T439 139T461 230H76Q71 176 84 136T122 69T182 30T254 17ZM62 474Q76 484 93 494T131 511T179 524T238 529Q297 529 344 511T424 458T474 373T492 259Q492 196
473 146T422 62T347 9T254 -10Q206 -10 165 6T94 56T53 140T50 257H462V259Q462 376 402 439T238 503Q178 503 139 486T71 447L62 474Z" />
<glyph unicode="&#x4e8;" glyph-name="uni04E8" horiz-adv-x="771" d="M386 -10Q314 -10 254 15T149 89T80 206T55 361Q55 447 80 515T149 630T253 701T386 726Q458 726 518 701T623 629T691 515T716 361Q716 275 692 207T623 90T519 16T386 -10ZM386 697Q321
697 267 675T174 611T111 508T87 369H685Q683 447 661 508T599 611T505 675T386 697ZM386 19Q450 19 503 40T596 103T659 203T685 340H87Q90 263 113 204T175 103T268 41T386 19Z" />
<glyph unicode="&#x4e9;" glyph-name="uni04E9" horiz-adv-x="576" d="M287 -10Q235 -10 191 8T115 61T64 146T45 260Q45 324 63 374T114 458T191 511T287 529Q339 529 383 511T461 459T512 374T531 260Q531 196 513 146T461 62T384 9T287 -10ZM287 502Q244 502
207 488T142 446T97 378T76 285H500Q497 337 480 377T434 446T368 488T287 502ZM287 16Q333 16 372 32T439 79T484 155T501 258H75Q75 200 91 155T136 79T203 32T287 16Z" />
</font>
</defs>
</svg>
