<?xml version="1.0" standalone="no"?> <!DOCTYPE svg PUBLIC "-//W3C//DTD SVG 1.0//EN" "http://www.w3.org/TR/2001/REC-SVG-20010904/DTD/svg10.dtd" > <svg xmlns="http://www.w3.org/2000/svg" width="100%" height="100%">
<defs >
<font id="Yandex" horiz-adv-x="369" ><font-face
    font-family="Yandex Sans Logotype"
    units-per-em="1000"
    panose-1="0 0 0 0 0 0 0 0 0 0"
    ascent="950"
    descent="-250"
    alphabetic="0" />
<missing-glyph horiz-adv-x="500" />
<glyph unicode=" " glyph-name="space" horiz-adv-x="160" />
<glyph unicode="!" glyph-name="exclam" horiz-adv-x="182" d="M114 695L107 185H70L64 695H114ZM90 -3Q77 -3 69 6T60 29Q60 42 68 50T90 59Q104 59 113 51T122 29Q122 15 113 6T90 -3Z" />
<glyph unicode="&quot;" glyph-name="quotedbl" horiz-adv-x="313" d="M60 695H110L100 515H70L60 695ZM203 695H253L243 515H213L203 695Z" />
<glyph unicode="#" glyph-name="numbersign" horiz-adv-x="560" d="M374 475H233L184 239H326L374 475ZM319 204H177L135 0H96L138 204H40V239H145L193 475H66V510H200L238 695H278L240 510H381L419 695H459L421 510H520V475H414L365 239H494V204H358L316 0H277L319 204Z" />
<glyph unicode="$" glyph-name="dollar" horiz-adv-x="335" d="M149 -10Q100 -10 66 4T17 36L28 79Q46 60 74 45T147 29H150V354Q131 373 111 395T74 442T46 496T35 557Q35 591 45 617T71 661T110 689T155 702V801H200V703Q232 699 254 688T292 665L282 622Q263
637 245 648T200 664V370Q220 349 239 326T274 278T298 223T308 162Q308 96 277 53T195 -4V-126H150V-10H149ZM79 563Q79 521 101 486T155 416V663Q122 657 101 634T79 563ZM261 156Q261 200 243 235T195 306V38Q229 52 245 84T261 156Z" />
<glyph unicode="%" glyph-name="percent" horiz-adv-x="633" d="M124 -9L466 703H508L166 -9H124ZM274 514Q274 470 264 436T236 377T194 341T143 328Q116 328 92 340T50 375T22 432T11 510Q11 555 21 589T50 647T92 683T143 695Q170 695 194 684T235 649T263
592T274 514ZM59 512Q59 437 83 403T143 369Q177 369 201 403T226 512Q226 587 202 621T143 655Q107 655 83 621T59 512ZM628 186Q628 142 618 108T590 49T548 13T497 0Q470 0 446 12T404 47T376 104T365 182Q365 227 375 261T404 319T446 355T497 367Q524 367
548 356T589 321T617 264T628 186ZM413 184Q413 109 437 75T497 41Q531 41 555 75T580 184Q580 259 556 293T497 327Q461 327 437 293T413 184Z" />
<glyph unicode="&amp;" glyph-name="ampersand" horiz-adv-x="596" d="M136 542Q136 515 141 494T157 453T180 417T209 380Q271 413 304 452T338 550Q338 572 332 593T314 630T283 657T239 667Q213 667 194 657T161 629T142 589T136 542ZM237 28Q286 28 324 47T391
98Q373 117 354 139T314 187L192 333Q169 321 150 307T116 275T93 232T84 177Q84 148 93 121T122 74T170 41T237 28ZM542 13Q507 13 477 28T417 72Q383 36 338 13T233 -10Q185 -10 149 5T89 46T52 105T40 176Q40 213 50 241T79 292T120 330T170 360Q156 377 142
396T117 438T99 486T92 541Q92 575 102 605T130 657T176 691T239 704Q274 704 301 692T346 658T373 609T383 550Q383 512 370 482T336 429T288 387T231 354L346 217Q361 199 380 176T418 133Q447 177 464 230T489 336L524 324Q518 273 499 215T444 105Q469 81 495
66T550 51Q562 51 574 53T591 57L590 21Q585 19 574 16T542 13Z" />
<glyph unicode="&apos;" glyph-name="quotesingle" horiz-adv-x="170" d="M60 695H110L100 515H70L60 695Z" />
<glyph unicode="(" glyph-name="parenleft" horiz-adv-x="340" d="M250 -135Q205 -92 174 -42T123 63T95 177T86 298Q86 359 94 420T122 538T173 644T250 733H285Q246 695 218 646T171 540T143 423T134 301Q134 177 170 65T285 -135H250Z" />
<glyph unicode=")" glyph-name="parenright" horiz-adv-x="340" d="M90 -135Q135 -92 166 -42T217 63T245 177T254 298Q254 359 246 420T218 538T167 644T90 733H55Q94 695 122 646T169 540T197 423T206 301Q206 177 170 65T55 -135H90Z" />
<glyph unicode="*" glyph-name="asterisk" horiz-adv-x="256" d="M128 563L78 482L47 502L109 579L22 604L32 638L116 602L108 695H147L140 601L224 638L234 604L147 579L209 502L179 482L128 563Z" />
<glyph unicode="+" glyph-name="plus" horiz-adv-x="476" d="M262 295V109H214V295H40V334H214V520H262V334H436V295H262Z" />
<glyph unicode="," glyph-name="comma" horiz-adv-x="142" d="M37 -55Q49 -40 57 -25T67 1Q53 3 47 11T40 30Q40 43 48 51T70 60Q84 60 93 51T102 23Q102 -17 66 -55H37Z" />
<glyph unicode="-" glyph-name="hyphen" horiz-adv-x="221" d="M39 311H182V275H39V311Z" />
<glyph unicode="." glyph-name="period" horiz-adv-x="142" d="M70 -3Q57 -3 49 6T40 29Q40 42 48 50T70 59Q84 59 93 51T102 29Q102 15 93 6T70 -3Z" />
<glyph unicode="/" glyph-name="slash" horiz-adv-x="224" d="M0 -64L185 715H224L39 -64H0Z" />
<glyph unicode="0" glyph-name="zero" horiz-adv-x="419" d="M209 -10Q171 -10 139 11T84 76T48 187T35 347Q35 437 48 504T84 616T139 682T209 704Q248 704 280 683T335 618T371 508T384 352Q384 260 371 192T335 79T280 12T209 -10ZM209 29Q237 29 260 47T300
104T326 203T336 349Q336 432 327 492T301 590T261 647T209 665Q153 665 118 590T83 349Q83 264 92 204T118 104T158 47T209 29Z" />
<glyph unicode="1" glyph-name="one" horiz-adv-x="226" d="M117 0V622L24 493V558L125 695H164V0H117Z" />
<glyph unicode="2" glyph-name="two" horiz-adv-x="314" d="M13 0V35Q67 125 107 196T174 327T214 435T228 532Q228 598 202 631T134 665Q102 665 78 649T37 612L25 657Q39 673 66 688T132 704Q199 704 237 661T276 533Q276 482 261 429T218 317T151 189T64 38H278V0H13Z" />
<glyph unicode="3" glyph-name="three" horiz-adv-x="334" d="M135 -10Q109 -10 89 -5T53 6T28 20T13 34L28 69Q41 56 65 43T132 29Q161 29 183 41T222 75T246 127T254 192Q254 261 224 305T134 350H94V388H135Q165 388 185 399T217 429T235 475T241 532Q241 558
236 582T218 624T188 654T142 665Q108 665 86 650T46 614L34 657Q50 674 76 689T143 704Q178 704 205 691T250 656T277 603T287 536Q287 474 265 431T198 370Q247 351 274 307T302 196Q302 150 290 112T256 47T203 5T135 -10Z" />
<glyph unicode="4" glyph-name="four" horiz-adv-x="349" d="M264 177V0H219V177H18V212L224 695H264V215H333V177H264ZM219 594L57 215H219V594Z" />
<glyph unicode="5" glyph-name="five" horiz-adv-x="338" d="M131 -10Q94 -10 68 1T25 31L39 67Q56 49 77 39T133 29Q165 29 188 44T227 87T250 149T258 225Q258 271 250 303T227 355T193 384T151 393Q122 393 104 383T75 359L46 365L60 695H282V656H99L88 410Q100
419 118 425T161 432Q191 432 217 420T263 381T294 316T306 222Q306 171 295 128T261 55T206 7T131 -10Z" />
<glyph unicode="6" glyph-name="six" horiz-adv-x="378" d="M195 -10Q165 -10 136 4T85 51T49 135T35 262Q35 330 50 396T93 519T158 623T240 698L302 692V688Q260 667 226 635T166 562T122 475T94 379Q138 438 204 438Q231 438 256 426T302 387T334 319T347 218Q347
159 334 116T299 45T250 4T195 -10ZM195 28Q216 28 234 38T267 70T290 128T299 217Q299 314 271 358T198 402Q167 402 139 386T86 328Q83 296 83 266Q83 196 92 150T116 77T151 39T195 28Z" />
<glyph unicode="7" glyph-name="seven" horiz-adv-x="308" d="M57 0L238 654H19V695H287V660L107 0H57Z" />
<glyph unicode="8" glyph-name="eight" horiz-adv-x="379" d="M190 -10Q158 -10 129 3T78 42T43 104T30 187Q30 218 37 248T58 304T94 348T143 376Q95 393 73 436T50 534Q50 575 61 607T91 660T136 693T191 704Q218 704 243 694T288 662T318 609T330 535Q330 481
307 437T238 376Q266 367 286 349T321 305T342 251T349 190Q349 145 336 108T302 45T251 4T190 -10ZM191 394Q229 394 257 429T286 532Q286 600 259 633T191 666Q150 666 122 633T94 532Q94 464 123 429T191 394ZM190 28Q239 28 270 72T302 192Q302 229 293 259T269
311T234 345T191 357Q167 357 147 345T111 311T87 259T78 192Q78 117 109 73T190 28Z" />
<glyph unicode="9" glyph-name="nine" horiz-adv-x="378" d="M75 1V5Q153 50 208 129T285 316Q240 256 174 256Q147 256 122 268T76 307T44 375T31 476Q31 535 44 578T80 649T129 690T185 704Q215 704 243 690T294 643T329 559T343 432Q343 350 326 283T281 162T217
68T144 -1L75 1ZM180 292Q211 292 239 308T292 367Q295 397 295 428Q295 498 287 544T263 617T228 655T185 666Q164 666 145 656T112 624T88 566T79 477Q79 380 107 336T180 292Z" />
<glyph unicode=":" glyph-name="colon" horiz-adv-x="142" d="M70 -3Q57 -3 49 6T40 29Q40 42 48 50T70 59Q84 59 93 51T102 29Q102 15 93 6T70 -3ZM70 317Q57 317 49 326T40 349Q40 362 48 370T70 379Q84 379 93 371T102 349Q102 335 93 326T70 317Z" />
<glyph unicode=";" glyph-name="semicolon" horiz-adv-x="145" d="M40 200Q52 215 60 230T70 256Q56 258 50 266T43 285Q43 298 51 306T73 315Q87 315 96 306T105 278Q105 238 69 200H40ZM73 317Q60 317 52 326T43 349Q43 362 51 370T73 379Q87 379 96 371T105
349Q105 335 96 326T73 317Z" />
<glyph unicode="&lt;" glyph-name="less" horiz-adv-x="450" d="M40 308V346L390 555V507L90 329L390 151V99L40 308Z" />
<glyph unicode="=" glyph-name="equal" horiz-adv-x="506" d="M60 395V434H446V395H60ZM60 195V234H446V195H60Z" />
<glyph unicode="&gt;" glyph-name="greater" horiz-adv-x="450" d="M60 151L360 329L60 507V555L410 346V308L60 99V151Z" />
<glyph unicode="?" glyph-name="question" horiz-adv-x="371" d="M331 537Q331 505 324 480T305 433T277 393T243 356Q226 339 211 323T184 287T165 243T158 189V167H120V190Q120 226 127 253T147 303T175 343T208 378Q223 394 237 411T261 446T278 486T284 534Q284
558 278 581T257 623T217 653T153 665Q114 665 84 655T40 634V673Q55 684 84 694T158 704Q203 704 235 692T289 657T321 604T331 537ZM141 -2Q126 -2 117 8T107 33Q107 47 116 56T141 66Q156 66 165 57T175 33Q175 18 166 8T141 -2Z" />
<glyph unicode="@" glyph-name="at" horiz-adv-x="823" d="M419 -167Q336 -167 265 -141T142 -63T60 66T30 244Q30 346 60 430T143 575T271 670T433 704Q508 704 573 679T687 605T764 487T793 327Q793 269 782 219T748 132T692 74T614 53Q587 53 568 62T535 87T515
123T504 166Q484 110 449 82T368 53Q342 53 318 63T275 97T245 155T234 242Q234 292 245 337T279 415T331 469T401 489Q443 489 475 464T521 381L540 462H573L544 233Q541 206 543 180T553 132T578 98T619 85Q646 85 669 101T710 148T738 223T748 322Q748 402 724
465T656 573T556 640T431 663Q353 663 288 633T176 547T102 416T75 248Q75 156 100 87T171 -30T280 -101T420 -125Q482 -125 531 -113T601 -90V-130Q590 -136 572 -143T529 -155T477 -163T419 -167ZM280 240Q280 201 288 174T311 129T343 104T379 96Q409 96 432
113T472 159T496 224T504 299Q504 369 477 407T408 445Q376 445 353 427T313 380T288 314T280 240Z" />
<glyph unicode="A" glyph-name="A" horiz-adv-x="389" d="M114 253H269L207 538Q201 566 198 594T194 641H192Q190 622 186 594T175 539L114 253ZM277 214H106L60 0H18L170 695H220L371 0H324L277 214Z" />
<glyph unicode="B" glyph-name="B" horiz-adv-x="384" d="M57 0V695H159Q327 695 327 535Q327 472 303 433T232 373Q294 357 323 315T352 204Q352 151 337 113T294 49T229 12T147 0H57ZM105 657V389H157Q212 389 246 422T280 531Q280 596 251 626T159 657H105ZM105
352V38H142Q178 38 208 46T259 74T292 123T304 198Q304 273 272 312T172 352H105Z" />
<glyph unicode="C" glyph-name="C" horiz-adv-x="362" d="M233 704Q273 704 300 689T343 656L330 609Q313 632 289 648T233 665Q161 665 122 583T83 350Q83 199 121 114T233 29Q273 29 299 45T339 75L353 39Q348 34 338 26T313 9T277 -4T232 -10Q185 -10 148 14T86
84T48 196T35 347Q35 431 48 497T87 609T149 679T233 704Z" />
<glyph unicode="D" glyph-name="D" horiz-adv-x="428" d="M57 695H141Q193 695 239 680T319 627T373 529T393 375Q393 285 374 215T321 97T238 25T130 0H57V695ZM105 656V39H131Q179 39 218 60T285 122T328 226T344 370Q344 453 328 508T285 596T220 642T141 656H105Z" />
<glyph unicode="E" glyph-name="E" horiz-adv-x="358" d="M57 695H317V656H105V387H287V348H105V39H320V0H57V695Z" />
<glyph unicode="F" glyph-name="F" horiz-adv-x="324" d="M57 695H295V656H105V371H275V332H105V0H57V695Z" />
<glyph unicode="G" glyph-name="G" horiz-adv-x="412" d="M378 231Q378 117 338 54T222 -10Q134 -10 85 79T35 344Q35 428 48 494T88 607T151 679T235 704Q279 704 308 687T353 651L337 601Q320 624 296 644T235 665Q199 665 171 644T124 581T94 481T84 347Q84
186 121 108T222 29Q277 29 304 75T332 228V318H224V357H378V231V231Z" />
<glyph unicode="H" glyph-name="H" horiz-adv-x="434" d="M329 325H105V0H57V695H105V364H329V695H377V0H329V325Z" />
<glyph unicode="I" glyph-name="I" horiz-adv-x="162" d="M105 695V0H57V695H105Z" />
<glyph unicode="J" glyph-name="J" horiz-adv-x="249" d="M197 695V152Q197 79 171 38T80 -4Q60 -4 43 0T18 10L23 56Q35 48 49 42T86 35Q118 35 133 63T149 154V695H197Z" />
<glyph unicode="K" glyph-name="K" horiz-adv-x="388" d="M105 367V0H57V695H105V371L314 695H360L154 375L378 0H324L105 367Z" />
<glyph unicode="L" glyph-name="L" horiz-adv-x="322" d="M291 0H57V695H104V39H291V0Z" />
<glyph unicode="M" glyph-name="M" horiz-adv-x="521" d="M112 622Q112 594 112 555T109 474L88 0H49L80 695H132L239 268Q247 239 251 214T257 166H259Q264 212 278 268L388 695H441L472 0H426L405 478Q403 524 403 557T403 623H400Q395 588 390 558T375 492L275
110H238L139 492Q131 524 125 554T115 622H112V622Z" />
<glyph unicode="N" glyph-name="N" horiz-adv-x="429" d="M289 203Q302 166 311 136T331 69H335Q333 107 332 149T331 235V695H372V0H316L138 507Q125 544 116 574T96 641H92Q94 603 96 570T98 493V0H57V695H116L289 203V203Z" />
<glyph unicode="O" glyph-name="O" horiz-adv-x="453" d="M226 -10Q184 -10 149 13T88 81T49 193T35 347Q35 432 49 498T88 610T148 680T226 704Q269 704 304 681T364 613T404 503T418 352Q418 265 404 198T365 84T304 14T226 -10ZM226 29Q288 29 329 108T370
349Q370 427 359 486T329 585T284 645T226 665Q164 665 124 586T83 349Q83 269 94 209T124 109T169 49T226 29Z" />
<glyph unicode="P" glyph-name="P" horiz-adv-x="359" d="M105 270V0H57V695H157Q239 695 285 647T332 493Q332 377 283 324T153 270H105ZM105 656V309H153Q215 309 249 350T284 489Q284 576 251 616T158 656H105Z" />
<glyph unicode="Q" glyph-name="Q" horiz-adv-x="453" d="M426 -88Q354 -68 287 -46T175 -1Q108 33 72 120T35 349Q35 434 49 500T88 611T148 680T226 704Q269 704 304 681T364 612T404 501T418 350Q418 196 376 107T265 -2Q290 -10 311 -15T352 -24T393 -32T440
-43L426 -88ZM226 29Q289 29 329 108T369 349Q369 506 329 585T226 665Q195 665 169 645T124 586T93 487T82 349Q82 269 93 209T123 109T169 49T226 29Z" />
<glyph unicode="R" glyph-name="R" horiz-adv-x="371" d="M105 656V321H159Q219 321 253 360T288 493Q288 578 256 617T164 656H105ZM57 0V695H163Q244 695 289 646T335 494Q335 406 305 357T223 292L353 0H302L176 282H105V0H57Z" />
<glyph unicode="S" glyph-name="S" horiz-adv-x="335" d="M149 -10Q100 -10 66 4T17 36L28 79Q46 60 74 45T147 29Q177 29 198 39T234 66T254 107T261 156Q261 185 253 210T230 259T195 305T152 352Q133 371 113 393T75 441T46 495T35 557Q35 595 47 623T80 669T125
695T177 704Q220 704 247 692T292 665L282 622Q260 640 238 652T178 665Q137 665 108 642T79 563Q79 537 88 514T112 469T147 425T188 382Q210 360 231 336T270 285T297 227T308 162Q308 122 296 91T263 37T213 2T149 -10Z" />
<glyph unicode="T" glyph-name="T" horiz-adv-x="381" d="M214 656V0H166V656H24V695H357V656H214Z" />
<glyph unicode="U" glyph-name="U" horiz-adv-x="427" d="M53 695H101V206Q101 109 129 70T220 30Q280 30 305 73T331 215V695H374V218Q374 100 336 45T217 -10Q179 -10 149 2T97 39T65 105T53 204V695Z" />
<glyph unicode="V" glyph-name="V" horiz-adv-x="381" d="M193 54Q195 73 200 101T210 156L321 695H363L215 0H165L18 695H65L178 157Q184 129 187 101T191 54H193Z" />
<glyph unicode="W" glyph-name="W" horiz-adv-x="534" d="M24 695H71L131 203Q141 119 146 53H149Q152 91 156 131T169 216L249 695H292L373 216Q381 172 385 132T391 53H394Q396 91 400 126T409 203L469 695H510L424 0H362L284 496Q279 529 276 558T271 619H269Q266
587 263 558T254 496L175 0H112L24 695Z" />
<glyph unicode="X" glyph-name="X" horiz-adv-x="375" d="M186 312L63 0H20L161 351L25 695H75L190 399L307 695H350L214 359L355 0H305L186 312Z" />
<glyph unicode="Y" glyph-name="Y" horiz-adv-x="355" d="M154 0V258L16 695H67L182 314L295 695H339L202 258V0H154Z" />
<glyph unicode="Z" glyph-name="Z" horiz-adv-x="339" d="M25 0V35L264 656H39V695H314V660L75 39H314V0H25Z" />
<glyph unicode="[" glyph-name="bracketleft" horiz-adv-x="346" d="M100 733H266V693H148V-95H266V-135H100V733Z" />
<glyph unicode="\" glyph-name="backslash" horiz-adv-x="224" d="M0 715H39L224 -64H185L0 715Z" />
<glyph unicode="]" glyph-name="bracketright" horiz-adv-x="346" d="M246 733H80V693H198V-95H80V-135H246V733Z" />
<glyph unicode="^" glyph-name="asciicircum" horiz-adv-x="398" d="M199 642L73 454H30L171 695H228L368 454H325L199 642Z" />
<glyph unicode="_" glyph-name="underscore" horiz-adv-x="373" d="M0 -129H373V-165H0V-129Z" />
<glyph unicode="`" glyph-name="grave" horiz-adv-x="353" d="M195 582L131 685H181L230 582H195Z" />
<glyph unicode="a" glyph-name="a" horiz-adv-x="349" d="M155 26Q190 26 214 55T253 125V268H199Q136 268 105 238T74 140Q74 86 96 56T155 26ZM267 0Q264 10 261 25T255 68Q237 32 210 11T145 -10Q94 -10 62 28T30 136Q30 217 73 258T198 300H253V363Q253 422
232 448T169 475Q137 475 109 461T63 420L50 463Q65 483 95 498T169 514Q231 514 264 479T297 368V93Q297 67 300 41T308 0H267Z" />
<glyph unicode="b" glyph-name="b" horiz-adv-x="377" d="M193 -9Q161 -9 136 10T97 52L91 0H56V695H101V425Q109 442 119 458T144 486T175 506T213 514Q244 514 269 497T311 447T338 370T347 270Q347 130 308 61T193 -9ZM197 26Q302 26 302 266Q302 366 276 420T205
475Q188 475 173 467T145 444T120 412T101 373V99Q116 64 139 45T197 26Z" />
<glyph unicode="c" glyph-name="c" horiz-adv-x="332" d="M197 29Q222 29 240 37T272 56Q287 67 297 83L312 46Q300 30 283 18Q269 7 247 -1T196 -10Q120 -10 79 58T37 251Q37 376 78 445T197 514Q237 514 263 501T307 467L294 419Q277 442 254 459T197 476Q138
476 110 418T82 251Q82 145 109 87T197 29Z" />
<glyph unicode="d" glyph-name="d" horiz-adv-x="382" d="M180 30Q212 30 238 58T281 125V406Q265 443 244 461T188 479Q141 479 111 418T80 242Q80 142 107 86T180 30ZM283 79Q267 44 240 18T171 -9Q139 -9 114 9T72 59T45 137T35 238Q35 372 79 443T194 514Q222
514 244 500T281 462V695H326V0H289L283 79Z" />
<glyph unicode="e" glyph-name="e" horiz-adv-x="335" d="M74 244Q76 139 103 84T186 29Q211 29 230 37T262 56Q277 67 287 83L302 46Q290 30 273 18Q259 7 237 -1T185 -10Q105 -10 68 58T30 252Q30 314 41 362T71 445T117 496T176 514Q208 514 234 497T277 446T301
362T302 244H74ZM176 477Q136 477 107 427T75 279H260Q263 330 258 367T241 429T212 465T176 477Z" />
<glyph unicode="f" glyph-name="f" horiz-adv-x="232" d="M121 467V0H75V467H20V504H75V568Q75 603 83 628T104 668T134 691T170 698Q192 698 205 693T226 681L216 642Q205 651 195 656T171 661Q148 661 135 641T121 568V504H217V467H121Z" />
<glyph unicode="g" glyph-name="g" horiz-adv-x="382" d="M180 30Q212 30 238 58T281 125V408Q266 445 244 462T188 479Q139 479 110 417T80 242Q80 142 107 86T180 30ZM173 -164Q130 -164 99 -151T53 -126L66 -87Q80 -101 109 -113T173 -125Q224 -125 252 -95T281
10V74Q264 41 238 16T171 -9Q139 -9 114 9T72 59T45 137T35 238Q35 370 78 442T194 514Q223 514 247 499T284 457L289 504H326V5Q326 -40 315 -72T283 -124T235 -154T173 -164Z" />
<glyph unicode="h" glyph-name="h" horiz-adv-x="381" d="M216 476Q178 476 149 447T101 370V0H56V695H101V425H103Q107 437 117 452T142 481T177 504T224 514Q275 514 302 483T329 392V0H284V388Q284 476 216 476Z" />
<glyph unicode="i" glyph-name="i" horiz-adv-x="157" d="M79 604Q66 604 57 613T48 635Q48 648 57 657T79 667Q92 667 101 658T110 635Q110 622 101 613T79 604ZM101 504V0H56V504H101Z" />
<glyph unicode="j" glyph-name="j" horiz-adv-x="157" d="M78 604Q65 604 56 613T46 635Q46 648 55 657T78 667Q91 667 100 658T110 635Q110 622 101 613T78 604ZM101 -29Q101 -57 95 -81T75 -122T41 -148T-8 -157L-13 -116Q24 -117 40 -99T56 -24V504H101V-29Z" />
<glyph unicode="k" glyph-name="k" horiz-adv-x="332" d="M101 0H56V695H101V267L270 504H313L147 270L325 0H276L101 261V0Z" />
<glyph unicode="l" glyph-name="l" horiz-adv-x="159" d="M102 695V0H57V695H102Z" />
<glyph unicode="m" glyph-name="m" horiz-adv-x="569" d="M101 0H56V504H97L99 428H101Q106 440 116 454T140 482T173 505T216 514Q293 514 307 431H308Q313 441 323 455T347 483T380 505T423 514Q468 514 492 485T517 399V0H472V395Q472 437 459 456T416 476Q381
476 354 450T309 382V0H264V395Q264 437 252 456T209 476Q174 476 147 449T101 377V0Z" />
<glyph unicode="n" glyph-name="n" horiz-adv-x="381" d="M216 476Q178 476 149 447T101 370V0H56V504H97L99 421H101Q106 434 116 450T142 481T177 504T224 514Q275 514 302 483T329 392V0H284V388Q284 476 216 476Z" />
<glyph unicode="o" glyph-name="o" horiz-adv-x="368" d="M184 -10Q151 -10 123 6T75 55T42 135T30 249Q30 312 42 361T74 444T123 496T184 514Q217 514 245 498T293 450T326 369T338 255Q338 192 326 143T294 60T245 8T184 -10ZM184 26Q229 26 261 81T293 252Q293
312 285 354T261 424T226 464T184 477Q139 477 107 423T75 252Q75 193 83 150T107 80T141 39T184 26Z" />
<glyph unicode="p" glyph-name="p" horiz-adv-x="382" d="M194 26Q243 26 272 84T302 263Q302 363 277 419T206 475Q189 475 174 467T145 444T120 412T101 373V87Q116 56 138 41T194 26ZM190 -9Q162 -9 139 3T101 35V-156H56V504H95L99 421Q116 457 144 485T214
514Q245 514 270 496T312 446T338 368T347 267Q347 128 304 60T190 -9Z" />
<glyph unicode="q" glyph-name="q" horiz-adv-x="382" d="M281 -156V74Q264 41 238 16T171 -9Q139 -9 114 9T72 59T45 137T35 238Q35 369 78 441T194 514Q223 514 247 499T284 457L289 504H326V-156H281ZM180 30Q212 30 238 58T281 125V408Q266 445 244 462T188
479Q139 479 110 417T80 242Q80 142 107 86T180 30Z" />
<glyph unicode="r" glyph-name="r" horiz-adv-x="242" d="M221 460Q136 457 101 352V0H56V504H97L99 403H102Q108 421 118 439T144 471T178 495T221 507V460V460Z" />
<glyph unicode="s" glyph-name="s" horiz-adv-x="266" d="M121 -10Q79 -10 54 1T14 25L24 64Q42 48 63 37T120 26Q139 26 154 33T179 51T194 78T200 109Q200 138 187 162T155 208T114 251T72 295T40 344T27 402Q27 430 36 451T61 486T95 507T135 514Q172 514 195
504T232 482L219 441Q202 459 183 468T137 478Q109 478 88 460T67 409Q67 381 80 359T112 315T154 274T196 230T229 179T242 116Q242 86 232 63T206 23T167 -1T121 -10Z" />
<glyph unicode="t" glyph-name="t" horiz-adv-x="223" d="M200 6Q192 1 182 -2T156 -5Q112 -5 92 24T71 101V469H20V504H71L76 594H116V504H199V469H116V106Q116 32 161 32Q172 32 179 34T190 39L200 6V6Z" />
<glyph unicode="u" glyph-name="u" horiz-adv-x="378" d="M165 28Q203 28 230 57T277 134V504H322V0H281L279 83H277Q272 69 262 53T238 23T203 0T157 -10Q106 -10 79 25T52 129V504H97V133Q97 28 165 28Z" />
<glyph unicode="v" glyph-name="v" horiz-adv-x="330" d="M17 504H63L143 178Q153 137 158 108T165 55H168Q172 79 177 108T193 178L273 504H313L188 0H142L17 504Z" />
<glyph unicode="w" glyph-name="w" horiz-adv-x="454" d="M20 504H64L113 184Q118 150 122 118T129 51H132Q135 84 138 113T148 174L211 504H248L317 174Q324 142 328 112T336 51H339Q342 117 351 184L395 504H434L361 0H313L248 325Q242 357 238 385T231 442H229Q227
414 223 386T213 325L151 0H103L20 504Z" />
<glyph unicode="x" glyph-name="x" horiz-adv-x="333" d="M163 228L61 0H21L138 262L28 504H75L170 292L263 504H304L193 259L312 0H265L163 228Z" />
<glyph unicode="y" glyph-name="y" horiz-adv-x="333" d="M66 -160Q58 -160 52 -160T40 -158L35 -116Q41 -118 48 -119T66 -120Q92 -120 110 -96T140 -29L144 -14L20 504H65L144 175Q159 117 166 56H169Q174 88 180 117T194 175L273 504H313L183 -26Q177 -52 168
-76T145 -118T112 -148T66 -160Z" />
<glyph unicode="z" glyph-name="z" horiz-adv-x="279" d="M21 0V29L211 469H37V504H258V476L68 35H255V0H21Z" />
<glyph unicode="{" glyph-name="braceleft" horiz-adv-x="352" d="M292 -127Q262 -135 240 -135Q211 -135 191 -125T158 -97T138 -56T132 -5Q132 19 133 38T135 74T138 110T139 151Q139 176 135 198T119 236T89 263T40 277V319Q99 325 119 359T139 448Q139 469
138 487T136 522T133 559T132 604Q132 658 159 694T246 731Q257 731 268 730T292 726V688Q280 690 270 691T251 693Q229 693 215 686T192 667T181 639T177 605Q177 578 178 558T180 520T183 485T184 447Q184 427 181 405T170 362T147 325T106 299Q131 289 146 272T170
235T181 193T184 152Q184 131 183 113T181 77T178 39T177 -6Q177 -24 180 -40T191 -69T213 -89T248 -96Q268 -96 292 -89V-127Z" />
<glyph unicode="|" glyph-name="bar" horiz-adv-x="228" d="M138 733V-116H90V733H138Z" />
<glyph unicode="}" glyph-name="braceright" horiz-adv-x="352" d="M60 -127Q90 -135 112 -135Q141 -135 161 -125T194 -97T214 -56T220 -5Q220 19 219 38T217 74T214 110T213 151Q213 176 217 198T233 236T263 263T312 277V319Q253 325 233 359T213 448Q213 469
214 487T216 522T219 559T220 604Q220 658 193 694T106 731Q95 731 84 730T60 726V688Q72 690 82 691T101 693Q123 693 137 686T160 667T171 639T175 605Q175 578 174 558T172 520T169 485T168 447Q168 427 171 405T182 362T205 325T246 299Q221 289 206 272T182
235T171 193T168 152Q168 131 169 113T171 77T174 39T175 -6Q175 -24 172 -40T161 -69T139 -89T104 -96Q84 -96 60 -89V-127Z" />
<glyph unicode="~" glyph-name="asciitilde" horiz-adv-x="528" d="M60 222Q61 249 68 274T89 320T126 352T179 365Q213 365 236 351T279 320T314 288T352 274Q385 274 404 297T425 371H468Q467 344 460 319T439 273T403 241T353 229Q318 229 294 243T251 274T216
306T180 320Q145 320 126 297T104 222H60Z" />
<glyph unicode="&#xa0;" glyph-name="uni00A0" horiz-adv-x="160" />
<glyph unicode="&#xa1;" glyph-name="exclamdown" horiz-adv-x="182" d="M68 -188L75 322H112L118 -188H68ZM92 510Q105 510 113 501T122 478Q122 465 114 457T92 448Q78 448 69 456T60 478Q60 492 69 501T92 510Z" />
<glyph unicode="&#xa2;" glyph-name="cent" horiz-adv-x="332" d="M206 610V514Q242 512 266 499T307 467L294 419Q278 441 257 457T206 475V29Q229 31 246 39T274 58Q287 69 297 83L312 46Q302 31 286 20Q272 10 252 2T206 -9V-126H160V-5Q100 10 69 76T37 251Q37
360 68 426T160 509V610H206ZM82 251Q82 163 101 108T160 36V468Q120 451 101 396T82 251Z" />
<glyph unicode="&#xa3;" glyph-name="sterling" horiz-adv-x="438" d="M408 0H45V27Q85 70 104 114T124 216Q124 242 121 266T112 315H39V353H104Q95 390 87 427T79 506Q79 597 127 650T269 704Q317 704 347 693T394 668L377 627Q361 641 334 653T267 665Q195
665 161 621T126 502Q127 461 134 425T151 353H310V315H158Q167 271 167 226Q167 172 151 128T99 38H408V0Z" />
<glyph unicode="&#xa4;" glyph-name="currency" horiz-adv-x="414" d="M303 253Q284 237 259 229T208 220Q152 220 111 253L60 202L36 227L86 278Q53 319 53 374Q53 431 86 470L35 522L60 547L111 496Q131 511 155 520T208 529Q235 529 259 520T304 496L354 547L380
522L329 470Q362 431 362 374Q362 319 329 278L380 227L354 202L303 253ZM208 495Q159 495 126 462T92 374Q92 347 101 325T125 287T162 262T208 253Q232 253 253 262T289 286T314 324T323 374Q323 401 314 423T290 462T253 486T208 495Z" />
<glyph unicode="&#xa5;" glyph-name="yen" horiz-adv-x="465" d="M255 187V0H211V187H69V225H211V308H69V346H203L31 695H82L237 376L391 695H434L263 346H398V308H255V225H398V187H255Z" />
<glyph unicode="&#xa6;" glyph-name="brokenbar" horiz-adv-x="228" d="M138 733V345H90V733H138ZM138 272V-116H90V272H138Z" />
<glyph unicode="&#xa7;" glyph-name="section" horiz-adv-x="435" d="M337 267Q337 327 306 354T211 382Q99 382 99 267Q99 207 130 180T224 153Q337 153 337 267ZM202 -169Q157 -169 128 -159T75 -131L91 -95Q114 -114 142 -122T202 -131Q263 -131 292 -101T322
-20Q322 10 312 31T285 66T244 90T192 106Q120 122 85 164T50 266Q50 321 79 361T161 415Q117 435 91 468T64 555Q64 622 107 663T233 704Q278 704 307 694T360 666L344 630Q321 649 293 657T233 666Q172 666 143 636T113 555Q113 525 123 504T150 469T191 445T243
429Q306 415 345 376T385 269Q385 214 356 174T274 120Q318 100 344 67T371 -20Q371 -87 328 -128T202 -169Z" />
<glyph unicode="&#xa8;" glyph-name="dieresis" horiz-adv-x="353" d="M235 604Q223 604 215 612T206 633Q206 645 214 654T235 663Q247 663 255 654T264 633Q264 621 256 613T235 604ZM118 604Q106 604 98 612T89 633Q89 645 97 654T118 663Q130 663 138 654T147
633Q147 621 139 613T118 604Z" />
<glyph unicode="&#xa9;" glyph-name="copyright" horiz-adv-x="673" d="M336 -93Q273 -93 219 -64T126 19T63 146T40 307Q40 394 63 466T125 592T219 674T336 704Q399 704 453 675T547 592T610 467T633 307Q633 220 610 147T548 20T454 -63T336 -93ZM336 -54Q391
-54 437 -27T516 48T567 162T585 307Q585 385 567 450T516 564T437 639T336 666Q281 666 236 639T157 564T106 451T88 307Q88 229 106 163T157 48T235 -27T336 -54ZM351 129Q373 129 390 137T418 156Q431 167 441 183L456 146Q446 130 430 118Q416 107 396 99T350
90Q278 90 240 145T201 301Q201 402 239 458T351 514Q387 514 411 500T451 467L438 419Q422 442 401 459T351 476Q297 476 272 431T246 301Q246 220 271 175T351 129Z" />
<glyph unicode="&#xaa;" glyph-name="ordfeminine" horiz-adv-x="337" d="M148 349Q182 349 205 373T241 431V534H190Q130 534 101 513T72 444Q72 399 92 374T148 349ZM254 322Q252 331 249 344T243 381Q226 350 200 332T139 314Q90 314 60 347T30 440Q30 503
70 534T189 565H241V603Q241 654 221 677T162 700Q131 700 105 688T61 652L49 690Q63 707 92 720T162 734Q220 734 251 704T283 607V403Q283 380 285 358T293 322H254Z" />
<glyph unicode="&#xab;" glyph-name="guillemotleft" horiz-adv-x="421" d="M313 87L190 256L313 425H361L239 256L361 87H313ZM173 87L50 256L173 425H221L99 256L221 87H173Z" />
<glyph unicode="&#xac;" glyph-name="logicalnot" horiz-adv-x="496" d="M388 145V323H60V361H436V145H388Z" />
<glyph unicode="&#xae;" glyph-name="registered" horiz-adv-x="673" d="M336 -93Q273 -93 219 -64T126 19T63 146T40 307Q40 394 63 466T125 592T219 674T336 704Q399 704 453 675T547 592T610 467T633 307Q633 220 610 147T548 20T454 -63T336 -93ZM336 -54Q391
-54 437 -27T516 48T567 162T585 307Q585 385 567 450T516 564T437 639T336 666Q281 666 236 639T157 564T106 451T88 307Q88 229 106 163T157 48T235 -27T336 -54ZM297 470V308H320Q354 308 373 327T393 392Q393 437 375 453T321 470H297ZM332 270H297V104H250V508H321Q381
508 412 481T443 396Q443 344 425 317T377 278L453 104H404L332 270Z" />
<glyph unicode="&#xaf;" glyph-name="macron" horiz-adv-x="353" d="M106 658H247V622H106V658Z" />
<glyph unicode="&#xb0;" glyph-name="degree" horiz-adv-x="393" d="M196 351Q162 351 134 364T84 401T52 457T40 528Q40 567 51 599T84 654T133 691T196 704Q230 704 258 691T308 655T341 599T353 528Q353 490 341 458T308 402T259 365T196 351ZM196 389Q247
389 276 427T305 528Q305 591 276 628T196 666Q145 666 117 629T88 528Q88 465 116 427T196 389Z" />
<glyph unicode="&#xb1;" glyph-name="plusminus" horiz-adv-x="476" d="M262 305V119H214V305H40V344H214V530H262V344H436V305H262ZM40 0V39H436V0H40Z" />
<glyph unicode="&#xb2;" glyph-name="two.sup" horiz-adv-x="272" d="M23 315V352Q69 411 99 454T148 532T173 594T181 650Q181 685 163 702T117 720Q91 720 72 711T41 687L27 725Q38 738 61 748T117 758Q168 758 198 731T229 651Q229 620 220 590T191 526T141
450T69 354H237V315H23Z" />
<glyph unicode="&#xb3;" glyph-name="three.sup" horiz-adv-x="264" d="M111 309Q77 309 55 317T19 336L37 371Q51 361 69 355T113 348Q147 348 165 373T184 436Q184 477 165 502T106 528H84V567H105Q146 567 161 591T176 650Q176 678 162 699T113 720Q87 720
70 710T40 688L27 726Q40 738 60 748T113 758Q167 758 195 728T223 654Q223 613 207 586T156 548Q232 523 232 438Q232 380 199 345T111 309Z" />
<glyph unicode="&#xb4;" glyph-name="acute" horiz-adv-x="353" d="M170 685H220L156 582H121L170 685Z" />
<glyph unicode="&#xb6;" glyph-name="paragraph" horiz-adv-x="448" d="M388 -181H340V695H388V-181ZM224 -181V397H214Q176 397 144 406T89 434T53 480T40 545Q40 620 84 657T209 695H272V-181H224Z" />
<glyph unicode="&#xb7;" glyph-name="periodcentered" horiz-adv-x="182" d="M90 216Q77 216 69 225T60 248Q60 261 68 269T90 278Q104 278 113 270T122 248Q122 234 113 225T90 216Z" />
<glyph unicode="&#xb8;" glyph-name="cedilla" horiz-adv-x="353" d="M172 -154Q153 -154 144 -149T130 -142V-115Q134 -117 143 -121T163 -125Q201 -125 201 -95Q201 -80 192 -74T166 -68H155L166 4H195L188 -45Q217 -47 229 -61T241 -96Q241 -123 223 -138T172 -154Z" />
<glyph unicode="&#xb9;" glyph-name="one.sup" horiz-adv-x="216" d="M111 315V686L28 579V634L119 752H154V315H111Z" />
<glyph unicode="&#xba;" glyph-name="ordmasculine" horiz-adv-x="363" d="M182 312Q150 312 122 325T74 365T42 432T30 525Q30 577 41 617T73 686T122 728T182 743Q214 743 241 730T289 690T321 623T333 530Q333 478 322 438T290 369T242 327T182 312ZM182 347Q226
347 257 391T289 527Q289 575 281 609T258 664T224 696T182 707Q160 707 141 696T106 663T83 607T74 527Q74 480 82 446T106 390T140 358T182 347Z" />
<glyph unicode="&#xbb;" glyph-name="guillemotright" horiz-adv-x="421" d="M60 87L182 256L60 425H108L231 256L108 87H60ZM200 87L322 256L200 425H248L371 256L248 87H200Z" />
<glyph unicode="&#xbc;" glyph-name="onequarter" horiz-adv-x="630" d="M102 0L477 695H523L148 0H102ZM561 111V1H518V111H362V146L520 444H561V148H615V111H561ZM518 367L404 148H518V367ZM116 257V628L33 521V576L124 694H159V257H116Z" />
<glyph unicode="&#xbd;" glyph-name="onehalf" horiz-adv-x="678" d="M102 0L477 695H523L148 0H102ZM424 1V38Q470 97 500 140T549 218T574 280T582 336Q582 371 564 388T518 406Q492 406 473 397T442 373L428 411Q439 424 462 434T518 444Q569 444 599 417T630
337Q630 306 621 276T592 212T542 136T470 40H638V1H424ZM116 257V628L33 521V576L124 694H159V257H116Z" />
<glyph unicode="&#xbe;" glyph-name="threequarters" horiz-adv-x="642" d="M134 0L509 695H555L180 0H134ZM573 111V1H530V111H374V146L532 444H573V148H627V111H573ZM530 367L416 148H530V367ZM116 251Q82 251 60 259T24 278L42 313Q56 303 74 297T118 290Q152
290 170 315T189 378Q189 419 170 444T111 470H89V509H110Q151 509 166 533T181 592Q181 620 167 641T118 662Q92 662 75 652T45 630L32 668Q45 680 65 690T118 700Q172 700 200 670T228 596Q228 555 212 528T161 490Q237 465 237 380Q237 322 204 287T116 251Z"
/>
<glyph unicode="&#xbf;" glyph-name="questiondown" horiz-adv-x="371" d="M40 -30Q40 2 47 27T66 74T94 114T128 151Q145 168 160 184T187 220T206 264T213 318V340H251V317Q251 281 244 254T224 204T196 164T163 129Q148 113 134 96T110 61T93 21T87 -27Q87
-51 93 -74T114 -116T154 -146T218 -158Q257 -158 287 -148T331 -127V-166Q316 -177 287 -187T213 -197Q168 -197 136 -185T82 -150T50 -97T40 -30ZM230 509Q245 509 254 499T264 474Q264 460 255 451T230 441Q215 441 206 450T196 474Q196 489 205 499T230 509Z"
/>
<glyph unicode="&#xc0;" glyph-name="Agrave" horiz-adv-x="389" d="M114 253H269L207 538Q201 566 198 594T194 641H192Q190 622 186 594T175 539L114 253ZM277 214H106L60 0H18L170 695H220L371 0H324L277 214ZM426 747L365 840H415L462 747H426Z" />
<glyph unicode="&#xc1;" glyph-name="Aacute" horiz-adv-x="389" d="M114 253H269L207 538Q201 566 198 594T194 641H192Q190 622 186 594T175 539L114 253ZM277 214H106L60 0H18L170 695H220L371 0H324L277 214ZM228 840H278L217 747H181L228 840Z" />
<glyph unicode="&#xc2;" glyph-name="Acircumflex" horiz-adv-x="389" d="M114 253H269L207 538Q201 566 198 594T194 641H192Q190 622 186 594T175 539L114 253ZM277 214H106L60 0H18L170 695H220L371 0H324L277 214ZM191 785L139 737H105L168 817H213L276 737H241L191
785Z" />
<glyph unicode="&#xc3;" glyph-name="Atilde" horiz-adv-x="389" d="M114 253H269L207 538Q201 566 198 594T194 641H192Q190 622 186 594T175 539L114 253ZM277 214H106L60 0H18L170 695H220L371 0H324L277 214ZM112 741Q111 782 125 803T161 825Q173 825 183
818T203 803T219 787T234 780Q244 780 248 793T252 828H280Q281 787 267 766T231 744Q219 744 209 751T189 766T173 782T158 789Q148 789 144 776T140 741H112Z" />
<glyph unicode="&#xc4;" glyph-name="Adieresis" horiz-adv-x="389" d="M114 253H269L207 538Q201 566 198 594T194 641H192Q190 622 186 594T175 539L114 253ZM277 214H106L60 0H18L170 695H220L371 0H324L277 214ZM255 753Q243 753 235 761T226 782Q226 794
234 803T255 812Q267 812 275 803T284 782Q284 770 276 762T255 753ZM134 753Q122 753 114 761T105 782Q105 794 113 803T134 812Q146 812 154 803T163 782Q163 770 155 762T134 753Z" />
<glyph unicode="&#xc5;" glyph-name="Aring" horiz-adv-x="389" d="M114 253H269L207 538Q201 566 198 594T194 641H192Q190 622 186 594T175 539L114 253ZM277 214H106L60 0H18L170 695H220L371 0H324L277 214ZM192 736Q160 736 141 757T121 809Q121 840 141
861T192 882Q222 882 242 861T262 809Q262 778 243 757T192 736ZM192 764Q209 764 219 776T229 809Q229 829 219 841T192 853Q174 853 164 841T153 809Q153 789 163 777T192 764Z" />
<glyph unicode="&#xc6;" glyph-name="AE" horiz-adv-x="655" d="M354 649L174 254H354V649ZM354 215H157L59 0H10L331 695H614V656H402V387H584V348H402V39H617V0H354V215Z" />
<glyph unicode="&#xc7;" glyph-name="Ccedilla" horiz-adv-x="362" d="M233 704Q273 704 300 689T343 656L330 609Q313 632 289 648T233 665Q161 665 122 583T83 350Q83 199 121 114T233 29Q273 29 299 45T339 75L353 39Q348 34 338 26T313 9T277 -4T232 -10Q185
-10 148 14T86 84T48 196T35 347Q35 431 48 497T87 609T149 679T233 704ZM217 -154Q198 -154 189 -149T175 -142V-115Q179 -117 188 -121T208 -125Q246 -125 246 -95Q246 -80 237 -74T211 -68H200L211 4H240L233 -45Q262 -47 274 -61T286 -96Q286 -123 268 -138T217
-154Z" />
<glyph unicode="&#xc8;" glyph-name="Egrave" horiz-adv-x="358" d="M57 695H317V656H105V387H287V348H105V39H320V0H57V695ZM185 747L124 840H174L221 747H185Z" />
<glyph unicode="&#xc9;" glyph-name="Eacute" horiz-adv-x="358" d="M57 695H317V656H105V387H287V348H105V39H320V0H57V695ZM213 840H263L202 747H166L213 840Z" />
<glyph unicode="&#xca;" glyph-name="Ecircumflex" horiz-adv-x="358" d="M57 695H317V656H105V387H287V348H105V39H320V0H57V695ZM190 785L138 737H104L167 817H212L275 737H240L190 785Z" />
<glyph unicode="&#xcb;" glyph-name="Edieresis" horiz-adv-x="358" d="M57 695H317V656H105V387H287V348H105V39H320V0H57V695ZM247 753Q235 753 227 761T218 782Q218 794 226 803T247 812Q259 812 267 803T276 782Q276 770 268 762T247 753ZM126 753Q114 753
106 761T97 782Q97 794 105 803T126 812Q138 812 146 803T155 782Q155 770 147 762T126 753Z" />
<glyph unicode="&#xcc;" glyph-name="Igrave" horiz-adv-x="162" d="M105 695V0H57V695H105ZM324 747L263 840H313L360 747H324Z" />
<glyph unicode="&#xcd;" glyph-name="Iacute" horiz-adv-x="162" d="M105 695V0H57V695H105ZM368 840H418L357 747H321L368 840Z" />
<glyph unicode="&#xce;" glyph-name="Icircumflex" horiz-adv-x="162" d="M105 695V0H57V695H105ZM337 785L285 737H251L314 817H359L422 737H387L337 785Z" />
<glyph unicode="&#xcf;" glyph-name="Idieresis" horiz-adv-x="162" d="M105 695V0H57V695H105ZM398 753Q386 753 378 761T369 782Q369 794 377 803T398 812Q410 812 418 803T427 782Q427 770 419 762T398 753ZM277 753Q265 753 257 761T248 782Q248 794 256 803T277
812Q289 812 297 803T306 782Q306 770 298 762T277 753Z" />
<glyph unicode="&#xd0;" glyph-name="Eth" horiz-adv-x="461" d="M90 0V337H20V375H90V695H174Q226 695 272 680T352 627T406 529T426 375Q426 285 407 215T354 97T271 25T163 0H90ZM164 39Q212 39 251 60T318 122T361 226T377 370Q377 453 361 508T318 596T253
642T174 656H138V375H248V337H138V39H164Z" />
<glyph unicode="&#xd1;" glyph-name="Ntilde" horiz-adv-x="429" d="M289 203Q302 166 311 136T331 69H335Q333 107 332 149T331 235V695H372V0H316L138 507Q125 544 116 574T96 641H92Q94 603 96 570T98 493V0H57V695H116L289 203V203ZM142 741Q141 782 155 803T191
825Q203 825 213 818T233 803T249 787T264 780Q274 780 278 793T282 828H310Q311 787 297 766T261 744Q249 744 239 751T219 766T203 782T188 789Q178 789 174 776T170 741H142Z" />
<glyph unicode="&#xd2;" glyph-name="Ograve" horiz-adv-x="453" d="M226 -10Q184 -10 149 13T88 81T49 193T35 347Q35 432 49 498T88 610T148 680T226 704Q269 704 304 681T364 613T404 503T418 352Q418 265 404 198T365 84T304 14T226 -10ZM226 29Q288 29 329
108T370 349Q370 427 359 486T329 585T284 645T226 665Q164 665 124 586T83 349Q83 269 94 209T124 109T169 49T226 29ZM209 747L148 840H198L245 747H209Z" />
<glyph unicode="&#xd3;" glyph-name="Oacute" horiz-adv-x="453" d="M226 -10Q184 -10 149 13T88 81T49 193T35 347Q35 432 49 498T88 610T148 680T226 704Q269 704 304 681T364 613T404 503T418 352Q418 265 404 198T365 84T304 14T226 -10ZM226 29Q288 29 329
108T370 349Q370 427 359 486T329 585T284 645T226 665Q164 665 124 586T83 349Q83 269 94 209T124 109T169 49T226 29ZM257 840H307L246 747H210L257 840Z" />
<glyph unicode="&#xd4;" glyph-name="Ocircumflex" horiz-adv-x="453" d="M226 -10Q184 -10 149 13T88 81T49 193T35 347Q35 432 49 498T88 610T148 680T226 704Q269 704 304 681T364 613T404 503T418 352Q418 265 404 198T365 84T304 14T226 -10ZM226 29Q288
29 329 108T370 349Q370 427 359 486T329 585T284 645T226 665Q164 665 124 586T83 349Q83 269 94 209T124 109T169 49T226 29ZM222 785L170 737H136L199 817H244L307 737H272L222 785Z" />
<glyph unicode="&#xd5;" glyph-name="Otilde" horiz-adv-x="453" d="M226 -10Q184 -10 149 13T88 81T49 193T35 347Q35 432 49 498T88 610T148 680T226 704Q269 704 304 681T364 613T404 503T418 352Q418 265 404 198T365 84T304 14T226 -10ZM226 29Q288 29 329
108T370 349Q370 427 359 486T329 585T284 645T226 665Q164 665 124 586T83 349Q83 269 94 209T124 109T169 49T226 29ZM135 741Q134 782 148 803T184 825Q196 825 206 818T226 803T242 787T257 780Q267 780 271 793T275 828H303Q304 787 290 766T254 744Q242 744
232 751T212 766T196 782T181 789Q171 789 167 776T163 741H135Z" />
<glyph unicode="&#xd6;" glyph-name="Odieresis" horiz-adv-x="453" d="M226 -10Q184 -10 149 13T88 81T49 193T35 347Q35 432 49 498T88 610T148 680T226 704Q269 704 304 681T364 613T404 503T418 352Q418 265 404 198T365 84T304 14T226 -10ZM226 29Q288 29
329 108T370 349Q370 427 359 486T329 585T284 645T226 665Q164 665 124 586T83 349Q83 269 94 209T124 109T169 49T226 29ZM287 753Q275 753 267 761T258 782Q258 794 266 803T287 812Q299 812 307 803T316 782Q316 770 308 762T287 753ZM166 753Q154 753 146
761T137 782Q137 794 145 803T166 812Q178 812 186 803T195 782Q195 770 187 762T166 753Z" />
<glyph unicode="&#xd7;" glyph-name="multiply" horiz-adv-x="494" d="M247 283L103 126L74 155L219 314L70 477L99 506L247 344L395 506L424 477L275 314L420 155L391 126L247 283Z" />
<glyph unicode="&#xd8;" glyph-name="Oslash" horiz-adv-x="453" d="M52 -68L100 62Q69 107 52 178T35 347Q35 432 49 498T88 610T148 680T226 704Q281 704 322 666L354 752H396L352 632Q383 587 400 517T418 352Q418 265 404 198T365 84T304 14T226 -10Q172 -10
129 28L94 -68H52ZM226 29Q288 29 329 108T370 349Q370 424 360 481T332 578L146 72Q179 29 226 29ZM83 349Q83 198 120 116L306 622Q273 665 226 665Q164 665 124 586T83 349Z" />
<glyph unicode="&#xd9;" glyph-name="Ugrave" horiz-adv-x="427" d="M53 695H101V206Q101 109 129 70T220 30Q280 30 305 73T331 215V695H374V218Q374 100 336 45T217 -10Q179 -10 149 2T97 39T65 105T53 204V695ZM206 748L145 841H195L242 748H206Z" />
<glyph unicode="&#xda;" glyph-name="Uacute" horiz-adv-x="427" d="M53 695H101V206Q101 109 129 70T220 30Q280 30 305 73T331 215V695H374V218Q374 100 336 45T217 -10Q179 -10 149 2T97 39T65 105T53 204V695ZM244 841H294L233 748H197L244 841Z" />
<glyph unicode="&#xdb;" glyph-name="Ucircumflex" horiz-adv-x="427" d="M53 695H101V206Q101 109 129 70T220 30Q280 30 305 73T331 215V695H374V218Q374 100 336 45T217 -10Q179 -10 149 2T97 39T65 105T53 204V695ZM216 786L164 738H130L193 818H238L301 738H266L216
786Z" />
<glyph unicode="&#xdc;" glyph-name="Udieresis" horiz-adv-x="427" d="M53 695H101V206Q101 109 129 70T220 30Q280 30 305 73T331 215V695H374V218Q374 100 336 45T217 -10Q179 -10 149 2T97 39T65 105T53 204V695ZM275 753Q263 753 255 761T246 782Q246 794
254 803T275 812Q287 812 295 803T304 782Q304 770 296 762T275 753ZM154 753Q142 753 134 761T125 782Q125 794 133 803T154 812Q166 812 174 803T183 782Q183 770 175 762T154 753Z" />
<glyph unicode="&#xdd;" glyph-name="Yacute" horiz-adv-x="355" d="M154 0V258L16 695H67L182 314L295 695H339L202 258V0H154ZM210 840H260L199 747H163L210 840Z" />
<glyph unicode="&#xde;" glyph-name="Thorn" horiz-adv-x="417" d="M105 514V180H148Q189 180 223 189T281 220T319 275T333 357Q333 439 287 476T156 514H105ZM105 141V0H57V695H105V553H156Q261 553 321 507T382 360Q382 303 365 262T317 194T243 154T148 141H105Z" />
<glyph unicode="&#xdf;" glyph-name="germandbls" horiz-adv-x="413" d="M388 127Q388 64 353 27T262 -10Q227 -10 202 -2T159 19V59Q177 47 203 38T258 29Q302 29 323 56T344 125Q344 152 332 169T300 201T260 226T219 254T188 291T175 346Q175 382 192 406T230
451T268 498T285 563Q285 614 260 640T196 667Q148 667 126 630T104 527V0H56V528Q56 609 91 657T196 705Q229 705 254 694T296 664T321 619T330 564Q330 519 313 491T275 440T237 397T219 349Q219 323 231 306T263 276T303 252T344 224T375 185T388 127Z" />
<glyph unicode="&#xe0;" glyph-name="agrave" horiz-adv-x="349" d="M155 26Q190 26 214 55T253 125V268H199Q136 268 105 238T74 140Q74 86 96 56T155 26ZM267 0Q264 10 261 25T255 68Q237 32 210 11T145 -10Q94 -10 62 28T30 136Q30 217 73 258T198 300H253V363Q253
422 232 448T169 475Q137 475 109 461T63 420L50 463Q65 483 95 498T169 514Q231 514 264 479T297 368V93Q297 67 300 41T308 0H267ZM416 582L352 685H402L451 582H416Z" />
<glyph unicode="&#xe1;" glyph-name="aacute" horiz-adv-x="349" d="M155 26Q190 26 214 55T253 125V268H199Q136 268 105 238T74 140Q74 86 96 56T155 26ZM267 0Q264 10 261 25T255 68Q237 32 210 11T145 -10Q94 -10 62 28T30 136Q30 217 73 258T198 300H253V363Q253
422 232 448T169 475Q137 475 109 461T63 420L50 463Q65 483 95 498T169 514Q231 514 264 479T297 368V93Q297 67 300 41T308 0H267ZM195 685H245L181 582H146L195 685Z" />
<glyph unicode="&#xe2;" glyph-name="acircumflex" horiz-adv-x="349" d="M155 26Q190 26 214 55T253 125V268H199Q136 268 105 238T74 140Q74 86 96 56T155 26ZM267 0Q264 10 261 25T255 68Q237 32 210 11T145 -10Q94 -10 62 28T30 136Q30 217 73 258T198 300H253V363Q253
422 232 448T169 475Q137 475 109 461T63 420L50 463Q65 483 95 498T169 514Q231 514 264 479T297 368V93Q297 67 300 41T308 0H267ZM422 651L371 582H339L399 683H444L504 582H471L422 651Z" />
<glyph unicode="&#xe3;" glyph-name="atilde" horiz-adv-x="349" d="M155 26Q190 26 214 55T253 125V268H199Q136 268 105 238T74 140Q74 86 96 56T155 26ZM267 0Q264 10 261 25T255 68Q237 32 210 11T145 -10Q94 -10 62 28T30 136Q30 217 73 258T198 300H253V363Q253
422 232 448T169 475Q137 475 109 461T63 420L50 463Q65 483 95 498T169 514Q231 514 264 479T297 368V93Q297 67 300 41T308 0H267ZM335 594Q334 635 349 656T389 678Q402 678 413 671T435 656T453 640T469 633Q481 633 486 646T492 681H520Q521 640 506 619T466
597Q452 597 441 604T420 619T402 635T386 642Q374 642 369 629T363 594H335Z" />
<glyph unicode="&#xe4;" glyph-name="adieresis" horiz-adv-x="349" d="M155 26Q190 26 214 55T253 125V268H199Q136 268 105 238T74 140Q74 86 96 56T155 26ZM267 0Q264 10 261 25T255 68Q237 32 210 11T145 -10Q94 -10 62 28T30 136Q30 217 73 258T198 300H253V363Q253
422 232 448T169 475Q137 475 109 461T63 420L50 463Q65 483 95 498T169 514Q231 514 264 479T297 368V93Q297 67 300 41T308 0H267ZM488 604Q476 604 468 612T459 633Q459 645 467 654T488 663Q500 663 508 654T517 633Q517 621 509 613T488 604ZM371 604Q359
604 351 612T342 633Q342 645 350 654T371 663Q383 663 391 654T400 633Q400 621 392 613T371 604Z" />
<glyph unicode="&#xe5;" glyph-name="aring" horiz-adv-x="349" d="M155 26Q190 26 214 55T253 125V268H199Q136 268 105 238T74 140Q74 86 96 56T155 26ZM267 0Q264 10 261 25T255 68Q237 32 210 11T145 -10Q94 -10 62 28T30 136Q30 217 73 258T198 300H253V363Q253
422 232 448T169 475Q137 475 109 461T63 420L50 463Q65 483 95 498T169 514Q231 514 264 479T297 368V93Q297 67 300 41T308 0H267ZM422 570Q390 570 371 591T351 643Q351 674 371 695T422 716Q452 716 472 695T492 643Q492 612 473 591T422 570ZM422 599Q439
599 449 611T459 643Q459 663 449 675T422 687Q404 687 394 675T383 643Q383 623 393 611T422 599Z" />
<glyph unicode="&#xe6;" glyph-name="ae" horiz-adv-x="557" d="M408 -10Q359 -10 324 19T275 106Q270 87 261 67T237 29T200 1T148 -10Q91 -10 61 28T30 136Q30 217 73 258T198 300H253V363Q253 422 232 448T169 475Q137 475 109 461T63 420L50 463Q65 483 95
498T169 514Q267 514 287 425Q305 469 334 491T399 514Q431 514 457 497T500 446T524 362T525 244H297Q299 139 326 84T408 29H409Q434 29 453 37T485 56Q500 67 510 83L525 46Q513 30 496 18Q482 7 460 -1T408 -10ZM399 477Q359 477 330 427T298 279H483Q486 330
481 367T464 429T435 465T399 477ZM155 26Q185 26 204 43T234 89T249 157T253 240V268H199Q136 268 105 238T74 140Q74 86 96 56T155 26Z" />
<glyph unicode="&#xe7;" glyph-name="ccedilla" horiz-adv-x="332" d="M197 29Q222 29 240 37T272 56Q287 67 297 83L312 46Q300 30 283 18Q269 7 247 -1T196 -10Q120 -10 79 58T37 251Q37 376 78 445T197 514Q237 514 263 501T307 467L294 419Q277 442 254 459T197
476Q138 476 110 418T82 251Q82 145 109 87T197 29ZM424 -154Q405 -154 396 -149T382 -142V-115Q386 -117 395 -121T415 -125Q453 -125 453 -95Q453 -80 444 -74T418 -68H407L418 4H447L440 -45Q469 -47 481 -61T493 -96Q493 -123 475 -138T424 -154Z" />
<glyph unicode="&#xe8;" glyph-name="egrave" horiz-adv-x="335" d="M74 244Q76 139 103 84T186 29Q211 29 230 37T262 56Q277 67 287 83L302 46Q290 30 273 18Q259 7 237 -1T185 -10Q105 -10 68 58T30 252Q30 314 41 362T71 445T117 496T176 514Q208 514 234
497T277 446T301 362T302 244H74ZM176 477Q136 477 107 427T75 279H260Q263 330 258 367T241 429T212 465T176 477ZM415 582L351 685H401L450 582H415Z" />
<glyph unicode="&#xe9;" glyph-name="eacute" horiz-adv-x="335" d="M74 244Q76 139 103 84T186 29Q211 29 230 37T262 56Q277 67 287 83L302 46Q290 30 273 18Q259 7 237 -1T185 -10Q105 -10 68 58T30 252Q30 314 41 362T71 445T117 496T176 514Q208 514 234
497T277 446T301 362T302 244H74ZM176 477Q136 477 107 427T75 279H260Q263 330 258 367T241 429T212 465T176 477ZM207 685H257L193 582H158L207 685Z" />
<glyph unicode="&#xea;" glyph-name="ecircumflex" horiz-adv-x="335" d="M74 244Q76 139 103 84T186 29Q211 29 230 37T262 56Q277 67 287 83L302 46Q290 30 273 18Q259 7 237 -1T185 -10Q105 -10 68 58T30 252Q30 314 41 362T71 445T117 496T176 514Q208 514
234 497T277 446T301 362T302 244H74ZM176 477Q136 477 107 427T75 279H260Q263 330 258 367T241 429T212 465T176 477ZM173 651L122 582H90L150 683H195L255 582H222L173 651Z" />
<glyph unicode="&#xeb;" glyph-name="edieresis" horiz-adv-x="335" d="M74 244Q76 139 103 84T186 29Q211 29 230 37T262 56Q277 67 287 83L302 46Q290 30 273 18Q259 7 237 -1T185 -10Q105 -10 68 58T30 252Q30 314 41 362T71 445T117 496T176 514Q208 514 234
497T277 446T301 362T302 244H74ZM176 477Q136 477 107 427T75 279H260Q263 330 258 367T241 429T212 465T176 477ZM488 604Q476 604 468 612T459 633Q459 645 467 654T488 663Q500 663 508 654T517 633Q517 621 509 613T488 604ZM371 604Q359 604 351 612T342
633Q342 645 350 654T371 663Q383 663 391 654T400 633Q400 621 392 613T371 604Z" />
<glyph unicode="&#xec;" glyph-name="igrave" horiz-adv-x="157" d="M101 504V0H56V504H101ZM66 582L2 685H52L101 582H66Z" />
<glyph unicode="&#xed;" glyph-name="iacute" horiz-adv-x="157" d="M101 504V0H56V504H101ZM364 685H414L350 582H315L364 685Z" />
<glyph unicode="&#xee;" glyph-name="icircumflex" horiz-adv-x="157" d="M101 504V0H56V504H101ZM331 651L280 582H248L308 683H353L413 582H380L331 651Z" />
<glyph unicode="&#xef;" glyph-name="idieresis" horiz-adv-x="157" d="M101 504V0H56V504H101ZM391 604Q379 604 371 612T362 633Q362 645 370 654T391 663Q403 663 411 654T420 633Q420 621 412 613T391 604ZM274 604Q262 604 254 612T245 633Q245 645 253 654T274
663Q286 663 294 654T303 633Q303 621 295 613T274 604Z" />
<glyph unicode="&#xf0;" glyph-name="eth" horiz-adv-x="367" d="M182 -10Q150 -10 122 6T74 56T42 138T30 252Q30 316 42 365T76 447T124 497T183 514Q214 514 235 501T276 458Q259 501 236 536T181 601L79 544L71 578L154 626Q135 642 114 657T70 688V695H114Q134
683 152 671T188 645L264 688L272 653L215 621Q274 564 305 486T337 297Q337 144 294 67T182 -10ZM74 252Q74 141 104 84T182 26Q206 26 226 41T261 88T284 169T293 289Q293 313 292 335T287 380Q264 434 241 455T183 476Q132 476 103 416T74 252Z" />
<glyph unicode="&#xf1;" glyph-name="ntilde" horiz-adv-x="381" d="M216 476Q178 476 149 447T101 370V0H56V504H97L99 421H101Q106 434 116 450T142 481T177 504T224 514Q275 514 302 483T329 392V0H284V388Q284 476 216 476ZM101 594Q100 635 115 656T155 678Q168
678 179 671T201 656T219 640T235 633Q247 633 252 646T258 681H286Q287 640 272 619T232 597Q218 597 207 604T186 619T168 635T152 642Q140 642 135 629T129 594H101Z" />
<glyph unicode="&#xf2;" glyph-name="ograve" horiz-adv-x="368" d="M184 -10Q151 -10 123 6T75 55T42 135T30 249Q30 312 42 361T74 444T123 496T184 514Q217 514 245 498T293 450T326 369T338 255Q338 192 326 143T294 60T245 8T184 -10ZM184 26Q229 26 261
81T293 252Q293 312 285 354T261 424T226 464T184 477Q139 477 107 423T75 252Q75 193 83 150T107 80T141 39T184 26ZM429 582L365 685H415L464 582H429Z" />
<glyph unicode="&#xf3;" glyph-name="oacute" horiz-adv-x="368" d="M184 -10Q151 -10 123 6T75 55T42 135T30 249Q30 312 42 361T74 444T123 496T184 514Q217 514 245 498T293 450T326 369T338 255Q338 192 326 143T294 60T245 8T184 -10ZM184 26Q229 26 261
81T293 252Q293 312 285 354T261 424T226 464T184 477Q139 477 107 423T75 252Q75 193 83 150T107 80T141 39T184 26ZM218 685H268L204 582H169L218 685Z" />
<glyph unicode="&#xf4;" glyph-name="ocircumflex" horiz-adv-x="368" d="M184 -10Q151 -10 123 6T75 55T42 135T30 249Q30 312 42 361T74 444T123 496T184 514Q217 514 245 498T293 450T326 369T338 255Q338 192 326 143T294 60T245 8T184 -10ZM184 26Q229 26
261 81T293 252Q293 312 285 354T261 424T226 464T184 477Q139 477 107 423T75 252Q75 193 83 150T107 80T141 39T184 26ZM180 651L129 582H97L157 683H202L262 582H229L180 651Z" />
<glyph unicode="&#xf5;" glyph-name="otilde" horiz-adv-x="368" d="M184 -10Q151 -10 123 6T75 55T42 135T30 249Q30 312 42 361T74 444T123 496T184 514Q217 514 245 498T293 450T326 369T338 255Q338 192 326 143T294 60T245 8T184 -10ZM184 26Q229 26 261
81T293 252Q293 312 285 354T261 424T226 464T184 477Q139 477 107 423T75 252Q75 193 83 150T107 80T141 39T184 26ZM92 594Q91 635 106 656T146 678Q159 678 170 671T192 656T210 640T226 633Q238 633 243 646T249 681H277Q278 640 263 619T223 597Q209 597 198
604T177 619T159 635T143 642Q131 642 126 629T120 594H92Z" />
<glyph unicode="&#xf6;" glyph-name="odieresis" horiz-adv-x="368" d="M184 -10Q151 -10 123 6T75 55T42 135T30 249Q30 312 42 361T74 444T123 496T184 514Q217 514 245 498T293 450T326 369T338 255Q338 192 326 143T294 60T245 8T184 -10ZM184 26Q229 26 261
81T293 252Q293 312 285 354T261 424T226 464T184 477Q139 477 107 423T75 252Q75 193 83 150T107 80T141 39T184 26ZM247 604Q235 604 227 612T218 633Q218 645 226 654T247 663Q259 663 267 654T276 633Q276 621 268 613T247 604ZM130 604Q118 604 110 612T101
633Q101 645 109 654T130 663Q142 663 150 654T159 633Q159 621 151 613T130 604Z" />
<glyph unicode="&#xf7;" glyph-name="divide" horiz-adv-x="466" d="M231 107Q218 107 210 116T201 139Q201 152 209 160T231 169Q245 169 254 161T263 139Q263 125 254 116T231 107ZM231 440Q218 440 210 449T201 472Q201 485 209 493T231 502Q245 502 254 494T263
472Q263 458 254 449T231 440ZM40 295V334H426V295H40Z" />
<glyph unicode="&#xf8;" glyph-name="oslash" horiz-adv-x="368" d="M42 -48L81 44Q57 76 44 127T30 249Q30 312 42 361T74 444T123 496T184 514Q233 514 268 480L298 551H335L292 451Q313 419 325 370T338 255Q338 192 326 143T294 60T245 8T184 -10Q140 -10
107 17L79 -48H42ZM75 252Q75 198 82 158T101 91L250 440Q223 477 184 477Q139 477 107 423T75 252ZM184 26Q229 26 261 81T293 252Q293 301 288 338T271 402L123 55Q149 26 184 26Z" />
<glyph unicode="&#xf9;" glyph-name="ugrave" horiz-adv-x="378" d="M165 28Q203 28 230 57T277 134V504H322V0H281L279 83H277Q272 69 262 53T238 23T203 0T157 -10Q106 -10 79 25T52 129V504H97V133Q97 28 165 28ZM436 582L372 685H422L471 582H436Z" />
<glyph unicode="&#xfa;" glyph-name="uacute" horiz-adv-x="378" d="M165 28Q203 28 230 57T277 134V504H322V0H281L279 83H277Q272 69 262 53T238 23T203 0T157 -10Q106 -10 79 25T52 129V504H97V133Q97 28 165 28ZM225 685H275L211 582H176L225 685Z" />
<glyph unicode="&#xfb;" glyph-name="ucircumflex" horiz-adv-x="378" d="M165 28Q203 28 230 57T277 134V504H322V0H281L279 83H277Q272 69 262 53T238 23T203 0T157 -10Q106 -10 79 25T52 129V504H97V133Q97 28 165 28ZM185 651L134 582H102L162 683H207L267
582H234L185 651Z" />
<glyph unicode="&#xfc;" glyph-name="udieresis" horiz-adv-x="378" d="M165 28Q203 28 230 57T277 134V504H322V0H281L279 83H277Q272 69 262 53T238 23T203 0T157 -10Q106 -10 79 25T52 129V504H97V133Q97 28 165 28ZM247 604Q235 604 227 612T218 633Q218 645
226 654T247 663Q259 663 267 654T276 633Q276 621 268 613T247 604ZM130 604Q118 604 110 612T101 633Q101 645 109 654T130 663Q142 663 150 654T159 633Q159 621 151 613T130 604Z" />
<glyph unicode="&#xfd;" glyph-name="yacute" horiz-adv-x="333" d="M66 -160Q58 -160 52 -160T40 -158L35 -116Q41 -118 48 -119T66 -120Q92 -120 110 -96T140 -29L144 -14L20 504H65L144 175Q159 117 166 56H169Q174 88 180 117T194 175L273 504H313L183 -26Q177
-52 168 -76T145 -118T112 -148T66 -160ZM198 685H248L184 582H149L198 685Z" />
<glyph unicode="&#xfe;" glyph-name="thorn" horiz-adv-x="382" d="M194 26Q243 26 272 84T302 263Q302 363 277 419T206 475Q189 475 174 467T145 444T120 412T101 373V87Q116 56 138 41T194 26ZM190 -9Q162 -9 139 3T101 35V-156H56V695H101V425Q109 442 120
458T145 486T176 506T214 514Q245 514 270 496T312 446T338 368T347 267Q347 128 304 60T190 -9Z" />
<glyph unicode="&#xff;" glyph-name="ydieresis" horiz-adv-x="333" d="M66 -160Q58 -160 52 -160T40 -158L35 -116Q41 -118 48 -119T66 -120Q92 -120 110 -96T140 -29L144 -14L20 504H65L144 175Q159 117 166 56H169Q174 88 180 117T194 175L273 504H313L183
-26Q177 -52 168 -76T145 -118T112 -148T66 -160ZM483 604Q471 604 463 612T454 633Q454 645 462 654T483 663Q495 663 503 654T512 633Q512 621 504 613T483 604ZM366 604Q354 604 346 612T337 633Q337 645 345 654T366 663Q378 663 386 654T395 633Q395 621 387
613T366 604Z" />
<glyph unicode="&#x100;" glyph-name="Amacron" horiz-adv-x="389" d="M114 253H269L207 538Q201 566 198 594T194 641H192Q190 622 186 594T175 539L114 253ZM277 214H106L60 0H18L170 695H220L371 0H324L277 214ZM113 792H270V757H113V792Z" />
<glyph unicode="&#x101;" glyph-name="amacron" horiz-adv-x="349" d="M155 26Q190 26 214 55T253 125V268H199Q136 268 105 238T74 140Q74 86 96 56T155 26ZM267 0Q264 10 261 25T255 68Q237 32 210 11T145 -10Q94 -10 62 28T30 136Q30 217 73 258T198 300H253V363Q253
422 232 448T169 475Q137 475 109 461T63 420L50 463Q65 483 95 498T169 514Q231 514 264 479T297 368V93Q297 67 300 41T308 0H267ZM349 658H490V622H349V658Z" />
<glyph unicode="&#x102;" glyph-name="Abreve" horiz-adv-x="389" d="M114 253H269L207 538Q201 566 198 594T194 641H192Q190 622 186 594T175 539L114 253ZM277 214H106L60 0H18L170 695H220L371 0H324L277 214ZM194 743Q153 743 134 769T112 830H145Q147 811
157 795T194 779Q220 779 229 795T241 830H274Q273 796 254 770T194 743Z" />
<glyph unicode="&#x103;" glyph-name="abreve" horiz-adv-x="349" d="M155 26Q190 26 214 55T253 125V268H199Q136 268 105 238T74 140Q74 86 96 56T155 26ZM267 0Q264 10 261 25T255 68Q237 32 210 11T145 -10Q94 -10 62 28T30 136Q30 217 73 258T198 300H253V363Q253
422 232 448T169 475Q137 475 109 461T63 420L50 463Q65 483 95 498T169 514Q231 514 264 479T297 368V93Q297 67 300 41T308 0H267ZM421 581Q380 581 361 609T340 680H372Q374 654 384 636T421 617Q447 617 456 635T468 680H500Q499 638 481 610T421 581Z" />
<glyph unicode="&#x104;" glyph-name="Aogonek" horiz-adv-x="389" d="M341 -158Q311 -158 291 -142T270 -95Q270 -66 288 -43T325 -5L277 214H106L60 0H18L170 695H220L371 0Q345 -17 330 -43T314 -89Q314 -125 349 -125Q357 -125 362 -124T373 -120V-152Q368
-154 360 -156T341 -158ZM114 253H269L207 538Q201 566 198 594T194 641H192Q190 622 186 594T175 539L114 253Z" />
<glyph unicode="&#x105;" glyph-name="aogonek" horiz-adv-x="349" d="M278 -158Q248 -158 228 -142T207 -95Q207 -80 213 -66T228 -39T247 -17T267 0Q264 10 261 25T255 68Q237 32 210 11T145 -10Q94 -10 62 28T30 136Q30 217 73 258T198 300H253V363Q253 422
232 448T169 475Q137 475 109 461T63 420L50 463Q65 483 95 498T169 514Q231 514 264 479T297 368V93Q297 67 300 41T308 0Q282 -17 267 -43T251 -89Q251 -125 286 -125Q294 -125 299 -124T310 -120V-152Q305 -154 297 -156T278 -158ZM155 26Q190 26 214 55T253
125V268H199Q136 268 105 238T74 140Q74 86 96 56T155 26Z" />
<glyph unicode="&#x106;" glyph-name="Cacute" horiz-adv-x="362" d="M233 704Q273 704 300 689T343 656L330 609Q313 632 289 648T233 665Q161 665 122 583T83 350Q83 199 121 114T233 29Q273 29 299 45T339 75L353 39Q348 34 338 26T313 9T277 -4T232 -10Q185
-10 148 14T86 84T48 196T35 347Q35 431 48 497T87 609T149 679T233 704ZM259 840H309L248 747H212L259 840Z" />
<glyph unicode="&#x107;" glyph-name="cacute" horiz-adv-x="332" d="M197 29Q222 29 240 37T272 56Q287 67 297 83L312 46Q300 30 283 18Q269 7 247 -1T196 -10Q120 -10 79 58T37 251Q37 376 78 445T197 514Q237 514 263 501T307 467L294 419Q277 442 254 459T197
476Q138 476 110 418T82 251Q82 145 109 87T197 29ZM223 685H273L209 582H174L223 685Z" />
<glyph unicode="&#x108;" glyph-name="Ccircumflex" horiz-adv-x="362" d="M233 704Q273 704 300 689T343 656L330 609Q313 632 289 648T233 665Q161 665 122 583T83 350Q83 199 121 114T233 29Q273 29 299 45T339 75L353 39Q348 34 338 26T313 9T277 -4T232 -10Q185
-10 148 14T86 84T48 196T35 347Q35 431 48 497T87 609T149 679T233 704ZM228 785L176 737H142L205 817H250L313 737H278L228 785Z" />
<glyph unicode="&#x109;" glyph-name="ccircumflex" horiz-adv-x="332" d="M197 29Q222 29 240 37T272 56Q287 67 297 83L312 46Q300 30 283 18Q269 7 247 -1T196 -10Q120 -10 79 58T37 251Q37 376 78 445T197 514Q237 514 263 501T307 467L294 419Q277 442 254
459T197 476Q138 476 110 418T82 251Q82 145 109 87T197 29ZM194 651L143 582H111L171 683H216L276 582H243L194 651Z" />
<glyph unicode="&#x10a;" glyph-name="Cdotaccent" horiz-adv-x="362" d="M233 704Q273 704 300 689T343 656L330 609Q313 632 289 648T233 665Q161 665 122 583T83 350Q83 199 121 114T233 29Q273 29 299 45T339 75L353 39Q348 34 338 26T313 9T277 -4T232 -10Q185
-10 148 14T86 84T48 196T35 347Q35 431 48 497T87 609T149 679T233 704ZM177 753Q164 753 155 762T146 784Q146 797 155 806T177 816Q190 816 199 807T208 784Q208 771 199 762T177 753Z" />
<glyph unicode="&#x10b;" glyph-name="cdotaccent" horiz-adv-x="332" d="M197 29Q222 29 240 37T272 56Q287 67 297 83L312 46Q300 30 283 18Q269 7 247 -1T196 -10Q120 -10 79 58T37 251Q37 376 78 445T197 514Q237 514 263 501T307 467L294 419Q277 442 254
459T197 476Q138 476 110 418T82 251Q82 145 109 87T197 29ZM192 604Q179 604 170 613T161 635Q161 648 170 657T192 667Q205 667 214 658T223 635Q223 622 214 613T192 604Z" />
<glyph unicode="&#x10c;" glyph-name="Ccaron" horiz-adv-x="362" d="M233 704Q273 704 300 689T343 656L330 609Q313 632 289 648T233 665Q161 665 122 583T83 350Q83 199 121 114T233 29Q273 29 299 45T339 75L353 39Q348 34 338 26T313 9T277 -4T232 -10Q185
-10 148 14T86 84T48 196T35 347Q35 431 48 497T87 609T149 679T233 704ZM212 769L264 817H298L235 737H190L127 817H162L212 769Z" />
<glyph unicode="&#x10d;" glyph-name="ccaron" horiz-adv-x="332" d="M197 29Q222 29 240 37T272 56Q287 67 297 83L312 46Q300 30 283 18Q269 7 247 -1T196 -10Q120 -10 79 58T37 251Q37 376 78 445T197 514Q237 514 263 501T307 467L294 419Q277 442 254 459T197
476Q138 476 110 418T82 251Q82 145 109 87T197 29ZM189 614L240 683H272L212 582H167L107 683H140L189 614Z" />
<glyph unicode="&#x10e;" glyph-name="Dcaron" horiz-adv-x="428" d="M57 695H141Q193 695 239 680T319 627T373 529T393 375Q393 285 374 215T321 97T238 25T130 0H57V695ZM105 656V39H131Q179 39 218 60T285 122T328 226T344 370Q344 453 328 508T285 596T220
642T141 656H105ZM180 769L232 817H266L203 737H158L95 817H130L180 769Z" />
<glyph unicode="&#x10f;" glyph-name="dcaron" horiz-adv-x="382" d="M180 30Q212 30 238 58T281 125V406Q265 443 244 461T188 479Q141 479 111 418T80 242Q80 142 107 86T180 30ZM283 79Q267 44 240 18T171 -9Q139 -9 114 9T72 59T45 137T35 238Q35 372 79 443T194
514Q222 514 244 500T281 462V695H326V0H289L283 79ZM380 572L385 695H427L411 572H380Z" />
<glyph unicode="&#x110;" glyph-name="Dcroat" horiz-adv-x="461" d="M90 0V337H20V375H90V695H174Q226 695 272 680T352 627T406 529T426 375Q426 285 407 215T354 97T271 25T163 0H90ZM164 39Q212 39 251 60T318 122T361 226T377 370Q377 453 361 508T318 596T253
642T174 656H138V375H248V337H138V39H164Z" />
<glyph unicode="&#x111;" glyph-name="dcroat" horiz-adv-x="401" d="M153 636H281V695H326V636H381V598H326V0H289L283 79Q267 44 240 18T171 -9Q139 -9 114 9T72 59T45 137T35 238Q35 372 79 443T194 514Q222 514 244 500T281 462V598H153V636ZM180 30Q212 30
238 58T281 125V406Q265 443 244 461T188 479Q141 479 111 418T80 242Q80 142 107 86T180 30Z" />
<glyph unicode="&#x112;" glyph-name="Emacron" horiz-adv-x="358" d="M57 695H317V656H105V387H287V348H105V39H320V0H57V695ZM107 792H264V757H107V792Z" />
<glyph unicode="&#x113;" glyph-name="emacron" horiz-adv-x="335" d="M74 244Q76 139 103 84T186 29Q211 29 230 37T262 56Q277 67 287 83L302 46Q290 30 273 18Q259 7 237 -1T185 -10Q105 -10 68 58T30 252Q30 314 41 362T71 445T117 496T176 514Q208 514 234
497T277 446T301 362T302 244H74ZM176 477Q136 477 107 427T75 279H260Q263 330 258 367T241 429T212 465T176 477ZM357 658H498V622H357V658Z" />
<glyph unicode="&#x114;" glyph-name="Ebreve" horiz-adv-x="358" d="M57 695H317V656H105V387H287V348H105V39H320V0H57V695ZM187 743Q146 743 127 769T105 830H138Q140 811 150 795T187 779Q213 779 222 795T234 830H267Q266 796 247 770T187 743Z" />
<glyph unicode="&#x115;" glyph-name="ebreve" horiz-adv-x="335" d="M74 244Q76 139 103 84T186 29Q211 29 230 37T262 56Q277 67 287 83L302 46Q290 30 273 18Q259 7 237 -1T185 -10Q105 -10 68 58T30 252Q30 314 41 362T71 445T117 496T176 514Q208 514 234
497T277 446T301 362T302 244H74ZM176 477Q136 477 107 427T75 279H260Q263 330 258 367T241 429T212 465T176 477ZM429 581Q388 581 369 609T348 680H380Q382 654 392 636T429 617Q455 617 464 635T476 680H508Q507 638 489 610T429 581Z" />
<glyph unicode="&#x116;" glyph-name="Edotaccent" horiz-adv-x="358" d="M57 695H317V656H105V387H287V348H105V39H320V0H57V695ZM177 753Q164 753 155 762T146 784Q146 797 155 806T177 816Q190 816 199 807T208 784Q208 771 199 762T177 753Z" />
<glyph unicode="&#x117;" glyph-name="edotaccent" horiz-adv-x="335" d="M74 244Q76 139 103 84T186 29Q211 29 230 37T262 56Q277 67 287 83L302 46Q290 30 273 18Q259 7 237 -1T185 -10Q105 -10 68 58T30 252Q30 314 41 362T71 445T117 496T176 514Q208 514
234 497T277 446T301 362T302 244H74ZM176 477Q136 477 107 427T75 279H260Q263 330 258 367T241 429T212 465T176 477ZM425 604Q412 604 403 613T394 635Q394 648 403 657T425 667Q438 667 447 658T456 635Q456 622 447 613T425 604Z" />
<glyph unicode="&#x118;" glyph-name="Eogonek" horiz-adv-x="360" d="M57 695H317V656H105V387H287V348H105V39H320V0H57V695ZM290 -158Q260 -158 240 -142T219 -95Q219 -80 225 -66T240 -39T259 -17T280 0H320Q294 -17 279 -43T263 -89Q263 -125 298 -125Q306
-125 311 -124T322 -120V-152Q317 -154 309 -156T290 -158Z" />
<glyph unicode="&#x119;" glyph-name="eogonek" horiz-adv-x="335" d="M208 -158Q178 -158 158 -142T137 -95Q137 -69 152 -47T185 -10Q105 -10 68 58T30 252Q30 314 41 362T71 445T117 496T176 514Q208 514 234 497T277 446T301 362T302 244H74Q76 139 103 84T185
29H186Q211 29 230 37T262 56Q277 67 287 83L302 46Q296 38 288 30Q281 23 271 16T246 3Q215 -8 198 -34T181 -86Q181 -125 216 -125Q224 -125 229 -124T240 -120V-152Q235 -154 227 -156T208 -158ZM176 477Q136 477 107 427T75 279H260Q263 330 258 367T241 429T212
465T176 477Z" />
<glyph unicode="&#x11a;" glyph-name="Ecaron" horiz-adv-x="358" d="M57 695H317V656H105V387H287V348H105V39H320V0H57V695ZM195 769L247 817H281L218 737H173L110 817H145L195 769Z" />
<glyph unicode="&#x11b;" glyph-name="ecaron" horiz-adv-x="335" d="M74 244Q76 139 103 84T186 29Q211 29 230 37T262 56Q277 67 287 83L302 46Q290 30 273 18Q259 7 237 -1T185 -10Q105 -10 68 58T30 252Q30 314 41 362T71 445T117 496T176 514Q208 514 234
497T277 446T301 362T302 244H74ZM176 477Q136 477 107 427T75 279H260Q263 330 258 367T241 429T212 465T176 477ZM170 614L221 683H253L193 582H148L88 683H121L170 614Z" />
<glyph unicode="&#x11c;" glyph-name="Gcircumflex" horiz-adv-x="412" d="M378 231Q378 117 338 54T222 -10Q134 -10 85 79T35 344Q35 428 48 494T88 607T151 679T235 704Q279 704 308 687T353 651L337 601Q320 624 296 644T235 665Q199 665 171 644T124 581T94
481T84 347Q84 186 121 108T222 29Q277 29 304 75T332 228V318H224V357H378V231V231ZM232 785L180 737H146L209 817H254L317 737H282L232 785Z" />
<glyph unicode="&#x11d;" glyph-name="gcircumflex" horiz-adv-x="382" d="M180 30Q212 30 238 58T281 125V408Q266 445 244 462T188 479Q139 479 110 417T80 242Q80 142 107 86T180 30ZM173 -164Q130 -164 99 -151T53 -126L66 -87Q80 -101 109 -113T173 -125Q224
-125 252 -95T281 10V74Q264 41 238 16T171 -9Q139 -9 114 9T72 59T45 137T35 238Q35 370 78 442T194 514Q223 514 247 499T284 457L289 504H326V5Q326 -40 315 -72T283 -124T235 -154T173 -164ZM190 651L139 582H107L167 683H212L272 582H239L190 651Z" />
<glyph unicode="&#x11e;" glyph-name="Gbreve" horiz-adv-x="412" d="M378 231Q378 117 338 54T222 -10Q134 -10 85 79T35 344Q35 428 48 494T88 607T151 679T235 704Q279 704 308 687T353 651L337 601Q320 624 296 644T235 665Q199 665 171 644T124 581T94 481T84
347Q84 186 121 108T222 29Q277 29 304 75T332 228V318H224V357H378V231V231ZM221 743Q180 743 161 769T139 830H172Q174 811 184 795T221 779Q247 779 256 795T268 830H301Q300 796 281 770T221 743Z" />
<glyph unicode="&#x11f;" glyph-name="gbreve" horiz-adv-x="382" d="M180 30Q212 30 238 58T281 125V408Q266 445 244 462T188 479Q139 479 110 417T80 242Q80 142 107 86T180 30ZM173 -164Q130 -164 99 -151T53 -126L66 -87Q80 -101 109 -113T173 -125Q224 -125
252 -95T281 10V74Q264 41 238 16T171 -9Q139 -9 114 9T72 59T45 137T35 238Q35 370 78 442T194 514Q223 514 247 499T284 457L289 504H326V5Q326 -40 315 -72T283 -124T235 -154T173 -164ZM196 581Q155 581 136 609T115 680H147Q149 654 159 636T196 617Q222 617
231 635T243 680H275Q274 638 256 610T196 581Z" />
<glyph unicode="&#x120;" glyph-name="Gdotaccent" horiz-adv-x="412" d="M378 231Q378 117 338 54T222 -10Q134 -10 85 79T35 344Q35 428 48 494T88 607T151 679T235 704Q279 704 308 687T353 651L337 601Q320 624 296 644T235 665Q199 665 171 644T124 581T94
481T84 347Q84 186 121 108T222 29Q277 29 304 75T332 228V318H224V357H378V231V231ZM177 753Q164 753 155 762T146 784Q146 797 155 806T177 816Q190 816 199 807T208 784Q208 771 199 762T177 753Z" />
<glyph unicode="&#x121;" glyph-name="gdotaccent" horiz-adv-x="382" d="M180 30Q212 30 238 58T281 125V408Q266 445 244 462T188 479Q139 479 110 417T80 242Q80 142 107 86T180 30ZM173 -164Q130 -164 99 -151T53 -126L66 -87Q80 -101 109 -113T173 -125Q224
-125 252 -95T281 10V74Q264 41 238 16T171 -9Q139 -9 114 9T72 59T45 137T35 238Q35 370 78 442T194 514Q223 514 247 499T284 457L289 504H326V5Q326 -40 315 -72T283 -124T235 -154T173 -164ZM188 604Q175 604 166 613T157 635Q157 648 166 657T188 667Q201
667 210 658T219 635Q219 622 210 613T188 604Z" />
<glyph unicode="&#x122;" glyph-name="uni0122" horiz-adv-x="412" d="M378 231Q378 117 338 54T222 -10Q134 -10 85 79T35 344Q35 428 48 494T88 607T151 679T235 704Q279 704 308 687T353 651L337 601Q320 624 296 644T235 665Q199 665 171 644T124 581T94 481T84
347Q84 186 121 108T222 29Q277 29 304 75T332 228V318H224V357H378V231V231ZM189 -165Q201 -150 209 -135T219 -109Q205 -107 199 -99T192 -80Q192 -67 200 -59T222 -50Q236 -50 245 -59T254 -87Q254 -127 218 -165H189Z" />
<glyph unicode="&#x123;" glyph-name="uni0123" horiz-adv-x="382" d="M180 30Q212 30 238 58T281 125V408Q266 445 244 462T188 479Q139 479 110 417T80 242Q80 142 107 86T180 30ZM173 -164Q130 -164 99 -151T53 -126L66 -87Q80 -101 109 -113T173 -125Q224
-125 252 -95T281 10V74Q264 41 238 16T171 -9Q139 -9 114 9T72 59T45 137T35 238Q35 370 78 442T194 514Q223 514 247 499T284 457L289 504H326V5Q326 -40 315 -72T283 -124T235 -154T173 -164ZM224 673Q212 658 204 643T194 617Q208 615 214 607T221 588Q221
575 213 567T191 558Q177 558 168 567T159 595Q159 635 195 673H224Z" />
<glyph unicode="&#x124;" glyph-name="Hcircumflex" horiz-adv-x="434" d="M329 325H105V0H57V695H105V364H329V695H377V0H329V325ZM216 785L164 737H130L193 817H238L301 737H266L216 785Z" />
<glyph unicode="&#x125;" glyph-name="hcircumflex" horiz-adv-x="381" d="M216 476Q178 476 149 447T101 370V0H56V695H101V425H103Q107 437 117 452T142 481T177 504T224 514Q275 514 302 483T329 392V0H284V388Q284 476 216 476ZM191 815L139 767H105L168 847H213L276
767H241L191 815Z" />
<glyph unicode="&#x126;" glyph-name="Hbar" horiz-adv-x="460" d="M10 559H70V695H118V559H342V695H390V559H450V521H390V0H342V325H118V0H70V521H10V559ZM342 364V521H118V364H342Z" />
<glyph unicode="&#x127;" glyph-name="hbar" horiz-adv-x="400" d="M20 636H75V695H120V636H248V598H120V425H122Q126 437 136 452T161 481T196 504T243 514Q294 514 321 483T348 392V0H303V388Q303 476 235 476Q197 476 168 447T120 370V0H75V598H20V636Z" />
<glyph unicode="&#x128;" glyph-name="Itilde" horiz-adv-x="162" d="M105 695V0H57V695H105ZM253 741Q252 782 266 803T302 825Q314 825 324 818T344 803T360 787T375 780Q385 780 389 793T393 828H421Q422 787 408 766T372 744Q360 744 350 751T330 766T314
782T299 789Q289 789 285 776T281 741H253Z" />
<glyph unicode="&#x129;" glyph-name="itilde" horiz-adv-x="157" d="M101 504V0H56V504H101ZM237 594Q236 635 251 656T291 678Q304 678 315 671T337 656T355 640T371 633Q383 633 388 646T394 681H422Q423 640 408 619T368 597Q354 597 343 604T322 619T304
635T288 642Q276 642 271 629T265 594H237Z" />
<glyph unicode="&#x12a;" glyph-name="Imacron" horiz-adv-x="162" d="M105 695V0H57V695H105ZM257 792H414V757H257V792Z" />
<glyph unicode="&#x12b;" glyph-name="imacron" horiz-adv-x="159" d="M102 504V0H57V504H102ZM265 658H406V622H265V658Z" />
<glyph unicode="&#x12c;" glyph-name="Ibreve" horiz-adv-x="162" d="M105 695V0H57V695H105ZM337 743Q296 743 277 769T255 830H288Q290 811 300 795T337 779Q363 779 372 795T384 830H417Q416 796 397 770T337 743Z" />
<glyph unicode="&#x12d;" glyph-name="ibreve" horiz-adv-x="159" d="M102 504V0H57V504H102ZM337 581Q296 581 277 609T256 680H288Q290 654 300 636T337 617Q363 617 372 635T384 680H416Q415 638 397 610T337 581Z" />
<glyph unicode="&#x12e;" glyph-name="Iogonek" horiz-adv-x="162" d="M75 -158Q45 -158 25 -142T4 -95Q4 -67 21 -44T57 -6V695H105V0Q79 -17 64 -43T48 -89Q48 -125 83 -125Q91 -125 96 -124T107 -120V-152Q102 -154 94 -156T75 -158Z" />
<glyph unicode="&#x12f;" glyph-name="iogonek" horiz-adv-x="157" d="M79 604Q66 604 57 613T48 635Q48 648 57 657T79 667Q92 667 101 658T110 635Q110 622 101 613T79 604ZM71 -158Q41 -158 21 -142T0 -95Q0 -66 18 -42T56 -4V504H101V0Q75 -17 60 -43T44 -89Q44
-125 79 -125Q87 -125 92 -124T103 -120V-152Q98 -154 90 -156T71 -158Z" />
<glyph unicode="&#x130;" glyph-name="Idotaccent" horiz-adv-x="162" d="M105 695V0H57V695H105ZM177 753Q164 753 155 762T146 784Q146 797 155 806T177 816Q190 816 199 807T208 784Q208 771 199 762T177 753Z" />
<glyph unicode="&#x131;" glyph-name="dotlessi" horiz-adv-x="157" d="M101 504V0H56V504H101Z" />
<glyph unicode="&#x132;" glyph-name="IJ" horiz-adv-x="399" d="M105 695V0H57V695H105ZM347 695V152Q347 79 321 38T230 -4Q210 -4 193 0T168 10L173 56Q185 48 199 42T236 35Q268 35 283 63T299 154V695H347Z" />
<glyph unicode="&#x133;" glyph-name="ij" horiz-adv-x="312" d="M79 604Q66 604 57 613T48 635Q48 648 57 657T79 667Q92 667 101 658T110 635Q110 622 101 613T79 604ZM101 504V0H56V504H101ZM233 604Q220 604 211 613T201 635Q201 648 210 657T233 667Q246
667 255 658T265 635Q265 622 256 613T233 604ZM256 -29Q256 -57 250 -81T230 -122T196 -148T147 -157L142 -116Q179 -117 195 -99T211 -24V504H256V-29Z" />
<glyph unicode="&#x134;" glyph-name="Jcircumflex" horiz-adv-x="249" d="M197 695V152Q197 79 171 38T80 -4Q60 -4 43 0T18 10L23 56Q35 48 49 42T86 35Q118 35 133 63T149 154V695H197ZM170 785L118 737H84L147 817H192L255 737H220L170 785Z" />
<glyph unicode="&#x135;" glyph-name="jcircumflex" horiz-adv-x="157" d="M101 -29Q101 -57 95 -81T75 -122T41 -148T-8 -157L-13 -116Q24 -117 40 -99T56 -24V504H101V-29ZM331 651L280 582H248L308 683H353L413 582H380L331 651Z" />
<glyph unicode="&#x136;" glyph-name="uni0136" horiz-adv-x="388" d="M105 367V0H57V695H105V371L314 695H360L154 375L378 0H324L105 367ZM179 -165Q191 -150 199 -135T209 -109Q195 -107 189 -99T182 -80Q182 -67 190 -59T212 -50Q226 -50 235 -59T244 -87Q244
-127 208 -165H179Z" />
<glyph unicode="&#x137;" glyph-name="uni0137" horiz-adv-x="332" d="M101 0H56V695H101V267L270 504H313L147 270L325 0H276L101 261V0ZM142 -165Q154 -150 162 -135T172 -109Q158 -107 152 -99T145 -80Q145 -67 153 -59T175 -50Q189 -50 198 -59T207 -87Q207
-127 171 -165H142Z" />
<glyph unicode="&#x139;" glyph-name="Lacute" horiz-adv-x="322" d="M291 0H57V695H104V39H291V0ZM365 840H415L354 747H318L365 840Z" />
<glyph unicode="&#x13a;" glyph-name="lacute" horiz-adv-x="159" d="M102 695V0H57V695H102ZM363 870H413L352 777H316L363 870Z" />
<glyph unicode="&#x13b;" glyph-name="uni013B" horiz-adv-x="322" d="M291 0H57V695H104V39H291V0ZM154 -165Q166 -150 174 -135T184 -109Q170 -107 164 -99T157 -80Q157 -67 165 -59T187 -50Q201 -50 210 -59T219 -87Q219 -127 183 -165H154Z" />
<glyph unicode="&#x13c;" glyph-name="uni013C" horiz-adv-x="159" d="M102 695V0H57V695H102ZM301 -165Q313 -150 321 -135T331 -109Q317 -107 311 -99T304 -80Q304 -67 312 -59T334 -50Q348 -50 357 -59T366 -87Q366 -127 330 -165H301Z" />
<glyph unicode="&#x13d;" glyph-name="Lcaron" horiz-adv-x="322" d="M291 0H57V695H104V39H291V0ZM167 572L172 695H214L198 572H167Z" />
<glyph unicode="&#x13e;" glyph-name="lcaron" horiz-adv-x="159" d="M102 695V0H57V695H102ZM157 572L162 695H204L188 572H157Z" />
<glyph unicode="&#x13f;" glyph-name="Ldot" horiz-adv-x="366" d="M291 0H57V695H104V39H291V0ZM284 305Q271 305 263 314T254 337Q254 350 262 358T284 367Q298 367 307 359T316 337Q316 323 307 314T284 305Z" />
<glyph unicode="&#x140;" glyph-name="ldot" horiz-adv-x="262" d="M102 695V0H57V695H102ZM201 272Q188 272 180 281T171 304Q171 317 179 325T201 334Q215 334 224 326T233 304Q233 290 224 281T201 272Z" />
<glyph unicode="&#x141;" glyph-name="Lslash" horiz-adv-x="339" d="M18 264L74 312V695H121V352L226 443V397L121 306V39H308V0H74V266L18 218V264Z" />
<glyph unicode="&#x142;" glyph-name="lslash" horiz-adv-x="205" d="M125 695V392L195 465V416L125 343V0H80V296L10 224V273L80 345V695H125Z" />
<glyph unicode="&#x143;" glyph-name="Nacute" horiz-adv-x="429" d="M289 203Q302 166 311 136T331 69H335Q333 107 332 149T331 235V695H372V0H316L138 507Q125 544 116 574T96 641H92Q94 603 96 570T98 493V0H57V695H116L289 203V203ZM254 840H304L243 747H207L254
840Z" />
<glyph unicode="&#x144;" glyph-name="nacute" horiz-adv-x="381" d="M216 476Q178 476 149 447T101 370V0H56V504H97L99 421H101Q106 434 116 450T142 481T177 504T224 514Q275 514 302 483T329 392V0H284V388Q284 476 216 476ZM225 685H275L211 582H176L225 685Z" />
<glyph unicode="&#x145;" glyph-name="uni0145" horiz-adv-x="429" d="M289 203Q302 166 311 136T331 69H335Q333 107 332 149T331 235V695H372V0H316L138 507Q125 544 116 574T96 641H92Q94 603 96 570T98 493V0H57V695H116L289 203V203ZM173 -165Q185 -150 193
-135T203 -109Q189 -107 183 -99T176 -80Q176 -67 184 -59T206 -50Q220 -50 229 -59T238 -87Q238 -127 202 -165H173Z" />
<glyph unicode="&#x146;" glyph-name="uni0146" horiz-adv-x="381" d="M216 476Q178 476 149 447T101 370V0H56V504H97L99 421H101Q106 434 116 450T142 481T177 504T224 514Q275 514 302 483T329 392V0H284V388Q284 476 216 476ZM161 -165Q173 -150 181 -135T191
-109Q177 -107 171 -99T164 -80Q164 -67 172 -59T194 -50Q208 -50 217 -59T226 -87Q226 -127 190 -165H161Z" />
<glyph unicode="&#x147;" glyph-name="Ncaron" horiz-adv-x="429" d="M289 203Q302 166 311 136T331 69H335Q333 107 332 149T331 235V695H372V0H316L138 507Q125 544 116 574T96 641H92Q94 603 96 570T98 493V0H57V695H116L289 203V203ZM217 769L269 817H303L240
737H195L132 817H167L217 769Z" />
<glyph unicode="&#x148;" glyph-name="ncaron" horiz-adv-x="381" d="M216 476Q178 476 149 447T101 370V0H56V504H97L99 421H101Q106 434 116 450T142 481T177 504T224 514Q275 514 302 483T329 392V0H284V388Q284 476 216 476ZM195 614L246 683H278L218 582H173L113
683H146L195 614Z" />
<glyph unicode="&#x14a;" glyph-name="Eng" horiz-adv-x="429" d="M255 -194Q235 -194 218 -190T193 -180L198 -134Q210 -142 224 -148T261 -155Q298 -155 316 -127T334 -36V0H316L138 507Q125 544 116 574T96 641H92Q94 603 96 570T98 493V0H57V695H116L289 203Q302
166 311 136T331 69H335Q333 107 332 149T331 235V695H372V-38Q372 -111 346 -152T255 -194Z" />
<glyph unicode="&#x14b;" glyph-name="eng" horiz-adv-x="381" d="M329 -29Q329 -57 323 -81T303 -122T269 -148T220 -157L215 -116Q252 -117 268 -99T284 -24V388Q284 476 216 476Q178 476 149 447T101 370V0H56V504H97L99 421H101Q106 434 116 450T142 481T177
504T224 514Q275 514 302 483T329 392V-29V-29Z" />
<glyph unicode="&#x14c;" glyph-name="Omacron" horiz-adv-x="453" d="M226 -10Q184 -10 149 13T88 81T49 193T35 347Q35 432 49 498T88 610T148 680T226 704Q269 704 304 681T364 613T404 503T418 352Q418 265 404 198T365 84T304 14T226 -10ZM226 29Q288 29
329 108T370 349Q370 427 359 486T329 585T284 645T226 665Q164 665 124 586T83 349Q83 269 94 209T124 109T169 49T226 29ZM143 792H300V757H143V792Z" />
<glyph unicode="&#x14d;" glyph-name="omacron" horiz-adv-x="368" d="M184 -10Q151 -10 123 6T75 55T42 135T30 249Q30 312 42 361T74 444T123 496T184 514Q217 514 245 498T293 450T326 369T338 255Q338 192 326 143T294 60T245 8T184 -10ZM184 26Q229 26 261
81T293 252Q293 312 285 354T261 424T226 464T184 477Q139 477 107 423T75 252Q75 193 83 150T107 80T141 39T184 26ZM115 658H256V622H115V658Z" />
<glyph unicode="&#x14e;" glyph-name="Obreve" horiz-adv-x="453" d="M226 -10Q184 -10 149 13T88 81T49 193T35 347Q35 432 49 498T88 610T148 680T226 704Q269 704 304 681T364 613T404 503T418 352Q418 265 404 198T365 84T304 14T226 -10ZM226 29Q288 29 329
108T370 349Q370 427 359 486T329 585T284 645T226 665Q164 665 124 586T83 349Q83 269 94 209T124 109T169 49T226 29ZM224 743Q183 743 164 769T142 830H175Q177 811 187 795T224 779Q250 779 259 795T271 830H304Q303 796 284 770T224 743Z" />
<glyph unicode="&#x14f;" glyph-name="obreve" horiz-adv-x="368" d="M184 -10Q151 -10 123 6T75 55T42 135T30 249Q30 312 42 361T74 444T123 496T184 514Q217 514 245 498T293 450T326 369T338 255Q338 192 326 143T294 60T245 8T184 -10ZM184 26Q229 26 261
81T293 252Q293 312 285 354T261 424T226 464T184 477Q139 477 107 423T75 252Q75 193 83 150T107 80T141 39T184 26ZM181 581Q140 581 121 609T100 680H132Q134 654 144 636T181 617Q207 617 216 635T228 680H260Q259 638 241 610T181 581Z" />
<glyph unicode="&#x150;" glyph-name="Ohungarumlaut" horiz-adv-x="453" d="M226 -10Q184 -10 149 13T88 81T49 193T35 347Q35 432 49 498T88 610T148 680T226 704Q269 704 304 681T364 613T404 503T418 352Q418 265 404 198T365 84T304 14T226 -10ZM226 29Q288
29 329 108T370 349Q370 427 359 486T329 585T284 645T226 665Q164 665 124 586T83 349Q83 269 94 209T124 109T169 49T226 29ZM275 840H320L281 747H247L275 840ZM181 840H226L187 747H153L181 840Z" />
<glyph unicode="&#x151;" glyph-name="ohungarumlaut" horiz-adv-x="368" d="M184 -10Q151 -10 123 6T75 55T42 135T30 249Q30 312 42 361T74 444T123 496T184 514Q217 514 245 498T293 450T326 369T338 255Q338 192 326 143T294 60T245 8T184 -10ZM184 26Q229
26 261 81T293 252Q293 312 285 354T261 424T226 464T184 477Q139 477 107 423T75 252Q75 193 83 150T107 80T141 39T184 26ZM244 685H289L249 582H215L244 685ZM152 685H197L157 582H123L152 685Z" />
<glyph unicode="&#x152;" glyph-name="OE" horiz-adv-x="636" d="M335 39V656H313Q260 656 217 639T144 585T98 489T82 347Q82 274 99 217T147 120T220 60T313 39H335ZM313 0Q254 0 204 22T116 87T57 196T35 348Q35 443 56 509T115 616T203 676T313 695H595V656H383V387H565V348H383V39H598V0H313Z"
/>
<glyph unicode="&#x153;" glyph-name="oe" horiz-adv-x="597" d="M448 -10Q394 -10 361 26T314 130Q297 62 263 26T184 -10Q151 -10 123 6T75 55T42 135T30 249Q30 312 42 361T74 444T123 496T184 514Q229 514 264 479T316 374Q332 442 364 478T439 514Q471 514
497 497T540 446T564 362T565 244H337Q339 139 366 84T448 29H449Q474 29 493 37T525 56Q540 67 550 83L565 46Q553 30 536 18Q522 7 500 -1T448 -10ZM439 477Q399 477 370 427T338 279H523Q526 330 521 367T504 429T475 465T439 477ZM184 26Q229 26 261 81T293
252Q293 312 285 354T261 424T226 464T184 477Q139 477 107 423T75 252Q75 193 83 150T107 80T141 39T184 26Z" />
<glyph unicode="&#x154;" glyph-name="Racute" horiz-adv-x="371" d="M105 656V321H159Q219 321 253 360T288 493Q288 578 256 617T164 656H105ZM57 0V695H163Q244 695 289 646T335 494Q335 406 305 357T223 292L353 0H302L176 282H105V0H57ZM213 840H263L202
747H166L213 840Z" />
<glyph unicode="&#x155;" glyph-name="racute" horiz-adv-x="242" d="M221 460Q136 457 101 352V0H56V504H97L99 403H102Q108 421 118 439T144 471T178 495T221 507V460V460ZM424 685H474L410 582H375L424 685Z" />
<glyph unicode="&#x156;" glyph-name="uni0156" horiz-adv-x="371" d="M105 656V321H159Q219 321 253 360T288 493Q288 578 256 617T164 656H105ZM57 0V695H163Q244 695 289 646T335 494Q335 406 305 357T223 292L353 0H302L176 282H105V0H57ZM171 -165Q183 -150
191 -135T201 -109Q187 -107 181 -99T174 -80Q174 -67 182 -59T204 -50Q218 -50 227 -59T236 -87Q236 -127 200 -165H171Z" />
<glyph unicode="&#x157;" glyph-name="uni0157" horiz-adv-x="242" d="M221 460Q136 457 101 352V0H56V504H97L99 403H102Q108 421 118 439T144 471T178 495T221 507V460V460ZM298 -165Q310 -150 318 -135T328 -109Q314 -107 308 -99T301 -80Q301 -67 309 -59T331
-50Q345 -50 354 -59T363 -87Q363 -127 327 -165H298Z" />
<glyph unicode="&#x158;" glyph-name="Rcaron" horiz-adv-x="371" d="M105 656V321H159Q219 321 253 360T288 493Q288 578 256 617T164 656H105ZM57 0V695H163Q244 695 289 646T335 494Q335 406 305 357T223 292L353 0H302L176 282H105V0H57ZM186 769L238 817H272L209
737H164L101 817H136L186 769Z" />
<glyph unicode="&#x159;" glyph-name="rcaron" horiz-adv-x="242" d="M221 460Q136 457 101 352V0H56V504H97L99 403H102Q108 421 118 439T144 471T178 495T221 507V460V460ZM396 614L447 683H479L419 582H374L314 683H347L396 614Z" />
<glyph unicode="&#x15a;" glyph-name="Sacute" horiz-adv-x="335" d="M149 -10Q100 -10 66 4T17 36L28 79Q46 60 74 45T147 29Q177 29 198 39T234 66T254 107T261 156Q261 185 253 210T230 259T195 305T152 352Q133 371 113 393T75 441T46 495T35 557Q35 595 47
623T80 669T125 695T177 704Q220 704 247 692T292 665L282 622Q260 640 238 652T178 665Q137 665 108 642T79 563Q79 537 88 514T112 469T147 425T188 382Q210 360 231 336T270 285T297 227T308 162Q308 122 296 91T263 37T213 2T149 -10ZM207 840H257L196 747H160L207
840Z" />
<glyph unicode="&#x15b;" glyph-name="sacute" horiz-adv-x="266" d="M121 -10Q79 -10 54 1T14 25L24 64Q42 48 63 37T120 26Q139 26 154 33T179 51T194 78T200 109Q200 138 187 162T155 208T114 251T72 295T40 344T27 402Q27 430 36 451T61 486T95 507T135 514Q172
514 195 504T232 482L219 441Q202 459 183 468T137 478Q109 478 88 460T67 409Q67 381 80 359T112 315T154 274T196 230T229 179T242 116Q242 86 232 63T206 23T167 -1T121 -10ZM424 685H474L410 582H375L424 685Z" />
<glyph unicode="&#x15c;" glyph-name="Scircumflex" horiz-adv-x="335" d="M149 -10Q100 -10 66 4T17 36L28 79Q46 60 74 45T147 29Q177 29 198 39T234 66T254 107T261 156Q261 185 253 210T230 259T195 305T152 352Q133 371 113 393T75 441T46 495T35 557Q35
595 47 623T80 669T125 695T177 704Q220 704 247 692T292 665L282 622Q260 640 238 652T178 665Q137 665 108 642T79 563Q79 537 88 514T112 469T147 425T188 382Q210 360 231 336T270 285T297 227T308 162Q308 122 296 91T263 37T213 2T149 -10ZM176 785L124 737H90L153
817H198L261 737H226L176 785Z" />
<glyph unicode="&#x15d;" glyph-name="scircumflex" horiz-adv-x="266" d="M121 -10Q79 -10 54 1T14 25L24 64Q42 48 63 37T120 26Q139 26 154 33T179 51T194 78T200 109Q200 138 187 162T155 208T114 251T72 295T40 344T27 402Q27 430 36 451T61 486T95 507T135
514Q172 514 195 504T232 482L219 441Q202 459 183 468T137 478Q109 478 88 460T67 409Q67 381 80 359T112 315T154 274T196 230T229 179T242 116Q242 86 232 63T206 23T167 -1T121 -10ZM387 651L336 582H304L364 683H409L469 582H436L387 651Z" />
<glyph unicode="&#x15e;" glyph-name="uni015E" horiz-adv-x="335" d="M149 -10Q100 -10 66 4T17 36L28 79Q46 60 74 45T147 29Q177 29 198 39T234 66T254 107T261 156Q261 185 253 210T230 259T195 305T152 352Q133 371 113 393T75 441T46 495T35 557Q35 595
47 623T80 669T125 695T177 704Q220 704 247 692T292 665L282 622Q260 640 238 652T178 665Q137 665 108 642T79 563Q79 537 88 514T112 469T147 425T188 382Q210 360 231 336T270 285T297 227T308 162Q308 122 296 91T263 37T213 2T149 -10ZM389 -154Q370 -154
361 -149T347 -142V-115Q351 -117 360 -121T380 -125Q418 -125 418 -95Q418 -80 409 -74T383 -68H372L383 4H412L405 -45Q434 -47 446 -61T458 -96Q458 -123 440 -138T389 -154Z" />
<glyph unicode="&#x15f;" glyph-name="uni015F" horiz-adv-x="266" d="M121 -10Q79 -10 54 1T14 25L24 64Q42 48 63 37T120 26Q139 26 154 33T179 51T194 78T200 109Q200 138 187 162T155 208T114 251T72 295T40 344T27 402Q27 430 36 451T61 486T95 507T135 514Q172
514 195 504T232 482L219 441Q202 459 183 468T137 478Q109 478 88 460T67 409Q67 381 80 359T112 315T154 274T196 230T229 179T242 116Q242 86 232 63T206 23T167 -1T121 -10ZM362 -154Q343 -154 334 -149T320 -142V-115Q324 -117 333 -121T353 -125Q391 -125
391 -95Q391 -80 382 -74T356 -68H345L356 4H385L378 -45Q407 -47 419 -61T431 -96Q431 -123 413 -138T362 -154Z" />
<glyph unicode="&#x160;" glyph-name="Scaron" horiz-adv-x="335" d="M149 -10Q100 -10 66 4T17 36L28 79Q46 60 74 45T147 29Q177 29 198 39T234 66T254 107T261 156Q261 185 253 210T230 259T195 305T152 352Q133 371 113 393T75 441T46 495T35 557Q35 595 47
623T80 669T125 695T177 704Q220 704 247 692T292 665L282 622Q260 640 238 652T178 665Q137 665 108 642T79 563Q79 537 88 514T112 469T147 425T188 382Q210 360 231 336T270 285T297 227T308 162Q308 122 296 91T263 37T213 2T149 -10ZM170 769L222 817H256L193
737H148L85 817H120L170 769Z" />
<glyph unicode="&#x161;" glyph-name="scaron" horiz-adv-x="266" d="M121 -10Q79 -10 54 1T14 25L24 64Q42 48 63 37T120 26Q139 26 154 33T179 51T194 78T200 109Q200 138 187 162T155 208T114 251T72 295T40 344T27 402Q27 430 36 451T61 486T95 507T135 514Q172
514 195 504T232 482L219 441Q202 459 183 468T137 478Q109 478 88 460T67 409Q67 381 80 359T112 315T154 274T196 230T229 179T242 116Q242 86 232 63T206 23T167 -1T121 -10ZM385 614L436 683H468L408 582H363L303 683H336L385 614Z" />
<glyph unicode="&#x162;" glyph-name="Tcommaaccent" horiz-adv-x="381" d="M214 656V0H166V656H24V695H357V656H214ZM155 -165Q167 -150 175 -135T185 -109Q171 -107 165 -99T158 -80Q158 -67 166 -59T188 -50Q202 -50 211 -59T220 -87Q220 -127 184 -165H155Z" />
<glyph unicode="&#x163;" glyph-name="tcommaaccent" horiz-adv-x="223" d="M200 6Q192 1 182 -2T156 -5Q112 -5 92 24T71 101V469H20V504H71L76 594H116V504H199V469H116V106Q116 32 161 32Q172 32 179 34T190 39L200 6V6ZM99 -165Q111 -150 119 -135T129 -109Q115
-107 109 -99T102 -80Q102 -67 110 -59T132 -50Q146 -50 155 -59T164 -87Q164 -127 128 -165H99Z" />
<glyph unicode="&#x164;" glyph-name="Tcaron" horiz-adv-x="381" d="M214 656V0H166V656H24V695H357V656H214ZM186 769L238 817H272L209 737H164L101 817H136L186 769Z" />
<glyph unicode="&#x165;" glyph-name="tcaron" horiz-adv-x="223" d="M200 6Q192 1 182 -2T156 -5Q112 -5 92 24T71 101V469H20V504H71L76 594H116V504H199V469H116V106Q116 32 161 32Q172 32 179 34T190 39L200 6V6ZM200 572L205 695H247L231 572H200Z" />
<glyph unicode="&#x166;" glyph-name="Tbar" horiz-adv-x="381" d="M214 656V392H334V354H214V0H166V354H46V392H166V656H24V695H357V656H214Z" />
<glyph unicode="&#x167;" glyph-name="tbar" horiz-adv-x="223" d="M21 342H71V469H20V504H71L76 594H116V504H199V469H116V342H200V304H116V106Q116 32 161 32Q172 32 179 34T190 39L200 6Q192 1 182 -2T156 -5Q112 -5 92 24T71 101V304H21V342Z" />
<glyph unicode="&#x168;" glyph-name="Utilde" horiz-adv-x="427" d="M53 695H101V206Q101 109 129 70T220 30Q280 30 305 73T331 215V695H374V218Q374 100 336 45T217 -10Q179 -10 149 2T97 39T65 105T53 204V695ZM139 742Q138 783 152 804T188 826Q200 826 210
819T230 804T246 788T261 781Q271 781 275 794T279 829H307Q308 788 294 767T258 745Q246 745 236 752T216 767T200 783T185 790Q175 790 171 777T167 742H139Z" />
<glyph unicode="&#x169;" glyph-name="utilde" horiz-adv-x="378" d="M165 28Q203 28 230 57T277 134V504H322V0H281L279 83H277Q272 69 262 53T238 23T203 0T157 -10Q106 -10 79 25T52 129V504H97V133Q97 28 165 28ZM98 594Q97 635 112 656T152 678Q165 678 176
671T198 656T216 640T232 633Q244 633 249 646T255 681H283Q284 640 269 619T229 597Q215 597 204 604T183 619T165 635T149 642Q137 642 132 629T126 594H98Z" />
<glyph unicode="&#x16a;" glyph-name="Umacron" horiz-adv-x="427" d="M53 695H101V206Q101 109 129 70T220 30Q280 30 305 73T331 215V695H374V218Q374 100 336 45T217 -10Q179 -10 149 2T97 39T65 105T53 204V695ZM136 793H293V758H136V793Z" />
<glyph unicode="&#x16b;" glyph-name="umacron" horiz-adv-x="378" d="M165 28Q203 28 230 57T277 134V504H322V0H281L279 83H277Q272 69 262 53T238 23T203 0T157 -10Q106 -10 79 25T52 129V504H97V133Q97 28 165 28ZM120 658H261V622H120V658Z" />
<glyph unicode="&#x16c;" glyph-name="Ubreve" horiz-adv-x="427" d="M53 695H101V206Q101 109 129 70T220 30Q280 30 305 73T331 215V695H374V218Q374 100 336 45T217 -10Q179 -10 149 2T97 39T65 105T53 204V695ZM217 744Q176 744 157 770T135 831H168Q170 812
180 796T217 780Q243 780 252 796T264 831H297Q296 797 277 771T217 744Z" />
<glyph unicode="&#x16d;" glyph-name="ubreve" horiz-adv-x="378" d="M165 28Q203 28 230 57T277 134V504H322V0H281L279 83H277Q272 69 262 53T238 23T203 0T157 -10Q106 -10 79 25T52 129V504H97V133Q97 28 165 28ZM190 581Q149 581 130 609T109 680H141Q143
654 153 636T190 617Q216 617 225 635T237 680H269Q268 638 250 610T190 581Z" />
<glyph unicode="&#x16e;" glyph-name="Uring" horiz-adv-x="427" d="M53 695H101V206Q101 109 129 70T220 30Q280 30 305 73T331 215V695H374V218Q374 100 336 45T217 -10Q179 -10 149 2T97 39T65 105T53 204V695ZM216 963Q184 963 165 984T145 1036Q145 1067
165 1088T216 1109Q246 1109 266 1088T286 1036Q286 1005 267 984T216 963ZM216 991Q233 991 243 1003T253 1036Q253 1056 243 1068T216 1080Q198 1080 188 1068T177 1036Q177 1016 187 1004T216 991Z" />
<glyph unicode="&#x16f;" glyph-name="uring" horiz-adv-x="378" d="M165 28Q203 28 230 57T277 134V504H322V0H281L279 83H277Q272 69 262 53T238 23T203 0T157 -10Q106 -10 79 25T52 129V504H97V133Q97 28 165 28ZM189 570Q157 570 138 591T118 643Q118 674
138 695T189 716Q219 716 239 695T259 643Q259 612 240 591T189 570ZM189 599Q206 599 216 611T226 643Q226 663 216 675T189 687Q171 687 161 675T150 643Q150 623 160 611T189 599Z" />
<glyph unicode="&#x170;" glyph-name="Uhungarumlaut" horiz-adv-x="427" d="M53 695H101V206Q101 109 129 70T220 30Q280 30 305 73T331 215V695H374V218Q374 100 336 45T217 -10Q179 -10 149 2T97 39T65 105T53 204V695ZM272 841H317L278 748H244L272 841ZM178
841H223L184 748H150L178 841Z" />
<glyph unicode="&#x171;" glyph-name="uhungarumlaut" horiz-adv-x="378" d="M165 28Q203 28 230 57T277 134V504H322V0H281L279 83H277Q272 69 262 53T238 23T203 0T157 -10Q106 -10 79 25T52 129V504H97V133Q97 28 165 28ZM251 685H296L256 582H222L251 685ZM159
685H204L164 582H130L159 685Z" />
<glyph unicode="&#x172;" glyph-name="Uogonek" horiz-adv-x="427" d="M248 -158Q218 -158 198 -142T177 -95Q177 -69 192 -47T225 -10H217Q179 -10 149 2T97 39T65 105T53 204V695H101V206Q101 109 129 70T220 30Q280 30 305 73T331 215V695H374V218Q374 38 280
1Q254 -17 238 -43T221 -89Q221 -125 256 -125Q264 -125 269 -124T280 -120V-152Q275 -154 267 -156T248 -158Z" />
<glyph unicode="&#x173;" glyph-name="uogonek" horiz-adv-x="378" d="M292 -158Q262 -158 242 -142T221 -95Q221 -80 227 -66T242 -39T261 -17T281 -1L279 83H277Q272 69 262 53T238 23T203 0T157 -10Q106 -10 79 25T52 129V504H97V133Q97 28 165 28Q203 28 230
57T277 134V504H322V0Q296 -17 281 -43T265 -89Q265 -125 300 -125Q308 -125 313 -124T324 -120V-152Q319 -154 311 -156T292 -158Z" />
<glyph unicode="&#x174;" glyph-name="Wcircumflex" horiz-adv-x="534" d="M24 695H71L131 203Q141 119 146 53H149Q152 91 156 131T169 216L249 695H292L373 216Q381 172 385 132T391 53H394Q396 91 400 126T409 203L469 695H510L424 0H362L284 496Q279 529 276
558T271 619H269Q266 587 263 558T254 496L175 0H112L24 695ZM266 785L214 737H180L243 817H288L351 737H316L266 785Z" />
<glyph unicode="&#x175;" glyph-name="wcircumflex" horiz-adv-x="454" d="M20 504H64L113 184Q118 150 122 118T129 51H132Q135 84 138 113T148 174L211 504H248L317 174Q324 142 328 112T336 51H339Q342 117 351 184L395 504H434L361 0H313L248 325Q242 357
238 385T231 442H229Q227 414 223 386T213 325L151 0H103L20 504ZM229 651L178 582H146L206 683H251L311 582H278L229 651Z" />
<glyph unicode="&#x176;" glyph-name="Ycircumflex" horiz-adv-x="355" d="M154 0V258L16 695H67L182 314L295 695H339L202 258V0H154ZM181 785L129 737H95L158 817H203L266 737H231L181 785Z" />
<glyph unicode="&#x177;" glyph-name="ycircumflex" horiz-adv-x="333" d="M66 -160Q58 -160 52 -160T40 -158L35 -116Q41 -118 48 -119T66 -120Q92 -120 110 -96T140 -29L144 -14L20 504H65L144 175Q159 117 166 56H169Q174 88 180 117T194 175L273 504H313L183
-26Q177 -52 168 -76T145 -118T112 -148T66 -160ZM170 651L119 582H87L147 683H192L252 582H219L170 651Z" />
<glyph unicode="&#x178;" glyph-name="Ydieresis" horiz-adv-x="355" d="M154 0V258L16 695H67L182 314L295 695H339L202 258V0H154ZM240 753Q228 753 220 761T211 782Q211 794 219 803T240 812Q252 812 260 803T269 782Q269 770 261 762T240 753ZM119 753Q107
753 99 761T90 782Q90 794 98 803T119 812Q131 812 139 803T148 782Q148 770 140 762T119 753Z" />
<glyph unicode="&#x179;" glyph-name="Zacute" horiz-adv-x="339" d="M25 0V35L264 656H39V695H314V660L75 39H314V0H25ZM202 840H252L191 747H155L202 840Z" />
<glyph unicode="&#x17a;" glyph-name="zacute" horiz-adv-x="279" d="M21 0V29L211 469H37V504H258V476L68 35H255V0H21ZM173 685H223L159 582H124L173 685Z" />
<glyph unicode="&#x17b;" glyph-name="Zdotaccent" horiz-adv-x="339" d="M25 0V35L264 656H39V695H314V660L75 39H314V0H25ZM177 753Q164 753 155 762T146 784Q146 797 155 806T177 816Q190 816 199 807T208 784Q208 771 199 762T177 753Z" />
<glyph unicode="&#x17c;" glyph-name="zdotaccent" horiz-adv-x="279" d="M21 0V29L211 469H37V504H258V476L68 35H255V0H21ZM398 604Q385 604 376 613T367 635Q367 648 376 657T398 667Q411 667 420 658T429 635Q429 622 420 613T398 604Z" />
<glyph unicode="&#x17d;" glyph-name="Zcaron" horiz-adv-x="339" d="M25 0V35L264 656H39V695H314V660L75 39H314V0H25ZM181 769L233 817H267L204 737H159L96 817H131L181 769Z" />
<glyph unicode="&#x17e;" glyph-name="zcaron" horiz-adv-x="279" d="M21 0V29L211 469H37V504H258V476L68 35H255V0H21ZM406 614L457 683H489L429 582H384L324 683H357L406 614Z" />
<glyph unicode="&#x192;" glyph-name="uni0192" horiz-adv-x="415" d="M-11 -181Q-32 -181 -50 -177T-80 -168L-68 -126Q-61 -128 -45 -132T-13 -137Q28 -137 50 -101T84 0L149 383H63L71 421H156L178 551Q183 580 193 607T219 656T260 691T317 704Q331 704 343
702T365 697Q376 694 385 691L372 651Q364 655 348 658T319 662Q275 662 255 633T225 550L203 421H317L309 383H197L132 0Q117 -91 85 -136T-11 -181Z" />
<glyph unicode="&#x218;" glyph-name="uni0218" horiz-adv-x="335" d="M149 -10Q100 -10 66 4T17 36L28 79Q46 60 74 45T147 29Q177 29 198 39T234 66T254 107T261 156Q261 185 253 210T230 259T195 305T152 352Q133 371 113 393T75 441T46 495T35 557Q35 595
47 623T80 669T125 695T177 704Q220 704 247 692T292 665L282 622Q260 640 238 652T178 665Q137 665 108 642T79 563Q79 537 88 514T112 469T147 425T188 382Q210 360 231 336T270 285T297 227T308 162Q308 122 296 91T263 37T213 2T149 -10ZM120 -165Q132 -150
140 -135T150 -109Q136 -107 130 -99T123 -80Q123 -67 131 -59T153 -50Q167 -50 176 -59T185 -87Q185 -127 149 -165H120Z" />
<glyph unicode="&#x219;" glyph-name="uni0219" horiz-adv-x="266" d="M121 -10Q79 -10 54 1T14 25L24 64Q42 48 63 37T120 26Q139 26 154 33T179 51T194 78T200 109Q200 138 187 162T155 208T114 251T72 295T40 344T27 402Q27 430 36 451T61 486T95 507T135 514Q172
514 195 504T232 482L219 441Q202 459 183 468T137 478Q109 478 88 460T67 409Q67 381 80 359T112 315T154 274T196 230T229 179T242 116Q242 86 232 63T206 23T167 -1T121 -10ZM86 -165Q98 -150 106 -135T116 -109Q102 -107 96 -99T89 -80Q89 -67 97 -59T119 -50Q133
-50 142 -59T151 -87Q151 -127 115 -165H86Z" />
<glyph unicode="&#x21a;" glyph-name="uni021A" horiz-adv-x="381" d="M214 656V0H166V656H24V695H357V656H214ZM155 -165Q167 -150 175 -135T185 -109Q171 -107 165 -99T158 -80Q158 -67 166 -59T188 -50Q202 -50 211 -59T220 -87Q220 -127 184 -165H155Z" />
<glyph unicode="&#x21b;" glyph-name="uni021B" horiz-adv-x="223" d="M200 6Q192 1 182 -2T156 -5Q112 -5 92 24T71 101V469H20V504H71L76 594H116V504H199V469H116V106Q116 32 161 32Q172 32 179 34T190 39L200 6V6ZM99 -165Q111 -150 119 -135T129 -109Q115
-107 109 -99T102 -80Q102 -67 110 -59T132 -50Q146 -50 155 -59T164 -87Q164 -127 128 -165H99Z" />
<glyph unicode="&#x237;" glyph-name="uni0237" horiz-adv-x="157" d="M101 -29Q101 -57 95 -81T75 -122T41 -148T-8 -157L-13 -116Q24 -117 40 -99T56 -24V504H101V-29Z" />
<glyph unicode="&#x2c6;" glyph-name="circumflex" horiz-adv-x="339" d="M170 651L119 582H87L147 683H192L252 582H219L170 651Z" />
<glyph unicode="&#x2c7;" glyph-name="caron" horiz-adv-x="339" d="M169 614L220 683H252L192 582H147L87 683H120L169 614Z" />
<glyph unicode="&#x2d8;" glyph-name="breve" horiz-adv-x="352" d="M177 581Q136 581 117 609T96 680H128Q130 654 140 636T177 617Q203 617 212 635T224 680H256Q255 638 237 610T177 581Z" />
<glyph unicode="&#x2d9;" glyph-name="dotaccent" horiz-adv-x="353" d="M177 604Q164 604 155 613T146 635Q146 648 155 657T177 667Q190 667 199 658T208 635Q208 622 199 613T177 604Z" />
<glyph unicode="&#x2da;" glyph-name="ring" horiz-adv-x="353" d="M177 570Q145 570 126 591T106 643Q106 674 126 695T177 716Q207 716 227 695T247 643Q247 612 228 591T177 570ZM177 599Q194 599 204 611T214 643Q214 663 204 675T177 687Q159 687 149 675T138
643Q138 623 148 611T177 599Z" />
<glyph unicode="&#x2db;" glyph-name="ogonek" horiz-adv-x="353" d="M186 -158Q156 -158 136 -142T115 -95Q115 -80 121 -66T136 -39T155 -17T176 0H216Q190 -17 175 -43T159 -89Q159 -125 194 -125Q202 -125 207 -124T218 -120V-152Q213 -154 205 -156T186 -158Z" />
<glyph unicode="&#x2dc;" glyph-name="tilde" horiz-adv-x="353" d="M85 594Q84 635 99 656T139 678Q152 678 163 671T185 656T203 640T219 633Q231 633 236 646T242 681H270Q271 640 256 619T216 597Q202 597 191 604T170 619T152 635T136 642Q124 642 119 629T113
594H85Z" />
<glyph unicode="&#x2dd;" glyph-name="hungarumlaut" horiz-adv-x="353" d="M205 685H250L210 582H176L205 685ZM113 685H158L118 582H84L113 685Z" />
<glyph unicode="&#x401;" glyph-name="uni0401" horiz-adv-x="358" d="M57 695H317V656H105V387H287V348H105V39H320V0H57V695ZM246 753Q234 753 226 761T217 782Q217 794 225 803T246 812Q258 812 266 803T275 782Q275 770 267 762T246 753ZM125 753Q113 753
105 761T96 782Q96 794 104 803T125 812Q137 812 145 803T154 782Q154 770 146 762T125 753Z" />
<glyph unicode="&#x402;" glyph-name="uni0402" horiz-adv-x="523" d="M214 656V373Q225 388 253 401T314 415Q349 415 379 404T431 366T465 295T478 186Q478 56 442 -9T333 -82L327 -40Q430 -31 430 186Q430 286 396 328T306 371Q276 371 251 358T214 327V0H166V656H24V695H357V656H214Z"
/>
<glyph unicode="&#x403;" glyph-name="uni0403" horiz-adv-x="327" d="M105 656V0H57V695H297V656H105ZM200 840H250L189 747H153L200 840Z" />
<glyph unicode="&#x404;" glyph-name="uni0404" horiz-adv-x="362" d="M233 704Q273 704 300 689T343 656L330 609Q313 632 289 648T233 665Q164 665 126 591T83 379H269V340H83Q84 193 121 111T233 29Q273 29 299 45T339 75L353 39Q348 34 338 26T313 9T277 -4T232
-10Q185 -10 148 14T86 84T48 196T35 347Q35 431 48 497T87 609T149 679T233 704Z" />
<glyph unicode="&#x405;" glyph-name="uni0405" horiz-adv-x="335" d="M149 -10Q100 -10 66 4T17 36L28 79Q46 60 74 45T147 29Q177 29 198 39T234 66T254 107T261 156Q261 185 253 210T230 259T195 305T152 352Q133 371 113 393T75 441T46 495T35 557Q35 595
47 623T80 669T125 695T177 704Q220 704 247 692T292 665L282 622Q260 640 238 652T178 665Q137 665 108 642T79 563Q79 537 88 514T112 469T147 425T188 382Q210 360 231 336T270 285T297 227T308 162Q308 122 296 91T263 37T213 2T149 -10Z" />
<glyph unicode="&#x406;" glyph-name="uni0406" horiz-adv-x="162" d="M105 695V0H57V695H105Z" />
<glyph unicode="&#x407;" glyph-name="uni0407" horiz-adv-x="162" d="M105 695V0H57V695H105ZM398 753Q386 753 378 761T369 782Q369 794 377 803T398 812Q410 812 418 803T427 782Q427 770 419 762T398 753ZM277 753Q265 753 257 761T248 782Q248 794 256 803T277
812Q289 812 297 803T306 782Q306 770 298 762T277 753Z" />
<glyph unicode="&#x408;" glyph-name="uni0408" horiz-adv-x="246" d="M450 695V152Q450 79 424 38T333 -4Q313 -4 296 0T271 10L276 56Q288 48 302 42T339 35Q371 35 386 63T402 154V695H450Z" />
<glyph unicode="&#x409;" glyph-name="uni0409" horiz-adv-x="626" d="M133 176Q125 80 101 38T32 -4Q22 -4 19 -3Q16 -3 15 -2L12 43Q13 42 15 42H23Q54 42 69 75T90 178Q98 272 102 364T109 530Q112 616 112 695H357V425H416Q452 425 484 412T541 373T581 309T596
220Q596 164 581 123T540 54T480 14T410 0H310V656H153Q153 588 151 511Q149 445 145 358T133 176ZM357 385V40H410Q438 40 463 51T507 84T537 139T548 218Q548 258 537 289T508 341T466 374T415 385H357Z" />
<glyph unicode="&#x40a;" glyph-name="uni040A" horiz-adv-x="645" d="M105 0H57V695H105V394H329V695H376V395H435Q471 395 503 385T560 353T600 296T615 210Q615 154 600 115T559 50T499 12T429 0H329V355H105V0ZM376 355V40H429Q457 40 482 49T526 78T556 131T567
208Q567 248 556 276T527 321T485 347T434 355H376Z" />
<glyph unicode="&#x40b;" glyph-name="uni040B" horiz-adv-x="513" d="M214 656V373Q215 374 223 381T246 395T281 409T325 415Q392 415 430 376T468 251V0H420V250Q420 316 394 345T322 375Q299 375 280 369T248 354T226 338T214 327V0H166V656H24V695H357V656H214Z" />
<glyph unicode="&#x40c;" glyph-name="uni040C" horiz-adv-x="388" d="M227 840H277L216 747H180L227 840ZM105 367V0H57V695H105V371L314 695H360L154 375L378 0H324L105 367Z" />
<glyph unicode="&#x40e;" glyph-name="uni040E" horiz-adv-x="380" d="M196 737Q148 737 123 764T97 837H140Q140 769 196 769Q222 769 236 785T251 837H293Q293 792 268 765T196 737ZM71 -1Q65 -1 61 -1T52 0L47 45Q55 41 71 41Q91 41 106 50T134 77T155 118T173
170L24 695H72L197 250L319 695H363L218 175Q208 139 196 107T166 51T126 13T71 -1Z" />
<glyph unicode="&#x40f;" glyph-name="uni040F" horiz-adv-x="425" d="M57 0V695H104V39H321V695H368V0H235L230 -119H196L191 0H57Z" />
<glyph unicode="&#x410;" glyph-name="uni0410" horiz-adv-x="389" d="M114 253H269L207 538Q201 566 198 594T194 641H192Q190 622 186 594T175 539L114 253ZM277 214H106L60 0H18L170 695H220L371 0H324L277 214Z" />
<glyph unicode="&#x411;" glyph-name="uni0411" horiz-adv-x="380" d="M57 695H301V656H105V403H171Q248 403 295 356T343 209Q343 153 330 114T294 49T238 12T166 0H57V695ZM105 364V39H166Q227 39 261 77T295 207Q295 288 263 326T171 364H105Z" />
<glyph unicode="&#x412;" glyph-name="uni0412" horiz-adv-x="384" d="M57 0V695H159Q327 695 327 535Q327 472 303 433T232 373Q294 357 323 315T352 204Q352 151 337 113T294 49T229 12T147 0H57ZM105 657V389H157Q212 389 246 422T280 531Q280 596 251 626T159
657H105ZM105 352V38H142Q178 38 208 46T259 74T292 123T304 198Q304 273 272 312T172 352H105Z" />
<glyph unicode="&#x413;" glyph-name="uni0413" horiz-adv-x="327" d="M105 656V0H57V695H297V656H105Z" />
<glyph unicode="&#x414;" glyph-name="uni0414" horiz-adv-x="426" d="M309 656H152Q150 525 146 426T136 252Q129 171 117 118T84 39H309V656ZM362 0H54L47 -119H10V39H31Q57 61 71 117T93 252Q101 328 104 440T109 695H357V39H406V-119H369L362 0Z" />
<glyph unicode="&#x415;" glyph-name="uni0415" horiz-adv-x="358" d="M57 695H317V656H105V387H287V348H105V39H320V0H57V695Z" />
<glyph unicode="&#x416;" glyph-name="uni0416" horiz-adv-x="572" d="M62 0H13L215 363L27 695H75L261 366V695H309V366L495 695H541L355 366L559 0H508L309 358V0H261V358L62 0Z" />
<glyph unicode="&#x417;" glyph-name="uni0417" horiz-adv-x="352" d="M148 -10Q120 -10 99 -5T63 6T38 20T23 34L38 71Q44 65 53 58T74 44T104 33T145 29Q210 29 241 77T272 202Q272 271 241 315T144 360H96V398H145Q175 398 196 409T232 440T252 486T259 543Q259
596 234 630T155 665Q121 665 96 649T53 609L41 652Q57 673 86 688T155 704Q226 704 265 662T305 550Q305 485 282 443T207 382Q269 360 294 314T320 206Q320 106 276 48T148 -10Z" />
<glyph unicode="&#x418;" glyph-name="uni0418" horiz-adv-x="446" d="M343 695H389V0H341V523Q341 542 342 560T345 598H341Q330 562 317 529L104 0H57V695H104V169Q104 150 103 132T100 94H104Q114 130 128 163L343 695Z" />
<glyph unicode="&#x419;" glyph-name="uni0419" horiz-adv-x="446" d="M222 737Q174 737 149 764T123 837H166Q166 769 222 769Q248 769 262 785T277 837H319Q319 792 294 765T222 737ZM343 695H389V0H341V523Q341 542 342 560T345 598H341Q330 562 317 529L104
0H57V695H104V169Q104 150 103 132T100 94H104Q114 130 128 163L343 695Z" />
<glyph unicode="&#x41a;" glyph-name="uni041A" horiz-adv-x="388" d="M105 367V0H57V695H105V371L314 695H360L154 375L378 0H324L105 367Z" />
<glyph unicode="&#x41b;" glyph-name="uni041B" horiz-adv-x="413" d="M153 656Q153 588 151 511Q149 445 145 358T133 176Q125 80 101 38T32 -4Q22 -4 19 -3Q16 -3 15 -2L12 43Q13 42 15 42H23Q54 42 69 75T90 178Q98 272 102 364T109 530Q112 616 112 695H356V0H308V656H153V656Z"
/>
<glyph unicode="&#x41c;" glyph-name="uni041C" horiz-adv-x="521" d="M112 622Q112 594 112 555T109 474L88 0H49L80 695H132L239 268Q247 239 251 214T257 166H259Q264 212 278 268L388 695H441L472 0H426L405 478Q403 524 403 557T403 623H400Q395 588 390
558T375 492L275 110H238L139 492Q131 524 125 554T115 622H112V622Z" />
<glyph unicode="&#x41d;" glyph-name="uni041D" horiz-adv-x="434" d="M329 325H105V0H57V695H105V364H329V695H377V0H329V325Z" />
<glyph unicode="&#x41e;" glyph-name="uni041E" horiz-adv-x="453" d="M226 -10Q184 -10 149 13T88 81T49 193T35 347Q35 432 49 498T88 610T148 680T226 704Q269 704 304 681T364 613T404 503T418 352Q418 265 404 198T365 84T304 14T226 -10ZM226 29Q288 29
329 108T370 349Q370 427 359 486T329 585T284 645T226 665Q164 665 124 586T83 349Q83 269 94 209T124 109T169 49T226 29Z" />
<glyph unicode="&#x41f;" glyph-name="uni041F" horiz-adv-x="425" d="M320 656H105V0H57V695H368V0H320V656Z" />
<glyph unicode="&#x420;" glyph-name="uni0420" horiz-adv-x="359" d="M105 270V0H57V695H157Q239 695 285 647T332 493Q332 377 283 324T153 270H105ZM105 656V309H153Q215 309 249 350T284 489Q284 576 251 616T158 656H105Z" />
<glyph unicode="&#x421;" glyph-name="uni0421" horiz-adv-x="370" d="M233 704Q273 704 300 689T343 656L330 609Q313 632 289 648T233 665Q161 665 122 583T83 350Q83 199 121 114T233 29Q273 29 299 45T339 75L353 39Q348 34 338 26T313 9T277 -4T232 -10Q185
-10 148 14T86 84T48 196T35 347Q35 431 48 497T87 609T149 679T233 704Z" />
<glyph unicode="&#x422;" glyph-name="uni0422" horiz-adv-x="381" d="M214 656V0H166V656H24V695H357V656H214Z" />
<glyph unicode="&#x423;" glyph-name="uni0423" horiz-adv-x="380" d="M71 -1Q65 -1 61 -1T52 0L47 45Q55 41 71 41Q91 41 106 50T134 77T155 118T173 170L24 695H72L197 250L319 695H363L218 175Q208 139 196 107T166 51T126 13T71 -1Z" />
<glyph unicode="&#x424;" glyph-name="uni0424" horiz-adv-x="542" d="M247 -10V70Q206 72 167 90T98 144T49 229T30 346Q30 412 48 463T97 549T167 603T247 625V703H295V625Q336 623 375 604T444 550T493 465T512 348Q512 282 494 231T445 145T375 91T295 70V-10H247ZM465
347Q465 407 450 451T411 525T357 570T295 588V107Q326 110 356 126T411 171T450 244T465 347ZM77 347Q77 288 92 244T131 170T186 125T247 107V588Q216 585 186 569T131 524T92 450T77 347Z" />
<glyph unicode="&#x425;" glyph-name="uni0425" horiz-adv-x="375" d="M186 312L63 0H20L161 351L25 695H75L190 399L307 695H350L214 359L355 0H305L186 312Z" />
<glyph unicode="&#x426;" glyph-name="uni0426" horiz-adv-x="438" d="M379 -119L374 0H57V695H105V39H320V695H368V39H418V-119H379Z" />
<glyph unicode="&#x427;" glyph-name="uni0427" horiz-adv-x="405" d="M300 0V314Q288 304 271 297Q257 290 237 285T191 280Q122 280 84 319T45 444V695H93V445Q93 379 119 350T191 320Q217 320 237 325T271 339Q288 348 300 359V695H348V0H300Z" />
<glyph unicode="&#x428;" glyph-name="uni0428" horiz-adv-x="592" d="M57 695H105V39H272V695H320V39H487V695H535V0H57V695Z" />
<glyph unicode="&#x429;" glyph-name="uni0429" horiz-adv-x="602" d="M544 -119L539 0H57V695H105V39H272V695H320V39H487V695H535V39H582V-119H544Z" />
<glyph unicode="&#x42a;" glyph-name="uni042A" horiz-adv-x="448" d="M132 0V656H23V695H180V425H238Q274 425 306 412T363 373T403 309T418 220Q418 164 403 123T362 54T302 14T232 0H132ZM180 385V40H232Q260 40 285 51T329 84T359 139T370 218Q370 258 359
289T330 341T288 374T237 385H180Z" />
<glyph unicode="&#x42b;" glyph-name="uni042B" horiz-adv-x="508" d="M57 695H105V425H163Q199 425 231 412T288 373T328 309T343 220Q343 164 328 123T287 54T227 14T157 0H57V695ZM451 695V0H403V695H451ZM105 385V40H157Q185 40 210 51T254 84T284 139T295
218Q295 258 284 289T255 341T213 374T162 385H105Z" />
<glyph unicode="&#x42c;" glyph-name="uni042C" horiz-adv-x="373" d="M57 695H105V425H163Q199 425 231 412T288 373T328 309T343 220Q343 164 328 123T287 54T227 14T157 0H57V695ZM105 385V40H157Q185 40 210 51T254 84T284 139T295 218Q295 258 284 289T255
341T213 374T162 385H105Z" />
<glyph unicode="&#x42d;" glyph-name="uni042D" horiz-adv-x="373" d="M142 -10Q118 -10 98 -5T64 7T39 23T25 36L39 72Q53 58 77 44T141 29Q217 29 252 109T291 330H108V369H291Q289 515 251 590T144 665Q109 665 85 650T44 612L31 659Q47 676 74 690T144 704Q235
704 287 619T339 365Q339 187 291 89T142 -10Z" />
<glyph unicode="&#x42e;" glyph-name="uni042E" horiz-adv-x="584" d="M367 -10Q289 -10 240 75T186 325H105V0H57V695H105V364H186Q187 446 200 509T238 615T295 681T367 704Q407 704 440 681T498 612T535 501T549 350Q549 263 536 196T498 83T441 14T367 -10ZM367
29Q425 29 462 108T500 349Q500 507 463 586T367 665Q310 665 272 586T233 349Q233 188 271 109T367 29Z" />
<glyph unicode="&#x42f;" glyph-name="uni042F" d="M264 318V656H212Q189 656 167 646T127 614T98 562T87 488Q87 443 97 411T123 358T161 328T205 318H264ZM191 279Q157 208 126 139T66 0H17Q47 71 80 142T148 289Q92 312 66 363T39 489Q39 538 53 576T92 641T148
681T212 695H312V0H264V279H191Z" />
<glyph unicode="&#x430;" glyph-name="uni0430" horiz-adv-x="353" d="M155 26Q190 26 214 55T253 125V268H199Q136 268 105 238T74 140Q74 86 96 56T155 26ZM267 0Q264 10 261 25T255 68Q237 32 210 11T145 -10Q94 -10 62 28T30 136Q30 217 73 258T198 300H253V363Q253
422 232 448T169 475Q137 475 109 461T63 420L50 463Q65 483 95 498T169 514Q231 514 264 479T297 368V93Q297 67 300 41T308 0H267Z" />
<glyph unicode="&#x431;" glyph-name="uni0431" horiz-adv-x="382" d="M193 -10Q159 -10 130 7T80 61T47 152T35 285Q35 393 45 469T79 594T142 664T238 688Q272 689 289 695T320 713L331 676Q318 662 296 656T238 648Q200 647 173 634T126 593T95 517T78 402Q116
508 204 508Q271 508 311 444T352 256Q352 194 340 145T307 61T256 8T193 -10ZM192 26Q241 26 274 85T307 252Q307 362 277 417T202 472Q163 472 130 439T80 348V274Q80 147 112 87T192 26Z" />
<glyph unicode="&#x432;" glyph-name="uni0432" horiz-adv-x="348" d="M56 0V504H160Q227 504 262 473T297 382Q297 344 280 314T226 267Q275 253 297 222T320 145Q320 70 277 35T162 0H56ZM100 469V279H160Q202 279 228 302T254 380Q254 429 229 449T160 469H100ZM100
246V34H164Q213 34 244 58T275 142Q275 198 247 222T163 246H100Z" />
<glyph unicode="&#x433;" glyph-name="uni0433" horiz-adv-x="289" d="M100 467V0H56V504H269V467H100Z" />
<glyph unicode="&#x434;" glyph-name="uni0434" horiz-adv-x="383" d="M125 208Q118 144 108 102T77 36H271V468H141Q140 426 138 382Q136 344 133 299T125 208ZM322 0H46L40 -99H5V36H26Q49 49 63 98T86 219Q91 266 93 316T98 408Q100 457 101 504H317V36H363V-99H328L322
0Z" />
<glyph unicode="&#x435;" glyph-name="uni0435" horiz-adv-x="335" d="M74 244Q76 139 103 84T186 29Q211 29 230 37T262 56Q277 67 287 83L302 46Q290 30 273 18Q259 7 237 -1T185 -10Q105 -10 68 58T30 252Q30 314 41 362T71 445T117 496T176 514Q208 514 234
497T277 446T301 362T302 244H74ZM176 477Q136 477 107 427T75 279H260Q263 330 258 367T241 429T212 465T176 477Z" />
<glyph unicode="&#x436;" glyph-name="uni0436" horiz-adv-x="475" d="M58 0H11L169 267L19 504H64L214 267V504H259V267L409 504H452L304 271L464 0H415L259 261V0H214V261L58 0Z" />
<glyph unicode="&#x437;" glyph-name="uni0437" horiz-adv-x="307" d="M139 -10Q108 -10 86 -2T49 18Q31 30 19 46L34 83Q45 67 60 56Q73 45 92 37T138 29Q178 29 205 57T233 143Q233 192 209 222T127 252H84V288H121Q166 288 193 314T221 391Q221 429 202 452T144
475Q109 475 85 458T43 418L31 461Q48 483 75 498T144 514Q203 514 233 481T264 392Q264 356 248 325T189 273Q237 256 258 221T279 144Q279 107 268 78T238 30T193 0T139 -10Z" />
<glyph unicode="&#x438;" glyph-name="uni0438" horiz-adv-x="387" d="M291 504H330V0H287V357Q287 376 288 392T291 424H288Q283 407 277 392T262 360L95 0H57V504H99V147Q99 128 98 112T95 80H98Q103 97 109 112T124 144L291 504Z" />
<glyph unicode="&#x439;" glyph-name="uni0439" horiz-adv-x="386" d="M195 548Q150 548 126 575T101 648H143Q143 580 195 580Q248 580 248 648H289Q289 602 265 575T195 548ZM291 504H330V0H287V357Q287 376 288 392T291 424H288Q283 407 277 392T262 360L95
0H57V504H99V147Q99 128 98 112T95 80H98Q103 97 109 112T124 144L291 504Z" />
<glyph unicode="&#x43a;" glyph-name="uni043A" horiz-adv-x="332" d="M101 0H56V504H101V267L270 504H314L148 270L326 0H276L101 261V0Z" />
<glyph unicode="&#x43b;" glyph-name="uni043B" horiz-adv-x="362" d="M123 175Q118 132 112 99T96 44T69 9T29 -3Q24 -3 21 -3T15 -1Q11 0 9 1L5 41Q6 40 10 39Q13 38 27 38Q73 38 84 181Q85 196 86 217T88 264T91 317T93 372Q96 434 98 504H306V0H261V469H137Q135
407 133 352Q131 304 129 255T123 175Z" />
<glyph unicode="&#x43c;" glyph-name="uni043C" horiz-adv-x="441" d="M121 356Q114 382 110 406T101 456H97Q97 430 97 403T96 342L84 0H46L66 504H123L202 203Q209 177 213 151T219 103H221Q223 125 227 151T239 203L318 504H376L396 0H351L339 342Q337 374
338 402T339 457H335Q330 429 326 405T314 356L237 60H200L121 356Z" />
<glyph unicode="&#x43d;" glyph-name="uni043D" horiz-adv-x="376" d="M275 244H101V0H56V504H101V280H275V504H320V0H275V244Z" />
<glyph unicode="&#x43e;" glyph-name="uni043E" horiz-adv-x="368" d="M184 -10Q151 -10 123 6T75 55T42 135T30 249Q30 312 42 361T74 444T123 496T184 514Q217 514 245 498T293 450T326 369T338 255Q338 192 326 143T294 60T245 8T184 -10ZM184 26Q229 26 261
81T293 252Q293 312 285 354T261 424T226 464T184 477Q139 477 107 423T75 252Q75 193 83 150T107 80T141 39T184 26Z" />
<glyph unicode="&#x43f;" glyph-name="uni043F" d="M269 468H101V0H56V504H313V0H269V468Z" />
<glyph unicode="&#x440;" glyph-name="uni0440" horiz-adv-x="382" d="M194 26Q243 26 272 84T302 263Q302 363 277 419T206 475Q189 475 174 467T145 444T120 412T101 373V87Q116 56 138 41T194 26ZM190 -9Q162 -9 139 3T101 35V-156H56V504H95L99 421Q116 457
144 485T214 514Q245 514 270 496T312 446T338 368T347 267Q347 128 304 60T190 -9Z" />
<glyph unicode="&#x441;" glyph-name="uni0441" horiz-adv-x="332" d="M197 29Q222 29 240 37T272 56Q287 67 297 83L312 46Q300 30 283 18Q269 7 247 -1T196 -10Q120 -10 79 58T37 251Q37 376 78 445T197 514Q237 514 263 501T307 467L294 419Q277 442 254 459T197
476Q138 476 110 418T82 251Q82 145 109 87T197 29Z" />
<glyph unicode="&#x442;" glyph-name="uni0442" horiz-adv-x="320" d="M183 467V0H138V467H20V504H300V467H183Z" />
<glyph unicode="&#x443;" glyph-name="uni0443" horiz-adv-x="333" d="M66 -160Q58 -160 52 -160T40 -158L35 -116Q41 -118 48 -119T66 -120Q92 -120 110 -96T140 -29L144 -14L20 504H65L144 175Q159 117 166 56H169Q174 88 180 117T194 175L273 504H313L183 -26Q177
-52 168 -76T145 -118T112 -148T66 -160Z" />
<glyph unicode="&#x444;" glyph-name="uni0444" horiz-adv-x="490" d="M221 -156V-7Q182 -5 147 12T86 62T45 141T30 252Q30 315 45 362T87 442T147 492T221 511V695H269V511Q308 509 342 492T403 442T444 363T460 252Q460 189 445 142T403 62T343 12T269 -7V-156H221ZM414
252Q414 306 402 347T370 417T324 459T269 474V29Q299 32 325 47T371 89T402 157T414 252ZM76 252Q76 198 88 158T120 90T166 47T221 29V474Q191 472 165 457T119 415T88 347T76 252Z" />
<glyph unicode="&#x445;" glyph-name="uni0445" horiz-adv-x="333" d="M163 228L61 0H21L138 262L28 504H75L170 292L263 504H304L193 259L312 0H265L163 228Z" />
<glyph unicode="&#x446;" glyph-name="uni0446" horiz-adv-x="383" d="M328 -99L322 0H56V504H101V36H272V504H317V36H363V-99H328Z" />
<glyph unicode="&#x447;" glyph-name="uni0447" horiz-adv-x="354" d="M253 0V230Q243 221 229 214Q217 208 200 203T160 198Q107 198 76 233T45 340V504H90V339Q90 284 111 260T168 236Q188 236 204 241T231 255Q243 264 253 275V504H298V0H253Z" />
<glyph unicode="&#x448;" glyph-name="uni0448" horiz-adv-x="523" d="M56 504H101V36H239V504H284V36H422V504H467V0H56V504Z" />
<glyph unicode="&#x449;" glyph-name="uni0449" horiz-adv-x="533" d="M478 -99L472 0H56V504H101V36H239V504H284V36H422V504H467V36H513V-99H478Z" />
<glyph unicode="&#x44a;" glyph-name="uni044A" horiz-adv-x="378" d="M113 0V467H20V504H158V316H197Q269 316 311 277T353 160Q353 79 309 40T194 0H113ZM158 281V35H190Q244 35 276 64T309 159Q309 224 279 252T195 281H158Z" />
<glyph unicode="&#x44b;" glyph-name="uni044B" horiz-adv-x="448" d="M55 504H100V316H139Q211 316 253 277T295 160Q295 79 251 40T136 0H55V504ZM393 0H349V504H393V0ZM100 281V35H132Q186 35 218 64T251 159Q251 224 221 252T137 281H100Z" />
<glyph unicode="&#x44c;" glyph-name="uni044C" horiz-adv-x="320" d="M55 504H100V316H139Q211 316 253 277T295 160Q295 79 251 40T136 0H55V504ZM100 281V35H132Q186 35 218 64T251 159Q251 224 221 252T137 281H100Z" />
<glyph unicode="&#x44d;" glyph-name="uni044D" horiz-adv-x="323" d="M133 -10Q104 -10 82 -2T46 18Q29 30 17 46L32 83Q42 67 57 56Q70 45 88 37T132 29Q190 29 217 87T247 241H86V276H247Q244 371 217 423T135 476Q103 476 80 459T40 419L28 462Q44 483 70
498T135 514Q211 514 251 446T292 255Q292 195 282 146T252 63T202 9T133 -10Z" />
<glyph unicode="&#x44e;" glyph-name="uni044E" horiz-adv-x="498" d="M318 -10Q287 -10 260 6T213 55T181 133T168 240H101V0H56V504H101V276H168Q173 391 215 452T318 514Q350 514 377 497T425 446T456 364T468 252Q468 189 457 141T425 59T378 8T318 -10ZM318
26Q362 26 392 81T422 252Q422 368 392 422T318 477Q274 477 243 422T212 252Q212 137 243 82T318 26Z" />
<glyph unicode="&#x44f;" glyph-name="uni044F" horiz-adv-x="328" d="M228 224V469H190Q147 469 118 440T88 346Q88 282 114 253T187 224H228ZM228 190H166L73 0H26L126 201Q89 213 66 250T43 344Q43 385 54 415T84 465T130 494T188 504H272V0H228V190Z" />
<glyph unicode="&#x451;" glyph-name="uni0451" horiz-adv-x="334" d="M230 573Q218 573 209 582T200 604Q200 618 209 627T230 636Q242 636 250 627T259 604Q259 591 251 582T230 573ZM110 573Q97 573 90 582T82 604Q82 618 89 627T110 636Q123 636 131 627T140
604Q140 591 132 582T110 573ZM74 244Q76 139 103 84T186 29Q211 29 230 37T262 56Q277 67 287 83L302 46Q290 30 273 18Q259 7 237 -1T185 -10Q105 -10 68 58T30 252Q30 314 41 362T71 445T117 496T176 514Q208 514 234 497T277 446T301 362T302 244H74ZM176 477Q136
477 107 427T75 279H260Q263 330 258 367T241 429T212 465T176 477Z" />
<glyph unicode="&#x452;" glyph-name="uni0452" horiz-adv-x="400" d="M348 -29Q348 -57 342 -81T322 -122T288 -148T239 -157L234 -116Q271 -117 287 -99T303 -24V388Q303 476 235 476Q197 476 168 447T120 370V0H75V598H20V636H75V695H120V636H248V598H120V425H122Q126
437 136 452T161 481T196 504T243 514Q294 514 321 483T348 392V-29V-29Z" />
<glyph unicode="&#x453;" glyph-name="uni0453" horiz-adv-x="289" d="M100 467V0H56V504H269V467H100ZM193 685H243L179 582H144L193 685Z" />
<glyph unicode="&#x454;" glyph-name="uni0454" horiz-adv-x="332" d="M197 29Q222 29 240 37T272 56Q287 67 297 83L312 46Q300 30 283 18Q269 7 247 -1T196 -10Q120 -10 79 58T37 251Q37 376 78 445T197 514Q237 514 263 501T307 467L294 419Q277 442 254 459T197
476Q141 476 113 424T82 275H243V240H82Q84 139 111 84T197 29Z" />
<glyph unicode="&#x455;" glyph-name="uni0455" horiz-adv-x="266" d="M121 -10Q79 -10 54 1T14 25L24 64Q42 48 63 37T120 26Q139 26 154 33T179 51T194 78T200 109Q200 138 187 162T155 208T114 251T72 295T40 344T27 402Q27 430 36 451T61 486T95 507T135 514Q172
514 195 504T232 482L219 441Q202 459 183 468T137 478Q109 478 88 460T67 409Q67 381 80 359T112 315T154 274T196 230T229 179T242 116Q242 86 232 63T206 23T167 -1T121 -10Z" />
<glyph unicode="&#x456;" glyph-name="uni0456" horiz-adv-x="157" d="M79 604Q66 604 57 613T48 635Q48 648 57 657T79 667Q92 667 101 658T110 635Q110 622 101 613T79 604ZM101 504V0H56V504H101Z" />
<glyph unicode="&#x457;" glyph-name="uni0457" horiz-adv-x="157" d="M101 504V0H56V504H101ZM391 604Q379 604 371 612T362 633Q362 645 370 654T391 663Q403 663 411 654T420 633Q420 621 412 613T391 604ZM274 604Q262 604 254 612T245 633Q245 645 253 654T274
663Q286 663 294 654T303 633Q303 621 295 613T274 604Z" />
<glyph unicode="&#x458;" glyph-name="uni0458" horiz-adv-x="157" d="M78 604Q65 604 56 613T46 635Q46 648 55 657T78 667Q91 667 100 658T110 635Q110 622 101 613T78 604ZM101 -29Q101 -57 95 -81T75 -122T41 -148T-8 -157L-13 -116Q24 -117 40 -99T56 -24V504H101V-29Z"
/>
<glyph unicode="&#x459;" glyph-name="uni0459" horiz-adv-x="526" d="M123 175Q118 132 112 99T96 44T69 9T29 -3Q24 -3 21 -3T15 -1Q11 0 9 1L5 41Q6 40 10 39Q13 38 27 38Q73 38 84 181Q85 196 86 217T88 264T91 317T93 372Q96 434 98 504H306V316H345Q417
316 459 277T501 160Q501 79 457 40T342 0H261V469H137Q135 407 133 352Q131 304 129 255T123 175ZM306 281V35H338Q392 35 424 64T457 159Q457 224 427 252T343 281H306Z" />
<glyph unicode="&#x45a;" glyph-name="uni045A" horiz-adv-x="540" d="M320 265V35H352Q406 35 438 62T471 153Q471 213 441 239T357 265H320ZM101 0H56V504H101V300H275V504H320V300H359Q431 300 473 264T515 154Q515 76 471 38T356 0H275V264H101V0Z" />
<glyph unicode="&#x45b;" glyph-name="uni045B" horiz-adv-x="400" d="M235 476Q197 476 168 447T120 370V0H75V695H120V425H122Q126 437 136 452T161 481T196 504T243 514Q294 514 321 483T348 392V0H303V388Q303 476 235 476Z" />
<glyph unicode="&#x45c;" glyph-name="uni045C" horiz-adv-x="332" d="M101 0H56V504H101V267L270 504H314L148 270L326 0H276L101 261V0ZM210 685H260L196 582H161L210 685Z" />
<glyph unicode="&#x45e;" glyph-name="uni045E" horiz-adv-x="333" d="M167 548Q122 548 98 575T73 648H115Q115 580 167 580Q220 580 220 648H261Q261 602 237 575T167 548ZM66 -160Q58 -160 52 -160T40 -158L35 -116Q41 -118 48 -119T66 -120Q92 -120 110 -96T140
-29L144 -14L20 504H65L144 175Q159 117 166 56H169Q174 88 180 117T194 175L273 504H313L183 -26Q177 -52 168 -76T145 -118T112 -148T66 -160Z" />
<glyph unicode="&#x45f;" glyph-name="uni045F" d="M56 0V504H101V36H269V504H313V0H205L200 -99H169L164 0H56Z" />
<glyph unicode="&#x490;" glyph-name="uni0490" horiz-adv-x="327" d="M105 656V0H57V695H253L258 814H297V656H105Z" />
<glyph unicode="&#x491;" glyph-name="uni0491" horiz-adv-x="289" d="M100 467V0H56V504H228L234 603H269V467H100Z" />
<glyph unicode="&#x492;" glyph-name="uni0492" horiz-adv-x="368" d="M146 656V386H275V348H146V0H98V348H30V386H98V695H338V656H146Z" />
<glyph unicode="&#x493;" glyph-name="uni0493" horiz-adv-x="310" d="M121 467V286H222V248H121V0H77V248H20V286H77V504H290V467H121Z" />
<glyph unicode="&#x49a;" glyph-name="uni049A" horiz-adv-x="417" d="M105 367V0H57V695H105V371L314 695H360L154 375L354 39H407V-119H368L363 0H324L105 367Z" />
<glyph unicode="&#x49b;" glyph-name="uni049B" horiz-adv-x="377" d="M101 0H56V504H101V267L270 504H314L148 270L302 36H367V-99H332L326 0H276L101 261V0Z" />
<glyph unicode="&#x4a2;" glyph-name="uni04A2" horiz-adv-x="447" d="M329 325H105V0H57V695H105V364H329V695H377V39H427V-119H388L383 0H329V325Z" />
<glyph unicode="&#x4a3;" glyph-name="uni04A3" horiz-adv-x="386" d="M275 244H101V0H56V504H101V280H275V504H320V36H366V-99H331L325 0H275V244Z" />
<glyph unicode="&#x4ae;" glyph-name="uni04AE" horiz-adv-x="355" d="M154 0V258L16 695H67L182 314L295 695H339L202 258V0H154Z" />
<glyph unicode="&#x4af;" glyph-name="uni04AF" horiz-adv-x="330" d="M141 -187V4L17 504H63L143 178Q153 137 158 108T165 55H168Q172 79 177 108T193 178L273 504H313L189 4V-187H141Z" />
<glyph unicode="&#x4b0;" glyph-name="uni04B0" horiz-adv-x="355" d="M53 259H153L16 695H67L182 314L295 695H339L202 259H302V221H202V0H154V221H53V259Z" />
<glyph unicode="&#x4b1;" glyph-name="uni04B1" horiz-adv-x="330" d="M51 0H141V4L17 504H63L143 178Q153 137 158 108T165 55H168Q172 79 177 108T193 178L273 504H313L189 4V0H279V-38H189V-187H141V-38H51V0Z" />
<glyph unicode="&#x4ba;" glyph-name="uni04BA" horiz-adv-x="405" d="M105 695V381Q117 391 134 398Q148 405 168 410T214 415Q283 415 321 376T360 251V0H312V250Q312 316 286 345T214 375Q188 375 168 370T134 356Q117 347 105 336V0H57V695H105Z" />
<glyph unicode="&#x4bb;" glyph-name="uni04BB" horiz-adv-x="381" d="M216 476Q178 476 149 447T101 370V0H56V695H101V425H103Q107 437 117 452T142 481T177 504T224 514Q275 514 302 483T329 392V0H284V388Q284 476 216 476Z" />
<glyph unicode="&#x4d8;" glyph-name="uni04D8" horiz-adv-x="403" d="M201 -10Q165 -10 136 9T84 68T50 170T35 318V357H319V366Q319 436 309 491T281 585T235 644T175 665Q135 665 111 646T69 601L53 651Q70 671 100 687T175 704Q267 704 317 619T368 367Q368
174 324 82T201 -10ZM201 29Q252 29 282 98T318 318H81Q84 178 115 104T201 29Z" />
<glyph unicode="&#x4d9;" glyph-name="uni04D9" horiz-adv-x="335" d="M261 259Q259 362 234 418T147 475Q122 475 104 467T73 447Q58 435 48 420L33 457Q45 473 62 485Q76 496 97 505T148 514Q189 514 219 496T268 444T296 363T305 256Q305 192 294 143T264 59T217
7T159 -11Q127 -11 101 6T58 57T34 141T33 259H261ZM159 26Q199 26 228 76T260 224H75Q72 173 77 136T94 74T122 38T159 26Z" />
<glyph unicode="&#x4e8;" glyph-name="uni04E8" horiz-adv-x="453" d="M226 -10Q184 -10 149 13T88 81T49 193T35 347Q35 432 49 498T88 610T148 680T226 704Q269 704 304 681T364 613T404 503T418 352Q418 265 404 198T365 84T304 14T226 -10ZM226 665Q167 665
127 591T83 369H370Q367 517 327 591T226 665ZM226 29Q287 29 327 104T370 331H83Q86 179 126 104T226 29Z" />
<glyph unicode="&#x4e9;" glyph-name="uni04E9" horiz-adv-x="368" d="M184 -10Q151 -10 123 6T75 55T42 135T30 249Q30 312 42 361T74 444T123 496T184 514Q217 514 245 498T293 450T326 369T338 255Q338 192 326 143T294 60T245 8T184 -10ZM184 26Q206 26 225
39T259 78T283 144T293 238H75Q76 182 85 142T109 77T143 39T184 26ZM184 477Q141 477 110 428T75 276H292Q288 382 258 429T184 477Z" />
</font>
</defs>
</svg>
